<svg width="1600" height="783" viewBox="0 0 1600 783" fill="none" xmlns="http://www.w3.org/2000/svg">
<rect width="1600" height="782" fill="url(#paint0_linear_3446_12392)"/>
<g clip-path="url(#clip0_3446_12392)">
<path fill-rule="evenodd" clip-rule="evenodd" d="M0 739.528V783H1600.99L1601 745.536L1571.81 747.699L1545.54 745.776L1491.35 750.342L1470.5 752.986L1456.74 758.514L1443.71 759.054L1427.56 756.831L1411.3 763.561L1400.45 760.436L1391.28 763.561L1367.52 760.917L1355.01 765.003L1339.16 756.831H1331.66L1309.56 760.917L1292.88 762.359H1272.87L1248.28 758.514L1215.54 759.115L1192.4 756.351L1154.47 756.591L1162.8 743.373L1144.05 738.086L1101.1 736.644L1003.95 740.489L973.939 736.644L951.008 744.094L901.29 740.489L801.331 739.768L752.968 734L707.107 734.721L685.426 737.365L673.335 740.729L650.196 748.54L600.374 752.025H552.427L502.813 748.66L470.709 752.025L443.192 747.939L401.083 758.754L306.858 748.901L271.835 750.102L225.14 740.729L208.88 744.815L158.432 748.901L106.733 751.784L95.8928 747.699L0 739.528Z" fill="white"/>
<path d="M1583.12 747.953L1600.63 747.237V741.27L1583.12 741.508C1578.53 745.328 1566.44 746.283 1562.27 746.283C1558.11 746.283 1553.52 743.418 1552.27 742.941C1551.02 742.463 1535.18 742.463 1528.92 742.941C1522.68 743.418 1520.58 746.522 1519.75 746.522C1518.92 746.522 1506.83 745.566 1504.33 745.327C1502.33 745.136 1496.82 746.362 1494.33 746.998C1492.32 750.627 1487.1 750.261 1484.74 749.624C1469.73 747.953 1466.81 750.341 1460.98 754.638C1455.14 758.935 1451.8 758.219 1451.39 758.219C1445.38 756.118 1436.38 754.479 1432.63 753.922C1421.79 753.205 1421.79 761.561 1411.37 762.277C1408.22 762.493 1402.88 759.492 1400.52 757.741C1400.11 759.412 1389.69 764.903 1384.27 762.993C1379.93 761.465 1371.35 759.014 1367.6 757.98C1365.51 761.799 1358.84 764.187 1355.5 764.187C1352.17 764.187 1344.67 760.128 1344.67 758.696C1344.67 757.264 1338.83 753.444 1338.83 754.16C1338.83 754.733 1334.66 755.354 1332.58 755.593C1332.58 755.831 1331.24 756.022 1325.91 754.876C1320.91 754.399 1309.23 760.128 1305.9 760.128C1303.23 760.128 1300.62 759.173 1299.64 758.696C1295.31 762.898 1291.72 762.197 1290.47 761.322C1289.92 760.765 1287.22 759.317 1280.89 757.98C1272.96 756.309 1274.22 762.277 1272.12 761.322C1270.04 760.367 1260.45 757.741 1252.95 756.309C1245.44 754.876 1240.03 757.98 1230.02 758.696C1220.02 759.412 1208.35 754.638 1200.85 753.444C1193.34 752.25 1178.33 755.593 1169.15 756.309C1159.99 757.025 1156.18 754.423 1155.35 754.901C1154.69 755.283 1149.53 757.637 1147.31 758.671C1156.32 762.491 1187.64 760.765 1202.09 759.173C1209.76 762.038 1229.19 763.232 1237.95 763.471C1249.28 759.078 1265.45 763.55 1272.12 766.335C1275.8 761.561 1283.94 763.868 1287.56 765.619C1294.89 768.866 1298.11 765.54 1298.81 763.471C1302.48 766.144 1305.9 765.54 1307.14 764.903C1321.32 760.845 1326.32 759.173 1328.82 760.128C1331.33 761.083 1333.41 760.845 1334.66 760.845C1335.66 760.845 1337.85 759.731 1338.83 759.173C1339.52 759.094 1341.08 759.317 1341.75 760.845C1342.41 762.372 1347.86 766.256 1350.5 768.006C1357.17 771.253 1364.68 765.699 1367.6 762.516L1375.1 764.903C1383.43 767.959 1387.74 768.245 1388.85 768.006C1392.52 768.197 1398.44 764.425 1400.95 762.516C1406.36 766.574 1416.37 769.677 1422.62 762.516C1428.87 755.354 1445.55 762.516 1447.21 762.516C1453.22 764.807 1456.11 763.471 1456.8 762.516C1470.14 754.685 1477.09 754.16 1478.9 754.876C1493.24 756.786 1495.16 754.081 1494.33 752.489L1505.16 751.296C1507.17 751.868 1515.73 752.33 1519.75 752.489C1526.76 747.142 1544.63 748.192 1552.69 749.386C1564.36 755.306 1577.84 750.898 1583.12 747.953Z" fill="white"/>
<path d="M1166.24 741.505C1166.66 741.982 1161.66 745.563 1161.66 745.802C1149.98 741.982 1135.95 741.027 1130.39 741.027C1116.72 736.253 1106.63 739.038 1103.29 741.027C1089.95 737.208 1088.7 743.415 1067.86 742.698C1051.19 745.181 1037.57 743.574 1032.84 742.46C1026.84 746.539 1016.44 746.069 1011.99 745.324C984.986 737.494 975.174 739.356 973.641 741.266C965.304 738.879 957.801 746.996 952.382 747.95C946.962 748.905 944.461 744.608 944.045 744.608C943.627 744.608 938.208 745.802 929.871 746.757C923.2 747.521 907.915 745.643 901.106 744.608C892.101 746.327 865.948 745.324 853.998 744.608C844.41 746.518 851.081 746.996 827.735 743.892C804.389 740.789 809.392 744.847 801.054 743.176C794.384 741.839 781.601 742.301 776.042 742.698C774.513 742.062 770.79 740.741 768.122 740.55C765.454 740.359 763.118 740.948 762.284 741.266C762.284 740.311 758.672 738.799 756.866 738.163C735.604 736.014 717.262 739.834 716.428 739.834C715.594 739.834 716.428 740.55 710.175 738.879C703.922 737.208 700.17 741.266 699.753 741.266C687.247 737.685 683.912 742.221 681.41 743.415C678.909 744.608 666.819 746.041 661.4 747.473C655.98 748.905 648.06 753.919 643.474 754.874C639.806 755.637 620.546 755.033 611.375 754.635C607.623 757.261 582.61 756.067 578.024 755.351C573.439 754.635 568.436 757.022 567.185 756.306C565.935 755.59 548.009 756.067 528.832 752.725C513.491 750.051 492.981 751.611 484.643 752.725C472.971 760.364 459.631 754.396 455.045 752.248C451.376 750.529 446.846 750.736 445.04 751.054C442.677 751.611 437.536 752.725 435.868 752.725C433.785 752.725 425.863 756.783 423.362 757.022C421.361 757.213 419.471 756.624 418.776 756.306C413.357 760.603 410.022 760.842 401.684 762.99C395.014 764.709 378.339 759.25 370.836 756.306C363.332 758.693 354.993 756.545 347.49 755.828C341.486 755.256 337.763 755.59 336.651 755.828C330.676 754.317 314.89 751.866 299.549 754.157C284.208 756.449 272.035 753.68 267.867 752.009C253.275 752.009 237.017 745.802 232.432 744.847C227.845 743.892 217.007 744.37 217.007 744.847C217.007 745.324 212.421 749.86 211.588 749.86C210.921 749.86 209.92 749.224 209.503 748.905C202.833 750.433 184.213 752.248 175.735 752.964L134.465 753.202C126.461 751.293 112.231 753.998 106.117 755.59H100.697V754.874C111.12 746.996 70.2653 752.725 68.1809 752.725C66.5135 752.725 62.4834 750.656 60.677 749.622L62.3446 749.144C63.1784 748.905 64.429 745.086 65.2627 745.802C65.9297 746.375 68.8757 746.518 70.2653 746.518C106.117 742.221 101.948 745.802 101.948 746.996C101.948 748.189 100.697 749.86 102.782 750.099C104.45 750.29 118.762 747.95 125.71 746.757C128.211 747.234 133.965 747.95 136.966 746.996C140.718 745.802 174.902 747.95 176.569 746.996C178.237 746.041 198.664 744.847 203.667 744.131C207.669 743.558 209.503 742.778 209.92 742.46C210.059 742.778 210.587 743.462 211.588 743.653C212.838 743.892 214.923 740.311 217.007 738.163C218.674 736.444 228.263 737.447 232.848 738.163C239.518 741.982 266.615 746.041 268.7 746.518C270.784 746.996 274.953 750.099 282.457 749.144C289.961 748.189 314.557 747.95 317.058 747.712C319.559 747.473 332.899 749.86 337.902 750.576C342.904 751.293 339.152 750.815 345.406 749.86C351.659 748.905 355.827 751.77 360.413 752.009C364.082 752.2 368.89 751.133 370.836 750.576C383.342 756.306 387.511 755.59 396.682 757.977C405.853 760.364 418.776 750.099 418.776 750.338C418.776 750.576 423.362 751.293 425.863 751.054C428.365 750.815 435.035 747.234 435.868 746.996C436.702 746.757 436.702 746.996 442.122 745.324C446.458 743.988 450.32 744.767 451.71 745.324C454.767 746.836 462.466 750.099 468.802 751.054C476.722 752.248 482.142 748.189 484.643 746.996C487.145 745.802 500.067 746.041 500.901 746.041C510.574 744.322 519.939 745.324 523.414 746.041C534.419 747.95 558.57 749.86 569.27 750.576C571.354 748.189 595.116 752.009 604.288 750.576C611.625 749.431 614.293 748.826 614.71 748.667C627.216 750.338 640.139 749.383 644.308 748.667C648.477 747.95 657.231 740.311 661.4 740.789C664.735 741.171 676.964 737.765 682.661 736.014C689.331 729.808 695.168 733.388 696.002 733.149C696.835 732.911 699.336 734.821 700.17 733.866C701.004 732.911 705.173 731.478 708.508 731.956C711.843 732.433 715.594 732.433 716.428 732.433C722.682 730.046 743.525 731.001 748.528 731.001H756.448C759.45 731.001 761.59 733.229 762.284 734.343C764.619 731.861 771.873 734.423 775.208 736.014C779.544 734.487 787.019 735.378 790.216 736.014C793.69 736.492 802.139 737.16 808.142 736.014C815.646 734.582 824.817 736.731 827.735 737.447C830.653 738.163 843.16 739.595 848.996 739.357C854.832 739.118 853.165 737.208 855.249 737.924C857.333 738.64 890.267 738.64 895.686 737.924C900.022 737.351 906.665 738.163 909.443 738.64C925.451 741.696 939.459 739.436 944.461 737.924C945.795 740.025 948.907 741.028 950.297 741.266C954.466 742.699 962.804 736.731 965.718 734.821C968.639 732.911 970.306 733.627 971.145 734.105C971.81 734.487 973.921 734.264 974.895 734.105C982.818 730.285 1003.24 736.014 1012.83 738.879C1022.41 741.744 1031.59 736.014 1032.84 736.014C1034.09 736.014 1042.85 738.163 1045.76 737.924C1048.1 737.733 1061.47 736.571 1067.86 736.014C1069.25 736.651 1074.69 737.256 1085.36 734.582C1096.03 731.908 1101.21 733.309 1102.45 734.343C1107.79 731.287 1113.3 731.001 1115.38 731.24C1119.55 730.285 1129.97 734.343 1131.23 734.343C1141.23 732.91 1165.82 741.027 1166.24 741.505Z" fill="white"/>
<path d="M60.4609 743.187C59.6211 743.894 61.3007 743.894 61.7205 744.129H47.0251C43.5261 744.836 35.7726 745.778 32.7496 743.894C29.7265 742.01 26.7315 743.266 25.6119 744.129C24.6042 743.564 8.11741 742.952 0 742.716V736.123C2.09931 735.417 25.612 738.007 26.4517 737.301C27.1235 736.736 28.411 736.437 28.9709 736.359C30.3704 736.908 33.8412 738.101 36.5284 738.478C39.8874 738.949 44.086 738.478 46.1853 737.772C48.2847 737.065 63.4 737.772 64.6596 738.478C65.9191 739.184 63.4 740.126 61.7205 742.245C60.0411 744.365 61.3006 742.481 60.4609 743.187Z" fill="white"/>
<path d="M1161.24 758.952L1166.12 741.469L1158.66 743.857L1147.7 758.474L1161.24 758.952Z" fill="white"/>
</g>
<defs>
<linearGradient id="paint0_linear_3446_12392" x1="1262.5" y1="-111.781" x2="1274.35" y2="1255.88" gradientUnits="userSpaceOnUse">
<stop offset="0.427083" stop-color="#A0000C"/>
<stop offset="0.755208" stop-color="#4D0006" stop-opacity="0.6"/>
</linearGradient>
<clipPath id="clip0_3446_12392">
<rect width="1600" height="53" fill="white" transform="translate(0 730)"/>
</clipPath>
</defs>
</svg>
