<svg width="1600" height="756" viewBox="0 0 1600 756" fill="none" xmlns="http://www.w3.org/2000/svg">
<g clip-path="url(#clip0_4099_29879)">
<g opacity="0.02">
<path d="M1493.5 544.585L1450.54 587.473L1493.5 630.36L1536.47 587.473L1493.5 544.585Z" fill="white"/>
<path d="M1563.49 455.273L1502.21 516.637L1563.69 577.808L1624.97 516.444L1563.49 455.273Z" fill="white"/>
<path d="M1421.38 456.192L1360.74 516.832L1421.49 577.366L1482.13 516.726L1421.38 456.192Z" fill="white"/>
<path d="M1492.69 384.204L1431.25 445.418L1492.58 506.739L1554.01 445.525L1492.69 384.204Z" fill="white"/>
<path d="M1563.84 312.884L1502.41 374.109L1563.75 435.42L1625.17 374.195L1563.84 312.884Z" fill="white"/>
<path d="M1349.65 384.464L1289 445.094L1349.74 505.639L1410.39 445.009L1349.65 384.464Z" fill="white"/>
<path d="M1420.47 312.538L1359.78 373.125L1420.47 433.712L1481.17 373.125L1420.47 312.538Z" fill="white"/>
<path d="M1493.11 241L1431.68 302.215L1493 363.536L1554.44 302.322L1493.11 241Z" fill="white"/>
</g>
<g opacity="0.02">
<path d="M1494.5 688.585L1451.54 731.473L1494.5 774.36L1537.47 731.473L1494.5 688.585Z" fill="white"/>
<path d="M1564.49 599.273L1503.21 660.637L1564.69 721.808L1625.97 660.444L1564.49 599.273Z" fill="white"/>
<path d="M1422.38 600.192L1361.74 660.832L1422.49 721.366L1483.13 660.726L1422.38 600.192Z" fill="white"/>
<path d="M1493.69 528.204L1432.25 589.418L1493.58 650.739L1555.01 589.525L1493.69 528.204Z" fill="white"/>
<path d="M1564.84 456.884L1503.41 518.109L1564.75 579.42L1626.17 518.195L1564.84 456.884Z" fill="white"/>
<path d="M1350.65 528.464L1290 589.094L1350.74 649.639L1411.39 589.009L1350.65 528.464Z" fill="white"/>
<path d="M1421.47 456.538L1360.78 517.125L1421.47 577.712L1482.17 517.125L1421.47 456.538Z" fill="white"/>
<path d="M1494.11 385L1432.68 446.215L1494 507.536L1555.44 446.322L1494.11 385Z" fill="white"/>
</g>
<g opacity="0.02">
<path d="M224.504 196.585L181.539 239.473L224.504 282.36L267.47 239.473L224.504 196.585Z" fill="white"/>
<path d="M294.493 107.273L233.21 168.637L294.686 229.808L355.968 168.444L294.493 107.273Z" fill="white"/>
<path d="M152.38 108.192L91.7363 168.832L152.486 229.366L213.13 168.726L152.38 108.192Z" fill="white"/>
<path d="M223.686 36.2036L162.254 97.418L223.579 158.739L285.012 97.5249L223.686 36.2036Z" fill="white"/>
<path d="M294.836 -35.1157L233.415 26.1094L294.751 87.42L356.173 26.195L294.836 -35.1157Z" fill="white"/>
<path d="M80.6546 36.4644L20 97.0938L80.7394 157.639L141.394 97.0092L80.6546 36.4644Z" fill="white"/>
<path d="M151.475 -35.4621L90.7778 25.125L151.475 85.7122L212.172 25.1251L151.475 -35.4621Z" fill="white"/>
<path d="M224.11 -107L162.678 -45.7852L224.003 15.5362L285.436 -45.6782L224.11 -107Z" fill="white"/>
</g>
<g opacity="0.02">
<path d="M225.504 340.585L182.539 383.473L225.504 426.36L268.47 383.473L225.504 340.585Z" fill="white"/>
<path d="M295.493 251.273L234.21 312.637L295.686 373.808L356.968 312.444L295.493 251.273Z" fill="white"/>
<path d="M153.38 252.192L92.7363 312.832L153.486 373.366L214.13 312.726L153.38 252.192Z" fill="white"/>
<path d="M224.686 180.204L163.254 241.418L224.579 302.739L286.012 241.525L224.686 180.204Z" fill="white"/>
<path d="M295.836 108.884L234.415 170.109L295.751 231.42L357.173 170.195L295.836 108.884Z" fill="white"/>
<path d="M81.6546 180.464L21 241.094L81.7394 301.639L142.394 241.009L81.6546 180.464Z" fill="white"/>
<path d="M152.475 108.538L91.7778 169.125L152.475 229.712L213.172 169.125L152.475 108.538Z" fill="white"/>
<path d="M225.11 37.0004L163.678 98.2148L225.003 159.536L286.436 98.3218L225.11 37.0004Z" fill="white"/>
</g>
</g>
<defs>
<clipPath id="clip0_4099_29879">
<rect width="1600" height="756" fill="white"/>
</clipPath>
</defs>
</svg>
