<svg width="30" height="30" viewBox="0 0 30 30" fill="none" xmlns="http://www.w3.org/2000/svg">
<rect x="10.6152" y="6" width="15" height="4.30755" transform="rotate(45 10.6152 6)" fill="#E10A17"/>
<path d="M22.6873 19.7933C22.8373 19.4558 22.9217 19.0902 22.9217 18.7152C22.9217 18.0027 22.6498 17.3371 22.1435 16.8402L21.8529 16.5402C21.9279 16.2121 21.8623 15.8652 21.6092 15.6121L19.4904 13.5027L23.1935 9.7902C24.356 9.6402 25.4623 9.02145 26.156 7.84957C26.9154 6.57457 26.906 4.92457 26.0998 3.6777C25.7786 3.1641 25.3457 2.72957 24.8333 2.40645C24.3209 2.08334 23.7422 1.87998 23.1403 1.8115C22.5384 1.74302 21.9289 1.8112 21.357 2.01095C20.7851 2.2107 20.2656 2.53688 19.8373 2.9652C19.181 3.62145 18.8154 4.44645 18.7029 5.29957L14.9998 9.0027L11.2967 5.29957C11.1467 4.14645 10.5279 3.03082 9.35603 2.33707C8.72037 1.9638 7.99464 1.7717 7.25756 1.78162C6.52047 1.79153 5.80017 2.00308 5.17478 2.39332C4.66223 2.71678 4.22901 3.15139 3.9072 3.66497C3.58539 4.17856 3.38324 4.75796 3.31572 5.36026C3.24819 5.96256 3.31703 6.57234 3.51712 7.14444C3.71722 7.71653 4.04345 8.23628 4.47166 8.6652C5.11853 9.32145 5.95291 9.68707 6.80603 9.7902L10.5092 13.4933L8.39041 15.6121C8.20291 15.7902 8.09978 16.0433 8.09978 16.3058C8.09978 16.3902 8.12791 16.4652 8.14666 16.5402L7.85603 16.8308C7.4738 17.2101 7.21682 17.6972 7.11962 18.2268C7.02241 18.7564 7.08965 19.3031 7.31228 19.7933L1.22791 25.8777C1.09068 26.0159 0.997273 26.1915 0.959365 26.3825C0.921457 26.5736 0.940736 26.7715 1.01479 26.9517C1.08884 27.1318 1.21438 27.2861 1.37569 27.3952C1.53699 27.5043 1.72691 27.5635 1.92166 27.5652C2.17478 27.5652 2.41853 27.4714 2.61541 27.2746L8.69978 21.1808C9.04666 21.3402 9.41228 21.4246 9.78728 21.4246C10.4623 21.4246 11.1467 21.1621 11.6623 20.6465L11.9529 20.3464C12.0373 20.3652 12.1123 20.3933 12.1873 20.3933C12.4404 20.3933 12.6935 20.2996 12.8904 20.1121L14.9998 17.9933L17.1185 20.1027C17.2967 20.2902 17.5498 20.3933 17.8123 20.3933C17.8873 20.3933 17.9623 20.3652 18.0373 20.3464L18.3373 20.6465C18.8529 21.1621 19.5373 21.4152 20.2123 21.4152C20.5873 21.4152 20.9529 21.3402 21.2998 21.1808L27.3842 27.2746C27.7685 27.6589 28.3873 27.6589 28.7717 27.2746C28.9685 27.0777 29.0623 26.834 29.0623 26.5714C29.0623 26.3277 28.9685 26.0652 28.7717 25.8777L22.6873 19.7933ZM19.1248 7.66207C19.3123 8.01832 19.5373 8.3652 19.8373 8.6652C20.1279 8.9652 20.4748 9.1902 20.831 9.36832L18.1029 12.1058L16.3967 10.3996L19.1248 7.66207ZM12.1967 18.0214L10.481 16.3058L11.8967 14.8808L13.6123 16.5964L12.1967 18.0214ZM17.8123 18.0121L9.16853 9.36832C9.52478 9.1902 9.86228 8.9652 10.1623 8.6652C10.4623 8.3652 10.6873 8.01832 10.8748 7.66207L19.5185 16.3058L17.8123 18.0121Z" fill="#424242"/>
</svg>
