<svg width="30" height="30" viewBox="0 0 30 30" fill="none" xmlns="http://www.w3.org/2000/svg">
<path d="M15 7.5C13.9802 7.5 12.9833 7.80241 12.1353 8.36898C11.2874 8.93556 10.6265 9.74086 10.2362 10.683C9.84598 11.6252 9.74387 12.662 9.94283 13.6622C10.1418 14.6624 10.6329 15.5812 11.354 16.3023C12.0751 17.0234 12.9939 17.5145 13.9941 17.7134C14.9943 17.9124 16.031 17.8103 16.9732 17.42C17.9154 17.0297 18.7207 16.3688 19.2873 15.5209C19.8538 14.673 20.1563 13.6761 20.1563 12.6562C20.1546 11.2892 19.6109 9.97865 18.6442 9.01201C17.6776 8.04538 16.367 7.50161 15 7.5ZM15 15.4688C14.4437 15.4688 13.9 15.3038 13.4375 14.9948C12.9749 14.6857 12.6145 14.2465 12.4016 13.7325C12.1887 13.2186 12.133 12.6531 12.2415 12.1076C12.3501 11.562 12.6179 11.0608 13.0113 10.6675C13.4046 10.2742 13.9057 10.0063 14.4513 9.89779C14.9969 9.78927 15.5624 9.84497 16.0763 10.0578C16.5902 10.2707 17.0295 10.6312 17.3385 11.0937C17.6476 11.5562 17.8125 12.1 17.8125 12.6562C17.8118 13.4019 17.5152 14.1169 16.9879 14.6442C16.4606 15.1715 15.7457 15.468 15 15.4688Z" fill="#E10A17"/>
<path d="M10.7896 8.26125C11.4828 7.59496 12.3238 7.10215 13.244 6.82312L12.3894 4.6875H17.736L16.9968 6.90563C17.9249 7.22923 18.7612 7.77229 19.4343 8.48859L20.6099 4.96078C20.7275 4.60847 20.7597 4.23325 20.7038 3.86607C20.6479 3.49888 20.5055 3.15023 20.2885 2.84886C20.0714 2.54749 19.7858 2.30203 19.4552 2.13271C19.1246 1.96339 18.7585 1.87506 18.3871 1.875H11.6971C11.3141 1.87503 10.9369 1.96892 10.5986 2.14845C10.2603 2.32799 9.97114 2.5877 9.75643 2.90486C9.54172 3.22202 9.40801 3.58696 9.36699 3.96776C9.32598 4.34856 9.37891 4.73361 9.52116 5.08922L10.7896 8.26125Z" fill="#E10A17"/>
<path d="M8.90625 16.875H7.03125C6.2546 16.875 5.625 17.5046 5.625 18.2812V26.7188C5.625 27.4954 6.2546 28.125 7.03125 28.125H8.90625C9.6829 28.125 10.3125 27.4954 10.3125 26.7188V18.2812C10.3125 17.5046 9.6829 16.875 8.90625 16.875Z" fill="#424242"/>
<path d="M22.9688 16.875H21.0938C20.3171 16.875 19.6875 17.5046 19.6875 18.2812V26.7188C19.6875 27.4954 20.3171 28.125 21.0938 28.125H22.9688C23.7454 28.125 24.375 27.4954 24.375 26.7188V18.2812C24.375 17.5046 23.7454 16.875 22.9688 16.875Z" fill="#424242"/>
<path d="M15 14.5312C16.0355 14.5312 16.875 13.6918 16.875 12.6562C16.875 11.6207 16.0355 10.7812 15 10.7812C13.9645 10.7812 13.125 11.6207 13.125 12.6562C13.125 13.6918 13.9645 14.5312 15 14.5312Z" fill="#424242"/>
<path d="M1.875 20.1562V24.8438C1.875 25.2167 2.02316 25.5744 2.28688 25.8381C2.5506 26.1018 2.90829 26.25 3.28125 26.25H4.6875V18.75H3.28125C2.90829 18.75 2.5506 18.8982 2.28688 19.1619C2.02316 19.4256 1.875 19.7833 1.875 20.1562ZM26.7188 18.75H25.3125V26.25H26.7188C27.0917 26.25 27.4494 26.1018 27.7131 25.8381C27.9768 25.5744 28.125 25.2167 28.125 24.8438V20.1562C28.125 19.7833 27.9768 19.4256 27.7131 19.1619C27.4494 18.8982 27.0917 18.75 26.7188 18.75ZM11.25 21.0938H18.75V23.9063H11.25V21.0938Z" fill="#424242"/>
</svg>
