<svg width="30" height="30" viewBox="0 0 30 30" fill="none" xmlns="http://www.w3.org/2000/svg">
<path d="M12.115 23.8621L7.61128 25.6982L4.6516 22.7385L4.22832 20.564C4.16363 19.5074 4.46597 18.5578 5.07957 17.887C5.66691 17.2457 6.50597 16.8956 7.54097 16.8749H7.54941C8.35238 16.8749 9.0166 17.2701 9.28378 17.9081C9.53175 18.4996 9.37191 19.1446 8.87691 19.6481L8.13722 20.2649L8.73769 20.9849L9.51019 20.3376C9.74264 20.1028 9.93462 19.8312 10.0783 19.5337L10.7857 20.0943C11.2101 20.4391 11.7407 20.6265 12.2875 20.6249C12.3939 20.6249 12.5013 20.6179 12.6091 20.6043C13.3239 20.5115 13.9919 20.1074 14.441 19.4953L13.6849 18.9407C13.3868 19.3471 12.9513 19.6148 12.4886 19.6743C12.2911 19.7012 12.0901 19.6874 11.8981 19.6337C11.706 19.58 11.527 19.4876 11.3721 19.3621L10.33 18.5367C10.3419 18.1968 10.28 17.8584 10.1486 17.5448C9.73847 16.5674 8.71894 15.937 7.54894 15.937H7.53769C7.533 15.937 7.48613 15.937 7.48613 15.937C7.0432 15.9443 6.60336 16.0122 6.17878 16.1385C6.53128 14.6184 7.98207 13.6054 9.95175 13.5932C12.7807 14.0545 15.2528 16.4526 15.4694 18.9149C15.4689 21.0707 14.1508 23.0128 12.115 23.8621ZM23.8638 12.1115C23.0135 14.151 21.071 15.4687 18.956 15.4706C16.4538 15.2521 14.0552 12.7804 13.5939 9.95104C13.6061 7.98135 14.6191 6.53057 16.1393 6.17807C16.016 6.58448 15.9475 7.02182 15.9377 7.48541L15.9382 7.53745C15.9339 8.71166 16.5649 9.73682 17.546 10.1479C17.8348 10.2705 18.1453 10.334 18.4591 10.3345C18.4853 10.3345 18.5116 10.3312 18.5378 10.3303L19.3657 11.3746C19.6174 11.6859 19.7271 12.081 19.6741 12.4879C19.6146 12.9501 19.3474 13.386 18.941 13.6842L19.496 14.4398C20.1082 13.9907 20.5118 13.3232 20.6041 12.6079C20.6484 12.2862 20.6263 11.9588 20.5392 11.6459C20.4521 11.333 20.3019 11.0413 20.0978 10.7887L19.533 10.0762C19.8422 9.92342 20.1243 9.72088 20.3678 9.47666L20.9847 8.73698L20.2652 8.13651L19.6783 8.84291C19.1449 9.37073 18.4989 9.53198 17.9083 9.28307C17.2685 9.01448 16.8728 8.34698 16.8752 7.50463C16.8958 6.50526 17.246 5.6662 17.8872 5.07885C18.5575 4.46479 19.5068 4.16338 20.5643 4.22713L22.7393 4.65041L25.6989 7.60916L23.8638 12.1115Z" fill="#424242"/>
<path d="M7.36907 27.4674L6.37392 28.4626C6.28975 28.5464 6.17582 28.5935 6.05704 28.5935C5.93826 28.5935 5.82433 28.5464 5.74017 28.4626L1.53735 24.2598C1.45348 24.1757 1.40634 24.0618 1.40625 23.943C1.40616 23.8242 1.45313 23.7102 1.53688 23.626L2.53204 22.6309C2.62907 22.5334 2.75563 22.4912 2.87704 22.4912C2.9886 22.4912 3.09688 22.5268 3.1761 22.5887L7.34142 26.7531C7.54204 26.9827 7.55329 27.2832 7.36907 27.4674ZM28.4628 6.37368L27.4677 7.36884C27.2834 7.55306 26.983 7.54321 26.7763 7.36321L22.5889 3.17634C22.4595 3.01134 22.4445 2.71837 22.6306 2.53227L23.6258 1.53712C23.71 1.45331 23.8239 1.40625 23.9427 1.40625C24.0614 1.40625 24.1754 1.45331 24.2595 1.53712L28.4624 5.73993C28.6372 5.91524 28.6372 6.19931 28.4628 6.37368ZM20.2892 20.4882L20.952 19.8254L25.6386 24.512L24.9758 25.1748L20.2892 20.4882ZM17.8124 21.0938H18.7499V26.7188H17.8124V21.0938ZM21.5624 17.3438H27.1874V18.2813H21.5624V17.3438ZM3.41704 4.08196L4.08032 3.41915L8.29813 7.63696L7.63532 8.29977L3.41704 4.08196ZM2.3436 9.84384H7.0311V10.7813H2.3436V9.84384ZM10.3124 2.34384H11.2499V7.03134H10.3124V2.34384Z" fill="#E10A17"/>
</svg>
