<svg width="18" height="19" viewBox="0 0 18 19" fill="none" xmlns="http://www.w3.org/2000/svg">
<g clip-path="url(#clip0_4317_27101)">
<path d="M5.71785 4.372C5.38144 4.372 5.10246 4.09302 5.10246 3.75661V1.29507C5.10246 0.958662 5.38144 0.679688 5.71785 0.679688C6.05426 0.679688 6.33323 0.958662 6.33323 1.29507V3.75661C6.33323 4.09302 6.05426 4.372 5.71785 4.372ZM12.282 4.372C11.9455 4.372 11.6666 4.09302 11.6666 3.75661V1.29507C11.6666 0.958662 11.9455 0.679688 12.282 0.679688C12.6184 0.679688 12.8973 0.958662 12.8973 1.29507V3.75661C12.8973 4.09302 12.6184 4.372 12.282 4.372ZM6.12811 11.5515C6.02144 11.5515 5.91477 11.5269 5.81631 11.4858C5.70964 11.4448 5.62759 11.3874 5.54554 11.3135C5.39785 11.1576 5.30759 10.9525 5.30759 10.731C5.30759 10.6243 5.33221 10.5176 5.37323 10.4192C5.41426 10.3207 5.4717 10.2305 5.54554 10.1484C5.62759 10.0746 5.70964 10.0171 5.81631 9.9761C6.1117 9.85302 6.48093 9.91866 6.71067 10.1484C6.85836 10.3043 6.94862 10.5176 6.94862 10.731C6.94862 10.7802 6.94041 10.8376 6.93221 10.8951C6.924 10.9443 6.90759 10.9935 6.88298 11.0428C6.86657 11.092 6.84195 11.1412 6.80913 11.1905C6.78452 11.2315 6.74349 11.2725 6.71067 11.3135C6.55477 11.4612 6.34144 11.5515 6.12811 11.5515ZM8.9999 11.5515C8.89323 11.5515 8.78657 11.5269 8.68811 11.4858C8.58144 11.4448 8.49939 11.3874 8.41734 11.3135C8.26964 11.1576 8.17939 10.9525 8.17939 10.731C8.17939 10.6243 8.204 10.5176 8.24503 10.4192C8.28605 10.3207 8.34349 10.2305 8.41734 10.1484C8.49939 10.0746 8.58144 10.0171 8.68811 9.9761C8.98349 9.84482 9.35272 9.91866 9.58246 10.1484C9.73016 10.3043 9.82041 10.5176 9.82041 10.731C9.82041 10.7802 9.81221 10.8376 9.804 10.8951C9.7958 10.9443 9.77939 10.9935 9.75477 11.0428C9.73836 11.092 9.71375 11.1412 9.68093 11.1905C9.65631 11.2315 9.61529 11.2725 9.58246 11.3135C9.42657 11.4612 9.21323 11.5515 8.9999 11.5515ZM11.8717 11.5515C11.765 11.5515 11.6584 11.5269 11.5599 11.4858C11.4532 11.4448 11.3712 11.3874 11.2891 11.3135L11.1907 11.1905C11.1596 11.1447 11.1348 11.0951 11.1168 11.0428C11.0931 10.9963 11.0765 10.9465 11.0676 10.8951C11.0594 10.8376 11.0512 10.7802 11.0512 10.731C11.0512 10.5176 11.1414 10.3043 11.2891 10.1484C11.3712 10.0746 11.4532 10.0171 11.5599 9.9761C11.8635 9.84482 12.2245 9.91866 12.4543 10.1484C12.602 10.3043 12.6922 10.5176 12.6922 10.731C12.6922 10.7802 12.684 10.8376 12.6758 10.8951C12.6676 10.9443 12.6512 10.9935 12.6266 11.0428C12.6102 11.092 12.5855 11.1412 12.5527 11.1905C12.5281 11.2315 12.4871 11.2725 12.4543 11.3135C12.2984 11.4612 12.085 11.5515 11.8717 11.5515ZM6.12811 14.4233C6.02144 14.4233 5.91477 14.3987 5.81631 14.3576C5.71785 14.3166 5.62759 14.2592 5.54554 14.1853C5.39785 14.0294 5.30759 13.8161 5.30759 13.6028C5.30759 13.4961 5.33221 13.3894 5.37323 13.291C5.41426 13.1843 5.4717 13.094 5.54554 13.0202C5.84913 12.7166 6.40708 12.7166 6.71067 13.0202C6.85836 13.1761 6.94862 13.3894 6.94862 13.6028C6.94862 13.8161 6.85836 14.0294 6.71067 14.1853C6.55477 14.333 6.34144 14.4233 6.12811 14.4233ZM8.9999 14.4233C8.78657 14.4233 8.57323 14.333 8.41734 14.1853C8.26964 14.0294 8.17939 13.8161 8.17939 13.6028C8.17939 13.4961 8.204 13.3894 8.24503 13.291C8.28605 13.1843 8.34349 13.094 8.41734 13.0202C8.72093 12.7166 9.27887 12.7166 9.58246 13.0202C9.65631 13.094 9.71375 13.1843 9.75477 13.291C9.7958 13.3894 9.82041 13.4961 9.82041 13.6028C9.82041 13.8161 9.73016 14.0294 9.58246 14.1853C9.42657 14.333 9.21323 14.4233 8.9999 14.4233ZM11.8717 14.4233C11.6584 14.4233 11.445 14.333 11.2891 14.1853C11.2132 14.1083 11.1545 14.016 11.1168 13.9146C11.0758 13.8161 11.0512 13.7094 11.0512 13.6028C11.0512 13.4961 11.0758 13.3894 11.1168 13.291C11.1578 13.1843 11.2153 13.094 11.2891 13.0202C11.4778 12.8315 11.765 12.7412 12.0276 12.7987C12.085 12.8069 12.1343 12.8233 12.1835 12.8479C12.2327 12.8643 12.282 12.8889 12.3312 12.9217C12.3722 12.9464 12.4132 12.9874 12.4543 13.0202C12.602 13.1761 12.6922 13.3894 12.6922 13.6028C12.6922 13.8161 12.602 14.0294 12.4543 14.1853C12.2984 14.333 12.085 14.4233 11.8717 14.4233ZM15.9743 7.72789H2.02554C1.68913 7.72789 1.41016 7.44892 1.41016 7.11251C1.41016 6.7761 1.68913 6.49712 2.02554 6.49712H15.9743C16.3107 6.49712 16.5896 6.7761 16.5896 7.11251C16.5896 7.44892 16.3107 7.72789 15.9743 7.72789Z" fill="#E10A17"/>
<path d="M12.2821 18.3204H5.71795C2.72308 18.3204 1 16.5973 1 13.6025V6.62811C1 3.63323 2.72308 1.91016 5.71795 1.91016H12.2821C15.2769 1.91016 17 3.63323 17 6.62811V13.6025C17 16.5973 15.2769 18.3204 12.2821 18.3204ZM5.71795 3.14093C3.37128 3.14093 2.23077 4.28144 2.23077 6.62811V13.6025C2.23077 15.9491 3.37128 17.0896 5.71795 17.0896H12.2821C14.6287 17.0896 15.7692 15.9491 15.7692 13.6025V6.62811C15.7692 4.28144 14.6287 3.14093 12.2821 3.14093H5.71795Z" fill="#E10A17"/>
</g>
<defs>
<clipPath id="clip0_4317_27101">
<rect width="18" height="18" fill="white" transform="translate(0 0.5)"/>
</clipPath>
</defs>
</svg>
