<svg width="31" height="30" viewBox="0 0 31 30" fill="none" xmlns="http://www.w3.org/2000/svg">
<path d="M15.6664 20.8984C14.7798 21.5733 12.9492 23.2421 12.9492 25.5159C12.9492 27.017 14.1675 28.2383 15.665 28.2383C17.1626 28.2383 18.3809 27.017 18.3809 25.5159C18.3809 23.3625 16.5492 21.6153 15.6664 20.8984Z" fill="#E10A17"/>
<path d="M22.0316 5.22144C21.7022 4.84896 21.1337 4.8264 20.7751 5.1612L16.6393 9.0213V0.937415C16.6393 0.260716 15.8233 -0.244889 15.2123 0.12472C15.0967 0.194681 12.3481 1.87304 9.57098 4.92091C6.19428 8.62685 3.89453 13.1391 3.89453 18.1995C3.89453 24.7063 9.17541 30 15.6664 30C13.1996 30 11.1928 27.9882 11.1928 25.5155C11.1928 21.5199 15.0722 19.1539 15.2373 19.0551C15.379 18.9704 15.5418 18.9273 15.7069 18.931C15.872 18.9346 16.0327 18.9847 16.1706 19.0756C16.3327 19.1825 20.14 21.7362 20.14 25.5154C20.1401 27.9882 18.1332 30 15.6664 30C22.1574 30 27.4383 24.7063 27.4383 18.1995C27.4383 13.2862 25.2702 8.88232 22.0316 5.22144Z" fill="#424242"/>
</svg>
