<svg width="30" height="30" viewBox="0 0 30 30" fill="none" xmlns="http://www.w3.org/2000/svg">
<rect x="6" y="8" width="10" height="10" rx="5" fill="#E10A17"/>
<path d="M25.9781 6.75237C24.7664 5.54271 23.1689 4.79627 21.4636 4.64295C19.7584 4.48964 18.0533 4.93918 16.6453 5.91331C15.5626 5.16164 14.2966 4.71701 12.9816 4.62658C11.6666 4.53616 10.3517 4.8033 9.1762 5.39967C8.00075 5.99605 7.00861 6.89943 6.305 8.01401C5.60139 9.12859 5.21254 10.4128 5.17969 11.7305H12.0984C12.2018 11.7309 12.3021 11.7656 12.3836 11.8293C12.4651 11.8929 12.5231 11.9818 12.5484 12.0821L13.3828 15.3071L15.6984 9.31643C15.7359 9.22162 15.8031 9.14152 15.8899 9.08818C15.9768 9.03484 16.0786 9.01114 16.1801 9.02066C16.2816 9.03017 16.3773 9.07238 16.4527 9.14094C16.5281 9.20949 16.5793 9.30069 16.5984 9.40081L17.4188 13.943L18.5109 12.3399C18.5549 12.2776 18.6132 12.2267 18.6809 12.1916C18.7486 12.1566 18.8237 12.1383 18.9 12.1383H20.8734C20.9978 12.1383 21.117 12.1877 21.2049 12.2756C21.2928 12.3635 21.3422 12.4827 21.3422 12.6071C21.3422 12.7314 21.2928 12.8506 21.2049 12.9385C21.117 13.0264 20.9978 13.0758 20.8734 13.0758H19.1484L17.5453 15.4196C17.4932 15.4961 17.4194 15.5553 17.3333 15.5896C17.2473 15.6238 17.153 15.6315 17.0625 15.6117C16.9713 15.5924 16.8879 15.5465 16.8228 15.4797C16.7577 15.413 16.7139 15.3284 16.6969 15.2367L15.9703 11.2102L13.7297 17.0086C13.696 17.0969 13.6363 17.1729 13.5584 17.2265C13.4806 17.2801 13.3883 17.3087 13.2938 17.3086H13.2656C13.1667 17.3019 13.0724 17.2644 12.9959 17.2013C12.9194 17.1383 12.8646 17.0528 12.8391 16.9571L11.7328 12.668H5.2125C5.34111 13.9949 5.8343 15.2603 6.6375 16.3242C6.84686 16.5953 7.07227 16.8536 7.3125 17.0977L14.8781 24.6633C15.1095 24.8965 15.3848 25.0816 15.6881 25.208C15.9914 25.3343 16.3168 25.3993 16.6453 25.3993C16.9739 25.3993 17.2992 25.3343 17.6025 25.208C17.9058 25.0816 18.1811 24.8965 18.4125 24.6633L25.9781 17.0977C26.2208 16.8542 26.4463 16.5942 26.6531 16.3196C27.7145 14.9121 28.2309 13.1681 28.1068 11.4096C27.9828 9.6511 27.2267 7.99689 25.9781 6.75237Z" fill="#424242"/>
<path d="M2.48455 11.7305C2.32289 11.7305 2.16785 11.7799 2.05353 11.8678C1.93922 11.9557 1.875 12.0749 1.875 12.1992C1.875 12.3236 1.93922 12.4428 2.05353 12.5307C2.16785 12.6186 2.32289 12.668 2.48455 12.668H6.215C6.17341 12.3566 6.15915 12.0434 6.17233 11.7305H2.48455Z" fill="#E10A17"/>
</svg>
