<svg width="16" height="18" viewBox="0 0 16 18" fill="none" xmlns="http://www.w3.org/2000/svg">
<mask id="mask0_3771_23361" style="mask-type:alpha" maskUnits="userSpaceOnUse" x="0" y="0" width="16" height="18">
<rect x="16" y="18" width="15.5365" height="17.8011" transform="rotate(-180 16 18)" fill="#222222"/>
</mask>
<g mask="url(#mask0_3771_23361)">
<path d="M4.89906 13.3929C4.50589 13.7839 4.50589 14.4201 4.89906 14.8111L5.0124 14.9238C5.40247 15.3117 6.03258 15.3117 6.42265 14.9238L11.5682 9.80703C11.9614 9.41606 11.9614 8.77983 11.5682 8.38886L6.42265 3.27207C6.03258 2.88419 5.40247 2.88419 5.0124 3.27207L4.89906 3.38478C4.50589 3.77576 4.50589 4.41198 4.89906 4.80295L8.50511 8.38886C8.89828 8.77983 8.89828 9.41606 8.50511 9.80703L4.89906 13.3929Z" fill="#131313"/>
</g>
</svg>
