<svg width="30" height="30" viewBox="0 0 30 30" fill="none" xmlns="http://www.w3.org/2000/svg">
<circle cx="15" cy="15" r="8" fill="#E10A17"/>
<path fill-rule="evenodd" clip-rule="evenodd" d="M16.7766 1.70595L18.5629 3.04306C19.0515 3.40875 19.5657 3.59589 20.175 3.62982L22.4028 3.75374C23.7368 3.82792 24.8203 4.73701 25.125 6.0379L25.6339 8.21039C25.7731 8.80453 26.0467 9.27843 26.4917 9.69603L28.1186 11.223C29.0928 12.1373 29.3384 13.5302 28.7357 14.7226L27.7291 16.7139C27.4538 17.2585 27.3588 17.7974 27.4312 18.4033L27.6961 20.6188C27.8546 21.9455 27.1474 23.1702 25.9193 23.6962L23.8682 24.5747C23.3072 24.8149 22.888 25.1667 22.554 25.6774L21.3328 27.5447C20.6015 28.6629 19.2725 29.1466 17.9936 28.7601L15.8578 28.1146C15.2737 27.9381 14.7264 27.9381 14.1423 28.1146L12.0064 28.7601C10.7275 29.1466 9.39852 28.6629 8.66727 27.5447L7.446 25.6774C7.11196 25.1667 6.69278 24.8149 6.13186 24.5747L4.08061 23.6961C2.85248 23.1701 2.14531 21.9453 2.30387 20.6187L2.56871 18.4032C2.64114 17.7973 2.5461 17.2584 2.27082 16.7137L1.26424 14.7224C0.661545 13.5301 0.907112 12.1373 1.88129 11.2229L3.50826 9.69591C3.95323 9.27832 4.2268 8.80441 4.36596 8.21027L4.8749 6.03779C5.17959 4.73695 6.26305 3.82787 7.59705 3.75363L9.82485 3.6297C10.4342 3.59583 10.9484 3.40863 11.4369 3.04294L13.2232 1.70583C14.2927 0.905327 15.7071 0.905327 16.7766 1.70595ZM13.8604 15.7637L11.9219 13.8252C11.4195 13.3227 10.6045 13.3227 10.1021 13.8252C9.59967 14.3276 9.59967 15.1426 10.1021 15.645L12.9533 18.4962C13.4558 18.9985 14.2708 18.9986 14.7731 18.4962C16.4917 16.7776 18.1908 15.0397 19.9014 13.3132C20.4003 12.8098 20.3987 11.9974 19.8959 11.4974C19.393 10.9973 18.5783 10.9987 18.079 11.5031L13.8604 15.7637ZM14.9999 5.4157C12.3538 5.4157 9.95803 6.48832 8.22389 8.22246C6.48975 9.95666 5.41713 12.3523 5.41713 14.9985C5.41713 17.6446 6.48975 20.0403 8.22389 21.7745C9.95803 23.5086 12.3538 24.5812 14.9999 24.5812C17.6461 24.5812 20.0418 23.5086 21.7759 21.7745C23.5101 20.0403 24.5827 17.6446 24.5827 14.9985C24.5827 12.3523 23.5101 9.9566 21.7759 8.22246C20.0418 6.48832 17.6461 5.4157 14.9999 5.4157ZM21.113 8.88533C19.5486 7.32087 17.3872 6.3532 14.9999 6.3532C12.6126 6.3532 10.4512 7.32087 8.88676 8.88533C7.32231 10.4498 6.35463 12.6111 6.35463 14.9985C6.35463 17.3858 7.32231 19.5472 8.88676 21.1116C10.4512 22.6761 12.6126 23.6437 14.9999 23.6437C17.3872 23.6437 19.5486 22.6761 21.113 21.1117C22.6775 19.5472 23.6451 17.3859 23.6451 14.9985C23.6452 12.6111 22.6775 10.4498 21.113 8.88533Z" fill="#424242"/>
</svg>
