<svg width="30" height="30" viewBox="0 0 30 30" fill="none" xmlns="http://www.w3.org/2000/svg">
<path d="M0.878906 19.3949H4.45312C4.93893 19.3949 5.33203 19.0018 5.33203 18.516C5.33203 18.0302 4.93893 17.637 4.45312 17.637H0.878906C0.393105 17.637 0 18.0302 0 18.516C0 19.0018 0.393105 19.3949 0.878906 19.3949ZM3.96563 21.3003L1.27031 23.0581C0.866074 23.3277 0.757031 23.8727 1.02656 24.2769C1.29146 24.675 1.83434 24.7931 2.24537 24.5207L4.94068 22.7629C5.34492 22.4934 5.45397 21.9484 5.18443 21.5441C4.91578 21.1398 4.36986 21.0299 3.96563 21.3003ZM1.02656 12.755C0.757031 13.1593 0.866074 13.7043 1.27031 13.9738L3.96563 15.7316C4.37684 16.0043 4.91953 15.8858 5.18443 15.4879C5.45397 15.0836 5.34492 14.5386 4.94068 14.2691L2.24537 12.5113C1.83938 12.2417 1.29434 12.3507 1.02656 12.755ZM29.1211 17.637H25.6055C25.1197 17.637 24.7266 18.0302 24.7266 18.516C24.7266 19.0018 25.1197 19.3949 25.6055 19.3949H29.1211C29.6069 19.3949 30 19.0018 30 18.516C30 18.0302 29.6069 17.637 29.1211 17.637ZM28.9734 24.2769C29.243 23.8727 29.1339 23.3276 28.7297 23.0581L26.093 21.3003C25.687 21.0299 25.142 21.1398 24.8742 21.544C24.6046 21.9483 24.7137 22.4933 25.1179 22.7628L27.7546 24.5206C28.1659 24.7933 28.7086 24.6749 28.9734 24.2769ZM26.093 15.7316L28.7297 13.9738C29.1339 13.7042 29.243 13.1593 28.9734 12.755C28.7048 12.3507 28.1572 12.2417 27.7546 12.5112L25.1179 14.269C24.7137 14.5385 24.6046 15.0835 24.8742 15.4878C25.1391 15.8859 25.682 16.004 26.093 15.7316Z" fill="#E10A17"/>
<path d="M20.332 15.8789H9.72656C8.27262 15.8789 7.08984 17.0617 7.08984 18.5156C7.08984 19.9696 8.27262 21.1523 9.72656 21.1523H20.332C21.786 21.1523 22.9688 19.9696 22.9688 18.5156C22.9688 17.0617 21.786 15.8789 20.332 15.8789ZM15 19.3945C14.5146 19.3945 14.1211 19.001 14.1211 18.5156C14.1211 18.0301 14.5146 17.6367 15 17.6367C15.4854 17.6367 15.8789 18.0301 15.8789 18.5156C15.8789 19.001 15.4854 19.3945 15 19.3945ZM11.4844 30H18.5742C19.06 30 19.4531 29.6069 19.4531 29.1211V28.2422H20.332C21.786 28.2422 22.9688 27.0008 22.9688 25.5469C22.9688 24.0929 21.786 22.9102 20.332 22.9102H9.72656C8.27262 22.9102 7.08984 24.0929 7.08984 25.5469C7.08984 27.0008 8.27262 28.2422 9.72656 28.2422H10.6055V29.1211C10.6055 29.6069 10.9986 30 11.4844 30ZM15 24.668C15.4854 24.668 15.8789 25.0614 15.8789 25.5469C15.8789 26.0323 15.4854 26.4258 15 26.4258C14.5146 26.4258 14.1211 26.0323 14.1211 25.5469C14.1211 25.0614 14.5146 24.668 15 24.668ZM20.332 8.84766H9.72656C8.27262 8.84766 7.08984 10.0304 7.08984 11.4844C7.08984 12.9383 8.27262 14.1211 9.72656 14.1211H20.332C21.786 14.1211 22.9688 12.9383 22.9688 11.4844C22.9688 10.0304 21.786 8.84766 20.332 8.84766ZM15 12.3633C14.5146 12.3633 14.1211 11.9698 14.1211 11.4844C14.1211 10.9989 14.5146 10.6055 15 10.6055C15.4854 10.6055 15.8789 10.9989 15.8789 11.4844C15.8789 11.9698 15.4854 12.3633 15 12.3633ZM18.5742 0H11.4844C10.9986 0 10.6055 0.393105 10.6055 0.878906V1.81641H9.72656C8.27262 1.81641 7.08984 2.99918 7.08984 4.45312C7.08984 5.90707 8.27262 7.08984 9.72656 7.08984H20.332C21.786 7.08984 22.9688 5.90707 22.9688 4.45312C22.9688 2.99918 21.786 1.81641 20.332 1.81641H19.4531V0.878906C19.4531 0.393105 19.06 0 18.5742 0ZM15 5.33203C14.5146 5.33203 14.1211 4.93852 14.1211 4.45312C14.1211 3.96762 14.5146 3.57422 15 3.57422C15.4854 3.57422 15.8789 3.96762 15.8789 4.45312C15.8789 4.93852 15.4854 5.33203 15 5.33203Z" fill="#424242"/>
</svg>
