<svg width="31" height="30" viewBox="0 0 31 30" fill="none" xmlns="http://www.w3.org/2000/svg">
<path fill-rule="evenodd" clip-rule="evenodd" d="M22.5215 19.6875V24.0625C22.5215 24.6427 22.291 25.1991 21.8808 25.6093C21.4705 26.0195 20.9141 26.25 20.334 26.25H10.334C9.75382 26.25 9.19742 26.0195 8.78719 25.6093C8.37695 25.1991 8.14648 24.6427 8.14648 24.0625V19.6875C8.14648 18.1128 8.77204 16.6026 9.88554 15.4891C10.999 14.3756 12.5093 13.75 14.084 13.75H16.584C18.1587 13.75 19.6689 14.3756 20.7824 15.4891C21.8959 16.6026 22.5215 18.1128 22.5215 19.6875Z" fill="#E10A17"/>
<path d="M15.334 13.125C17.9228 13.125 20.0215 11.0263 20.0215 8.4375C20.0215 5.84867 17.9228 3.75 15.334 3.75C12.7451 3.75 10.6465 5.84867 10.6465 8.4375C10.6465 11.0263 12.7451 13.125 15.334 13.125Z" fill="#E10A17"/>
<path d="M24.709 13.125C26.4349 13.125 27.834 11.7259 27.834 10C27.834 8.27411 26.4349 6.875 24.709 6.875C22.9831 6.875 21.584 8.27411 21.584 10C21.584 11.7259 22.9831 13.125 24.709 13.125Z" fill="#424242"/>
<path d="M5.95898 13.125C7.68487 13.125 9.08398 11.7259 9.08398 10C9.08398 8.27411 7.68487 6.875 5.95898 6.875C4.23309 6.875 2.83398 8.27411 2.83398 10C2.83398 11.7259 4.23309 13.125 5.95898 13.125Z" fill="#424242"/>
<path fill-rule="evenodd" clip-rule="evenodd" d="M6.91023 24.375H4.08398C3.50398 24.375 2.94773 24.145 2.53773 23.7337C2.33435 23.5309 2.17301 23.2899 2.06297 23.0245C1.95293 22.7592 1.89636 22.4748 1.89648 22.1875V17.1875C1.89648 16.2763 2.25898 15.4013 2.90273 14.7563C3.54801 14.1122 4.42232 13.7504 5.33399 13.75H6.58399C7.45649 13.75 8.29523 14.0825 8.93148 14.6763C7.62677 16.0181 6.89673 17.8159 6.89648 19.6875V24.0625C6.89648 24.1675 6.90148 24.2725 6.91023 24.375ZM21.7365 14.6763C22.3735 14.0815 23.2124 13.7505 24.084 13.75H25.334C26.2452 13.75 27.1202 14.1125 27.7652 14.7563C28.409 15.4013 28.7715 16.2763 28.7715 17.1875V22.1875C28.7715 22.7675 28.5415 23.3237 28.1302 23.7337C27.9274 23.9371 27.6864 24.0985 27.421 24.2085C27.1557 24.3186 26.8712 24.3751 26.584 24.375H23.7577C23.7665 24.2725 23.7715 24.1675 23.7715 24.0625V19.6875C23.7712 17.8159 23.0412 16.0181 21.7365 14.6763Z" fill="#424242"/>
</svg>
