<svg width="18" height="18" viewBox="0 0 18 18" fill="none" xmlns="http://www.w3.org/2000/svg">
<g id="Frame">
<g id="Group">
<path id="Vector" d="M15.332 2.10938H12.6953V1.58203C12.6953 0.709699 11.9856 0 11.1133 0H6.89453C6.0222 0 5.3125 0.709699 5.3125 1.58203V2.10938H2.67578C1.80345 2.10938 1.09375 2.81907 1.09375 3.69141C1.09375 4.392 1.55166 4.9873 2.18377 5.19472L3.12438 16.5493C3.19212 17.3628 3.88463 18 4.70092 18H13.3069C14.1232 18 14.8157 17.3628 14.8835 16.5491L15.824 5.19469C16.4562 4.9873 16.9141 4.392 16.9141 3.69141C16.9141 2.81907 16.2044 2.10938 15.332 2.10938ZM6.36719 1.58203C6.36719 1.29125 6.60375 1.05469 6.89453 1.05469H11.1133C11.4041 1.05469 11.6406 1.29125 11.6406 1.58203V2.10938H6.36719V1.58203ZM13.8324 16.4618C13.8098 16.7329 13.579 16.9453 13.3069 16.9453H4.70092C4.42885 16.9453 4.19801 16.7329 4.17548 16.462L3.24862 5.27344H14.7592L13.8324 16.4618ZM15.332 4.21875H2.67578C2.385 4.21875 2.14844 3.98218 2.14844 3.69141C2.14844 3.40063 2.385 3.16406 2.67578 3.16406H15.332C15.6228 3.16406 15.8594 3.40063 15.8594 3.69141C15.8594 3.98218 15.6228 4.21875 15.332 4.21875Z" fill="#E10A17"/>
<path id="Vector_2" d="M6.89355 15.3307L6.36621 6.82286C6.34817 6.53215 6.09656 6.31106 5.80726 6.32916C5.51655 6.3472 5.29553 6.59744 5.31353 6.88811L5.84087 15.396C5.8582 15.6756 6.09037 15.8907 6.3667 15.8907C6.6721 15.8907 6.91229 15.6335 6.89355 15.3307ZM9.00395 6.32818C8.71271 6.32818 8.4766 6.56429 8.4766 6.85552V15.3633C8.4766 15.6546 8.71271 15.8907 9.00395 15.8907C9.29518 15.8907 9.53129 15.6546 9.53129 15.3633V6.85552C9.53129 6.56429 9.29518 6.32818 9.00395 6.32818ZM12.2006 6.3292C11.9106 6.31116 11.6597 6.53219 11.6417 6.8229L11.1143 15.3307C11.0963 15.6214 11.3174 15.8716 11.608 15.8897C11.8989 15.9077 12.149 15.6865 12.167 15.396L12.6943 6.88815C12.7123 6.59744 12.4913 6.3472 12.2006 6.3292Z" fill="#E10A17"/>
</g>
</g>
</svg>
