<svg width="32" height="33" viewBox="0 0 32 33" fill="none" xmlns="http://www.w3.org/2000/svg">
<g clip-path="url(#clip0_3362_11509)">
<path d="M11.1468 1.55323C7.94946 2.6624 5.19211 4.76764 3.27973 7.55973C1.36735 10.3518 0.400732 13.6836 0.52186 17.0656C0.642987 20.4477 1.84547 23.7018 3.9527 26.3499C6.05992 28.998 8.9608 30.9006 12.2293 31.7782C14.8791 32.462 17.6553 32.492 20.3193 31.8657C22.7326 31.3237 24.9637 30.1641 26.7943 28.5007C28.6995 26.7166 30.0823 24.4469 30.7943 21.9357C31.5678 19.2049 31.7055 16.3331 31.1968 13.5407H16.3168V19.7132H24.9343C24.762 20.6977 24.393 21.6373 23.8491 22.4758C23.3053 23.3143 22.5979 24.0345 21.7693 24.5932C20.7171 25.2896 19.5308 25.7579 18.2868 25.9682C17.0391 26.2003 15.7594 26.2003 14.5118 25.9682C13.2471 25.7071 12.0509 25.1851 10.9993 24.4357C9.30963 23.2397 8.04095 21.5405 7.37425 19.5807C6.69648 17.5842 6.69648 15.4198 7.37425 13.4232C7.84882 12.0238 8.63334 10.7496 9.66925 9.69573C10.8547 8.4676 12.3556 7.58972 14.0071 7.15842C15.6587 6.72712 17.3972 6.75906 19.0318 7.25073C20.3088 7.64254 21.4765 8.32742 22.4418 9.25073C23.4134 8.28406 24.3834 7.3149 25.3518 6.34323C25.8518 5.82073 26.3968 5.32323 26.8893 4.78823C25.4156 3.41702 23.6859 2.34999 21.7993 1.64823C18.3635 0.400702 14.6042 0.367176 11.1468 1.55323Z" fill="white"/>
<path d="M11.1489 1.55444C14.6061 0.367585 18.3654 0.400229 21.8014 1.64694C23.6884 2.35347 25.4173 3.42564 26.8889 4.80194C26.3889 5.33694 25.8614 5.83694 25.3514 6.35694C24.3814 7.32528 23.4122 8.29028 22.4439 9.25194C21.4786 8.32864 20.3109 7.64375 19.0339 7.25194C17.3998 6.75855 15.6615 6.72476 14.0095 7.1543C12.3575 7.58384 10.8557 8.4601 9.66891 9.68694C8.63299 10.7408 7.84847 12.015 7.37391 13.4144L2.19141 9.40194C4.04643 5.72335 7.25828 2.9095 11.1489 1.55444Z" fill="#E33629"/>
<path d="M0.813899 13.3734C1.09225 11.9929 1.55471 10.6559 2.1889 9.39844L7.3714 13.4209C6.69362 15.4175 6.69362 17.5819 7.3714 19.5784C5.64473 20.9118 3.91723 22.2518 2.1889 23.5984C0.601776 20.4392 0.117731 16.8397 0.813899 13.3734Z" fill="#F8BD00"/>
<path d="M16.3175 13.5391H31.1975C31.7062 16.3314 31.5686 19.2032 30.795 21.9341C30.0831 24.4453 28.7002 26.7149 26.795 28.4991C25.1225 27.1941 23.4425 25.8991 21.77 24.5941C22.5992 24.0348 23.3069 23.3138 23.8508 22.4744C24.3946 21.635 24.7634 20.6944 24.935 19.7091H16.3175C16.315 17.6541 16.3175 15.5966 16.3175 13.5391Z" fill="#587DBD"/>
<path d="M2.1875 23.5981C3.91583 22.2648 5.64333 20.9248 7.37 19.5781C8.03802 21.5386 9.30851 23.2379 11 24.4331C12.0549 25.179 13.2537 25.6967 14.52 25.9531C15.7676 26.1852 17.0474 26.1852 18.295 25.9531C19.5391 25.7428 20.7253 25.2745 21.7775 24.5781C23.45 25.8831 25.13 27.1781 26.8025 28.4831C24.9722 30.1474 22.7411 31.3078 20.3275 31.8506C17.6635 32.4769 14.8873 32.4469 12.2375 31.7631C10.1418 31.2036 8.18419 30.2171 6.4875 28.8656C4.69182 27.4397 3.22509 25.6429 2.1875 23.5981Z" fill="#319F43"/>
</g>
<defs>
<clipPath id="clip0_3362_11509">
<rect width="32" height="32" fill="white" transform="translate(0 0.5)"/>
</clipPath>
</defs>
</svg>
