<svg width="30" height="30" viewBox="0 0 30 30" fill="none" xmlns="http://www.w3.org/2000/svg">
<g clip-path="url(#clip0_3362_12355)">
<path d="M27.3817 23.2681C27.19 22.5227 26.4278 22.072 25.6837 22.2652C25.6837 22.2652 24.5598 22.5561 23.5607 22.8148C23.0381 21.0239 21.3348 15.139 21.3348 15.139C21.3348 15.139 14.3852 17.0871 12.3496 17.6573C12.2066 16.9865 11.9647 15.8795 11.6956 14.655H16.7643C17.5381 14.655 18.1611 14.0306 18.1611 13.2594C18.1611 12.4894 17.5379 11.865 16.7643 11.865H11.0726C10.6245 9.86703 10.2408 8.17792 10.2408 8.17792C10.0825 7.42473 9.34347 6.94186 8.58913 7.10047C7.83736 7.25502 7.35187 7.99519 7.50905 8.74717L10.2217 21.1477C10.2217 21.1477 17.4815 19.1123 19.4203 18.5691C19.9456 20.3832 21.6335 26.1921 21.6335 26.1921L26.3777 24.9664C27.1242 24.773 27.5735 24.0146 27.3817 23.2681Z" fill="#424242"/>
<path d="M16.4395 20.5656C16.505 20.9093 16.5425 21.2634 16.5425 21.6239C16.5425 24.7048 14.0358 27.2127 10.9511 27.2127C9.4615 27.2127 8.05317 26.6308 7.00126 25.5763C5.94816 24.5218 5.36495 23.1172 5.36495 21.6253C5.36495 20.1305 5.94679 18.7274 7.00126 17.6702C7.35392 17.3187 7.74925 17.0214 8.17293 16.7793L7.58069 13.9533C6.64215 14.3666 5.77325 14.9536 5.03024 15.7004C3.44409 17.2787 2.5752 19.3838 2.5752 21.6227C2.5752 23.8591 3.44415 25.964 5.02646 27.5462C6.60998 29.1285 8.71236 30.0001 10.9514 30.0001C15.3826 30.0001 19.0172 26.5459 19.3119 22.1917C19.0939 21.4425 18.8763 20.6932 18.6591 19.9438C18.2341 20.0621 17.4154 20.2901 16.4395 20.5656Z" fill="#E10A17"/>
<path d="M8.79357 6.28012C10.5278 6.28012 11.9336 4.87427 11.9336 3.14006C11.9336 1.40585 10.5278 0 8.79357 0C7.05936 0 5.6535 1.40585 5.6535 3.14006C5.6535 4.87427 7.05936 6.28012 8.79357 6.28012Z" fill="#424242"/>
</g>
<defs>
<clipPath id="clip0_3362_12355">
<rect width="30" height="30" fill="white"/>
</clipPath>
</defs>
</svg>
