<svg width="24" height="24" viewBox="0 0 24 24" fill="none" xmlns="http://www.w3.org/2000/svg">
<g clip-path="url(#clip0_3647_21225)">
<path d="M8.67052 5.38696C8.73638 5.73871 9.08532 6.01611 9.49693 5.93914C9.89658 5.85571 10.1239 5.4725 10.0491 5.11227C9.96132 4.69339 9.5476 4.46005 9.15563 4.57696C8.80552 4.68144 8.59843 5.04299 8.67052 5.38696Z" fill="#E10A17"/>
<path d="M23.8237 15.2086C19.9977 4.07143 20.2609 4.83448 20.2446 4.79656C19.8463 3.87483 19.0732 3.15828 18.1234 2.83057C17.9875 2.78365 10.2863 0.982191 10.0638 0.905126C9.38121 0.668729 8.4329 0.801249 7.76717 1.41355L1.1675 7.48632C0.425543 8.16875 0 9.14021 0 10.1517V20.9056C0 22.1729 1.02551 23.2039 2.28606 23.2039H16.4054C17.666 23.2039 18.6915 22.1729 18.6915 20.9056V19.8662L22.627 18.1819C23.7712 17.6867 24.3035 16.3578 23.8237 15.2086ZM16.4054 21.7976H2.28606C1.80094 21.7976 1.40629 21.3975 1.40629 20.9056V10.1517C1.40629 9.53252 1.66626 8.93822 2.1196 8.52126C7.77382 3.31855 4.27891 6.5637 8.74177 2.44801C8.97451 2.23351 9.29585 2.14735 9.61456 2.24344C9.89943 2.32852 9.39677 1.91911 16.572 8.52135C17.0252 8.93827 17.2852 9.53252 17.2852 10.1517V20.9056C17.2852 21.3975 16.8905 21.7976 16.4054 21.7976ZM22.0711 16.8901L18.6914 18.3365V10.1517C18.6914 9.14021 18.2659 8.16875 17.524 7.48642L12.6092 2.96393L17.6954 4.17081C18.2506 4.37177 18.7031 4.79244 18.9435 5.33133C22.7622 16.4472 22.5046 15.7012 22.5214 15.7396C22.7134 16.1835 22.5102 16.7001 22.0711 16.8901Z" fill="#E10A17"/>
<path d="M11.3439 9.48189C10.9859 9.3316 10.5737 9.50017 10.4234 9.85821L7.00034 18.0166C6.80506 18.482 7.15002 18.992 7.64841 18.992C7.92315 18.992 8.18416 18.8299 8.29713 18.5607L11.7202 10.4023C11.8704 10.0442 11.7019 9.63213 11.3439 9.48189ZM8.04845 11.508C8.04845 10.151 7.05453 9.04688 5.83279 9.04688C4.61106 9.04688 3.61719 10.151 3.61719 11.508C3.61719 12.8651 4.61111 13.9692 5.83284 13.9692C7.05458 13.9692 8.04845 12.8651 8.04845 11.508ZM5.83284 12.5629C5.39413 12.5629 5.02348 12.0798 5.02348 11.508C5.02348 10.9362 5.39408 10.4532 5.83284 10.4532C6.2716 10.4532 6.64221 10.9362 6.64221 11.508C6.64216 12.0798 6.27156 12.5629 5.83284 12.5629ZM12.9279 14.6249C11.7062 14.6249 10.7122 15.7289 10.7122 17.086C10.7122 18.4431 11.7062 19.5472 12.9279 19.5472C14.1496 19.5472 15.1435 18.4431 15.1435 17.086C15.1435 15.7289 14.1496 14.6249 12.9279 14.6249ZM12.9279 18.1409C12.4892 18.1409 12.1185 17.6578 12.1185 17.086C12.1185 16.5142 12.4891 16.0312 12.9279 16.0312C13.3667 16.0312 13.7373 16.5142 13.7373 17.086C13.7373 17.6578 13.3666 18.1409 12.9279 18.1409Z" fill="#E10A17"/>
</g>
<defs>
<clipPath id="clip0_3647_21225">
<rect width="24" height="24" fill="white"/>
</clipPath>
</defs>
</svg>
