<svg width="144" height="144" viewBox="0 0 144 144" fill="none" xmlns="http://www.w3.org/2000/svg">
<path d="M125.33 106.998H48.1967L46.93 96.4651L127.663 90.1317C133.13 89.6651 137.597 85.4651 138.33 79.9984L139.263 72.6651C139.428 71.3484 139.064 70.0203 138.252 68.9709C137.44 67.9216 136.246 67.2363 134.93 67.0651C134.277 66.9792 133.614 67.0233 132.979 67.195C132.343 67.3666 131.748 67.6624 131.227 68.0653C130.707 68.4681 130.271 68.9701 129.945 69.5421C129.62 70.1142 129.411 70.7451 129.33 71.3984L128.397 78.7317C128.363 79.1149 128.187 79.4714 127.903 79.7308C127.619 79.9901 127.248 80.1332 126.863 80.1317L45.73 86.5317L39.93 37.0651H71.93C74.6634 37.0651 76.93 34.7984 76.93 32.0651C76.93 29.3317 74.6634 27.0651 71.93 27.0651H38.73L37.9967 20.6651C37.5538 16.9736 36.0054 13.5022 33.5546 10.7064C31.1038 7.91059 27.8651 5.9209 24.2634 4.9984L6.53005 0.531737C3.86338 -0.134929 1.13004 1.46507 0.463378 4.1984C-0.203289 6.86507 1.39671 9.5984 4.13005 10.2651L21.8634 14.7317C25.1967 15.5317 27.73 18.3984 28.13 21.8651L38.33 108.532C31.73 111.265 26.9967 117.865 26.9967 125.465C26.9967 135.598 35.1967 143.798 45.33 143.798C55.4634 143.798 63.6634 135.598 63.6634 125.465C63.6634 122.465 62.8634 119.665 61.5967 117.132H109.13C107.863 119.665 107.063 122.465 107.063 125.465C107.063 135.598 115.263 143.798 125.397 143.798C135.53 143.798 143.73 135.598 143.73 125.465C143.73 115.332 135.53 107.132 125.397 107.132L125.33 106.998ZM53.6634 125.332C53.6634 127.542 52.7854 129.661 51.2226 131.224C49.6598 132.787 47.5402 133.665 45.33 133.665C43.1199 133.665 41.0003 132.787 39.4375 131.224C37.8747 129.661 36.9967 127.542 36.9967 125.332C36.9967 123.122 37.8747 121.002 39.4375 119.439C41.0003 117.876 43.1199 116.998 45.33 116.998C47.5402 116.998 49.6598 117.876 51.2226 119.439C52.7854 121.002 53.6634 123.122 53.6634 125.332ZM125.33 133.665C123.12 133.665 121 132.787 119.437 131.224C117.875 129.661 116.997 127.542 116.997 125.332C116.997 123.122 117.875 121.002 119.437 119.439C121 117.876 123.12 116.998 125.33 116.998C127.54 116.998 129.66 117.876 131.223 119.439C132.785 121.002 133.663 123.122 133.663 125.332C133.663 127.542 132.785 129.661 131.223 131.224C129.66 132.787 127.54 133.665 125.33 133.665ZM98.4634 45.1317L111.597 31.9984L98.4634 18.8651C96.53 16.9317 96.53 13.7317 98.4634 11.7984C100.397 9.86507 103.597 9.86507 105.53 11.7984L118.663 24.9317L131.797 11.7984C133.73 9.86507 136.93 9.86507 138.863 11.7984C140.797 13.7317 140.797 16.9317 138.863 18.8651L125.73 31.9984L138.863 45.1317C140.797 47.0651 140.797 50.2651 138.863 52.1984C137.863 53.1984 136.597 53.6651 135.33 53.6651C134.063 53.6651 132.797 53.1984 131.797 52.1984L118.663 39.0651L105.53 52.1984C104.53 53.1984 103.263 53.6651 101.997 53.6651C100.73 53.6651 99.4634 53.1984 98.4634 52.1984C97.5335 51.2575 97.012 49.9879 97.012 48.6651C97.012 47.3422 97.5335 46.0727 98.4634 45.1317Z" fill="#424242"/>
</svg>
