<svg width="46" height="46" viewBox="0 0 46 46" fill="none" xmlns="http://www.w3.org/2000/svg">
<path d="M39.6656 33.9371H15.5615L15.1656 30.6455L40.3948 28.6663C42.1031 28.5205 43.499 27.208 43.7281 25.4996L44.0198 23.208C44.0712 22.7965 43.9576 22.3815 43.7038 22.0535C43.4501 21.7256 43.0768 21.5115 42.6656 21.458C42.4617 21.4311 42.2544 21.4449 42.0559 21.4986C41.8573 21.5522 41.6713 21.6446 41.5086 21.7705C41.3459 21.8964 41.2097 22.0533 41.108 22.232C41.0062 22.4108 40.9408 22.608 40.9156 22.8121L40.624 25.1038C40.6135 25.2235 40.5585 25.3349 40.4697 25.416C40.381 25.497 40.265 25.5417 40.1448 25.5413L14.7906 27.5413L12.9781 12.083H22.9781C23.8323 12.083 24.5406 11.3746 24.5406 10.5205C24.5406 9.66629 23.8323 8.95796 22.9781 8.95796H12.6031L12.374 6.95796C12.2356 5.80437 11.7517 4.71957 10.9858 3.84588C10.2199 2.97218 9.20783 2.3504 8.08231 2.06212L2.54064 0.66629C1.70731 0.457957 0.853139 0.957957 0.644806 1.81212C0.436472 2.64546 0.936472 3.49962 1.79064 3.70796L7.33231 5.10379C8.37397 5.35379 9.16564 6.24962 9.29064 7.33296L12.4781 34.4163C10.4156 35.2705 8.93647 37.333 8.93647 39.708C8.93647 42.8746 11.499 45.4371 14.6656 45.4371C17.8323 45.4371 20.3948 42.8746 20.3948 39.708C20.3948 38.7705 20.1448 37.8955 19.749 37.1038H34.6031C34.2073 37.8955 33.9573 38.7705 33.9573 39.708C33.9573 42.8746 36.5198 45.4371 39.6865 45.4371C42.8531 45.4371 45.4156 42.8746 45.4156 39.708C45.4156 36.5413 42.8531 33.9788 39.6865 33.9788L39.6656 33.9371ZM17.2698 39.6663C17.2698 40.357 16.9954 41.0193 16.5071 41.5077C16.0187 41.9961 15.3563 42.2705 14.6656 42.2705C13.975 42.2705 13.3126 41.9961 12.8242 41.5077C12.3358 41.0193 12.0615 40.357 12.0615 39.6663C12.0615 38.9756 12.3358 38.3132 12.8242 37.8249C13.3126 37.3365 13.975 37.0621 14.6656 37.0621C15.3563 37.0621 16.0187 37.3365 16.5071 37.8249C16.9954 38.3132 17.2698 38.9756 17.2698 39.6663ZM39.6656 42.2705C38.975 42.2705 38.3126 41.9961 37.8242 41.5077C37.3358 41.0193 37.0615 40.357 37.0615 39.6663C37.0615 38.9756 37.3358 38.3132 37.8242 37.8249C38.3126 37.3365 38.975 37.0621 39.6656 37.0621C40.3563 37.0621 41.0187 37.3365 41.5071 37.8249C41.9954 38.3132 42.2698 38.9756 42.2698 39.6663C42.2698 40.357 41.9954 41.0193 41.5071 41.5077C41.0187 41.9961 40.3563 42.2705 39.6656 42.2705ZM31.2698 14.6038L35.374 10.4996L31.2698 6.39546C30.6656 5.79129 30.6656 4.79129 31.2698 4.18712C31.874 3.58296 32.874 3.58296 33.4781 4.18712L37.5823 8.29129L41.6865 4.18712C42.2906 3.58296 43.2906 3.58296 43.8948 4.18712C44.499 4.79129 44.499 5.79129 43.8948 6.39546L39.7906 10.4996L43.8948 14.6038C44.499 15.208 44.499 16.208 43.8948 16.8121C43.5823 17.1246 43.1865 17.2705 42.7906 17.2705C42.3948 17.2705 41.999 17.1246 41.6865 16.8121L37.5823 12.708L33.4781 16.8121C33.1656 17.1246 32.7698 17.2705 32.374 17.2705C31.9781 17.2705 31.5823 17.1246 31.2698 16.8121C30.9792 16.5181 30.8163 16.1214 30.8163 15.708C30.8163 15.2946 30.9792 14.8978 31.2698 14.6038Z" fill="#424242"/>
</svg>
