<svg width="30" height="30" viewBox="0 0 30 30" fill="none" xmlns="http://www.w3.org/2000/svg">
<path d="M21.4308 21.4298C19.7132 23.1474 17.4294 24.0934 15.0002 24.0934C12.5711 24.0934 10.2873 23.1474 8.56963 21.4298C8.27184 21.1318 7.99502 20.8136 7.74117 20.4774H4.41264C4.82993 20.9088 5.248 21.3394 5.66684 21.7693L7.50352 25.2981L11.427 25.9565L14.9868 27.7327L18.5482 25.9601L22.4705 25.3018L24.3135 21.7772C24.3135 21.7772 25.0496 21.0214 25.5744 20.4774H22.2592C22.0054 20.8136 21.7286 21.1318 21.4308 21.4298ZM8.56963 8.56855C10.2873 6.85088 12.5711 5.90488 15.0002 5.90488C17.4294 5.90488 19.7132 6.85088 21.4308 8.56855C21.7286 8.8665 22.0054 9.1847 22.2593 9.52088H25.571C25.0481 8.97947 24.3168 8.22906 24.3168 8.22906L22.4801 4.7002L18.5567 4.04178L14.9968 2.26562L11.4354 4.03826L7.51312 4.69656L5.67006 8.22109C5.67006 8.22109 4.934 8.97689 4.40918 9.52088H7.74123C7.99504 9.18469 8.27184 8.86649 8.56963 8.56855Z" fill="#E10A17"/>
<path d="M15 7.60547C13.0247 7.60547 11.1677 8.37469 9.77092 9.77145C6.88764 12.6548 6.88764 17.3463 9.77092 20.2296C11.1677 21.6264 13.0247 22.3956 15 22.3956C16.9753 22.3956 18.8323 21.6264 20.2291 20.2296C23.1124 17.3463 23.1124 12.6548 20.2291 9.77145C18.8323 8.37469 16.9753 7.60547 15 7.60547ZM13.8446 18.5998L10.8213 15.5764L12.0643 14.3334L13.8446 16.1139L17.9357 12.0228L19.1787 13.2657L13.8446 18.5998ZM23.336 11.2215C24.4186 13.6164 24.4186 16.3847 23.336 18.7796H30L28.8478 15.0005L30 11.2215H23.336ZM6.66398 11.2215H0L1.09564 15.0005L0 18.7796H6.66398C5.58146 16.3847 5.58141 13.6163 6.66398 11.2215Z" fill="#424242"/>
</svg>
