<svg width="30" height="30" viewBox="0 0 30 30" fill="none" xmlns="http://www.w3.org/2000/svg">
<g clip-path="url(#clip0_3915_28368)">
<path d="M18.2262 6.25127L19.779 4.43827C20.2058 3.94022 19.9548 3.16432 19.3157 3.01163L16.9937 2.45733L15.7495 0.420493C15.4202 -0.11898 14.6046 -0.160875 14.2494 0.420258L13.0048 2.45733L10.6828 3.01163C10.0447 3.16409 9.79213 3.93952 10.2195 4.43827L11.7723 6.25127L11.5816 8.63047C11.5299 9.27547 12.1787 9.76848 12.7951 9.51231L14.9995 8.59567L17.2034 9.51237C17.8095 9.76391 18.4693 9.28532 18.4169 8.63047L18.2262 6.25127Z" fill="#E10A17"/>
</g>
<g clip-path="url(#clip1_3915_28368)">
<path d="M19.1374 17.3343C19.1374 19.6289 17.2772 21.489 14.9827 21.489C12.6882 21.489 10.8281 19.6289 10.8281 17.3343C10.8281 15.0398 12.6882 13.1797 14.9828 13.1797C17.2773 13.1797 19.1375 15.0398 19.1375 17.3343H19.1374Z" fill="#424242"/>
<path d="M14.9599 21.4889C11.4889 21.5008 8.70183 24.3662 8.70183 27.8372V29.1208C8.70183 29.6062 9.09546 29.9997 9.58074 29.9997H20.3833C20.8687 29.9997 21.2622 29.6062 21.2622 29.1208V27.769C21.2622 24.2932 18.4385 21.4768 14.9599 21.4889ZM8.21843 10.0169L9.77117 8.20398C10.198 7.70593 9.94695 6.92997 9.30787 6.77734L6.98591 6.22298L5.74168 4.18591C5.41238 3.64667 4.59681 3.60478 4.24162 4.18591L2.99714 6.22298L0.675133 6.77728C0.0368711 6.9298 -0.215668 7.70529 0.211656 8.20398L1.76439 10.0169L1.57373 12.3961C1.52222 13.0409 2.17091 13.5341 2.78726 13.2778L4.99162 12.3614L7.19556 13.2778C7.8016 13.5296 8.46148 13.051 8.40904 12.3961L8.21843 10.0169ZM28.2355 10.0169L29.7883 8.20398C30.2151 7.70593 29.964 6.92997 29.325 6.77734L27.003 6.22298L25.7588 4.18591C25.4295 3.64667 24.6139 3.60478 24.2587 4.18591L23.0142 6.22298L20.6922 6.77728C20.0539 6.92974 19.8014 7.70523 20.2287 8.20398L21.7815 10.0169L21.5908 12.3961C21.5393 13.0409 22.188 13.5341 22.8043 13.2778L25.0087 12.3614L27.2127 13.2778C27.8187 13.5296 28.4786 13.051 28.4261 12.3961L28.2355 10.0169Z" fill="#424242"/>
</g>
<defs>
<clipPath id="clip0_3915_28368">
<rect width="30" height="30" fill="white"/>
</clipPath>
<clipPath id="clip1_3915_28368">
<rect width="30" height="30" fill="white"/>
</clipPath>
</defs>
</svg>
