<svg width="28" height="28" viewBox="0 0 28 28" fill="none" xmlns="http://www.w3.org/2000/svg">
<path d="M2.33276 2.33276H4.36277C5.62277 2.33276 6.61443 3.41776 6.50943 4.6661L5.5411 16.2861C5.37776 18.1878 6.88276 19.8211 8.79609 19.8211H21.2211C22.9011 19.8211 24.3711 18.4444 24.4994 16.7761L25.1294 8.0261C25.2694 6.08944 23.7994 4.51442 21.8511 4.51442H6.78944" stroke="#424242" stroke-width="2" stroke-miterlimit="10" stroke-linecap="round" stroke-linejoin="round"/>
<path d="M18.9583 25.6667C19.7637 25.6667 20.4167 25.0137 20.4167 24.2083C20.4167 23.4029 19.7637 22.75 18.9583 22.75C18.1529 22.75 17.5 23.4029 17.5 24.2083C17.5 25.0137 18.1529 25.6667 18.9583 25.6667Z" stroke="#424242" stroke-width="2" stroke-miterlimit="10" stroke-linecap="round" stroke-linejoin="round"/>
<path d="M9.62557 25.6667C10.431 25.6667 11.0839 25.0137 11.0839 24.2083C11.0839 23.4029 10.431 22.75 9.62557 22.75C8.82015 22.75 8.16724 23.4029 8.16724 24.2083C8.16724 25.0137 8.82015 25.6667 9.62557 25.6667Z" stroke="#424242" stroke-width="2" stroke-miterlimit="10" stroke-linecap="round" stroke-linejoin="round"/>
<path d="M10.5 9.33276H24.5" stroke="#424242" stroke-width="2" stroke-miterlimit="10" stroke-linecap="round" stroke-linejoin="round"/>
</svg>
