<svg width="30" height="30" viewBox="0 0 30 30" fill="none" xmlns="http://www.w3.org/2000/svg">
<path d="M14.7511 12C14.0713 11.9982 13.4063 12.1981 12.8402 12.5744C12.2741 12.9507 11.8324 13.4865 11.5709 14.114C11.3095 14.7414 11.24 15.4323 11.3714 16.0993C11.5028 16.7662 11.8291 17.3792 12.309 17.8606C12.7889 18.342 13.4008 18.6703 14.0673 18.8038C14.7338 18.9373 15.4249 18.87 16.0532 18.6105C16.6815 18.3511 17.2187 17.9111 17.5968 17.3462C17.9749 16.7813 18.1769 16.1169 18.1773 15.4372C18.1768 14.5276 17.816 13.6553 17.1739 13.0111C16.5318 12.3669 15.6606 12.0034 14.7511 12Z" fill="#717171"/>
<path d="M27.4113 10.1949C27.394 9.45325 27.2938 8.71582 27.1126 7.9964C26.795 6.65582 26.0695 5.44669 25.0361 4.53558C23.9529 3.59757 22.6072 3.01568 21.1818 2.86891C20.4563 2.782 19.7267 2.73215 18.9961 2.71955C17.5534 2.68677 16.1181 2.68677 14.6828 2.68677C12.987 2.68677 11.2912 2.67037 9.59173 2.7578C8.94886 2.78039 8.30876 2.85347 7.67734 2.97638C6.29098 3.23453 5.01846 3.91533 4.03437 4.92537C3.02978 6.00854 2.39018 7.37948 2.2056 8.84522C2.09184 9.66543 2.03524 10.4926 2.0362 11.3206C2.01313 12.6722 2.00159 14.0249 2.00159 15.3789C2.00159 17.2587 1.97973 19.1439 2.09813 21.0237C2.14169 21.8279 2.28611 22.6234 2.528 23.3916C3.00728 24.9341 4.04709 26.241 5.44238 27.0546C6.48969 27.6523 7.66254 27.996 8.86677 28.0583C9.69373 28.1202 10.5261 28.1603 11.3567 28.1639C14.0598 28.1803 16.7647 28.2167 19.4697 28.1293C20.322 28.1198 21.1713 28.0258 22.0052 27.8488C23.3876 27.558 24.6429 26.8378 25.5915 25.791C26.5402 24.7442 27.1338 23.4244 27.2875 22.02C27.3994 21.1996 27.4559 20.3726 27.4569 19.5446C27.4824 18.1785 27.486 16.8124 27.5061 14.8488C27.4806 13.6904 27.4532 11.9417 27.4113 10.1949ZM14.7374 21.9781C13.4435 21.9771 12.179 21.5924 11.1038 20.8727C10.0285 20.153 9.19072 19.1307 8.69641 17.935C8.20209 16.7392 8.07341 15.4238 8.32663 14.1549C8.57985 12.886 9.2036 11.7207 10.119 10.8063C11.0344 9.89193 12.2004 9.26948 13.4696 9.01767C14.7387 8.76587 16.054 8.89602 17.2492 9.39166C18.4444 9.88731 19.4658 10.7262 20.1843 11.8023C20.9027 12.8784 21.286 14.1433 21.2857 15.4372C21.2862 16.2969 21.1171 17.1483 20.7881 17.9425C20.4591 18.7368 19.9766 19.4584 19.3684 20.066C18.7601 20.6736 18.038 21.1552 17.2433 21.4833C16.4487 21.8114 15.5971 21.9796 14.7374 21.9781ZM22.1855 10.3206C21.7485 10.3221 21.3209 10.1938 20.9568 9.95199C20.5928 9.71021 20.3087 9.36582 20.1405 8.96245C19.9724 8.55907 19.9277 8.11487 20.0122 7.6861C20.0967 7.25733 20.3066 6.86329 20.6152 6.55389C20.9239 6.24449 21.3174 6.03365 21.7459 5.94808C22.1745 5.86251 22.6188 5.90606 23.0226 6.07322C23.4264 6.24037 23.7715 6.52361 24.0142 6.88705C24.2568 7.25049 24.3862 7.67778 24.3858 8.1148C24.3815 8.69687 24.1483 9.25386 23.7365 9.66529C23.3247 10.0767 22.7676 10.3095 22.1855 10.3133V10.3206Z" fill="#717171"/>
</svg>
