<svg width="16" height="16" viewBox="0 0 16 16" fill="none" xmlns="http://www.w3.org/2000/svg">
<path d="M7.99617 5.84376C7.56966 5.84263 7.15241 5.96805 6.79721 6.20416C6.44201 6.44027 6.16485 6.77645 6.00079 7.17015C5.83674 7.56385 5.79317 7.99737 5.8756 8.41584C5.95803 8.83431 6.16276 9.21892 6.46387 9.52099C6.76498 9.82306 7.14893 10.029 7.56714 10.1128C7.98534 10.1965 8.419 10.1543 8.81322 9.99155C9.20743 9.82875 9.54449 9.55265 9.78173 9.19821C10.019 8.84377 10.1457 8.42691 10.146 8.0004C10.1457 7.4297 9.91929 6.88236 9.51639 6.47818C9.11348 6.07399 8.56687 5.84587 7.99617 5.84376V5.84376Z" fill="#E10A17"/>
<path d="M15.9444 4.71177C15.9335 4.2464 15.8706 3.7837 15.7569 3.3323C15.5576 2.49115 15.1024 1.73248 14.454 1.1608C13.7744 0.572251 12.93 0.207141 12.0357 0.115054C11.5804 0.060521 11.1227 0.0292413 10.6642 0.0213372C9.75903 0.000765077 8.85843 0.000765078 7.95782 0.000765078C6.89379 0.000765078 5.82976 -0.00952097 4.76344 0.0453379C4.36007 0.0595094 3.95844 0.105366 3.56225 0.182485C2.69238 0.344459 1.89394 0.771627 1.27647 1.40538C0.646136 2.08502 0.244817 2.94521 0.129001 3.86489C0.0576261 4.37953 0.0221107 4.89851 0.0227123 5.41808C0.00823564 6.26611 0.000997309 7.1149 0.000997309 7.96445C0.000997309 9.14392 -0.0127174 10.3268 0.0615707 11.5063C0.088902 12.0109 0.179519 12.51 0.331294 12.992C0.63202 13.9599 1.28445 14.7799 2.15992 15.2904C2.81706 15.6654 3.55297 15.8811 4.30856 15.9201C4.82744 15.959 5.34974 15.9841 5.8709 15.9864C7.56696 15.9967 9.26415 16.0196 10.9613 15.9647C11.4962 15.9588 12.0291 15.8998 12.5523 15.7887C13.4197 15.6063 14.2073 15.1544 14.8025 14.4976C15.3978 13.8407 15.7702 13.0126 15.8667 12.1314C15.9369 11.6167 15.9724 11.0978 15.9729 10.5783C15.9889 9.72108 15.9912 8.86391 16.0038 7.63187C15.9878 6.90499 15.9707 5.80781 15.9444 4.71177ZM7.99211 12.1052C7.18026 12.1045 6.38684 11.8631 5.71216 11.4115C5.03748 10.96 4.51183 10.3185 4.20167 9.56826C3.89151 8.818 3.81077 7.99261 3.96965 7.19646C4.12853 6.40031 4.51991 5.66914 5.09429 5.0954C5.66867 4.52165 6.40028 4.1311 7.1966 3.9731C7.99293 3.8151 8.81822 3.89676 9.56814 4.20776C10.3181 4.51875 10.9589 5.04512 11.4097 5.7203C11.8605 6.39549 12.101 7.18917 12.1008 8.00102C12.1011 8.54046 11.995 9.07465 11.7886 9.57302C11.5822 10.0714 11.2794 10.5241 10.8978 10.9054C10.5161 11.2866 10.0631 11.5888 9.56445 11.7947C9.06585 12.0006 8.53154 12.1061 7.99211 12.1052ZM12.6654 4.79063C12.3912 4.79154 12.1229 4.71104 11.8945 4.55933C11.6661 4.40763 11.4878 4.19154 11.3823 3.93845C11.2768 3.68535 11.2488 3.40663 11.3018 3.1376C11.3548 2.86857 11.4865 2.62133 11.6801 2.42719C11.8738 2.23306 12.1207 2.10077 12.3896 2.04708C12.6585 1.99339 12.9373 2.02072 13.1907 2.1256C13.444 2.23048 13.6605 2.4082 13.8128 2.63624C13.9651 2.86428 14.0462 3.13238 14.046 3.40659C14.0433 3.77181 13.897 4.1213 13.6386 4.37945C13.3802 4.6376 13.0306 4.78367 12.6654 4.78606V4.79063Z" fill="#E10A17"/>
</svg>
