<svg width="30" height="30" viewBox="0 0 30 30" fill="none" xmlns="http://www.w3.org/2000/svg">
<path d="M7.17243 8.26819L7.60243 11.7482C7.60967 11.8085 7.60217 11.8696 7.58058 11.9263C7.55898 11.9831 7.52393 12.0337 7.47844 12.0739C7.43295 12.1141 7.37838 12.1427 7.31941 12.1572C7.26045 12.1716 7.19886 12.1715 7.13993 12.1569C6.34723 11.9147 5.6283 11.4767 5.04946 10.8834C4.47062 10.29 4.05051 9.56053 3.82787 8.76209C3.60524 7.96365 3.58725 7.122 3.77557 6.31478C3.96388 5.50756 4.35244 4.76075 4.90541 4.14325C5.45837 3.52576 6.15792 3.05745 6.93955 2.78152C7.72117 2.5056 8.5597 2.43094 9.37777 2.56445C10.1958 2.69795 10.9671 3.03531 11.6205 3.54541C12.2738 4.05551 12.7882 4.72193 13.1162 5.48319C13.1374 5.54001 13.1445 5.60113 13.137 5.66131C13.1294 5.7215 13.1073 5.77894 13.0726 5.82872C13.038 5.8785 12.9918 5.91913 12.9379 5.94712C12.8841 5.97511 12.8243 5.98963 12.7637 5.98944H9.18618C8.89831 5.98874 8.6136 6.04944 8.35104 6.16746C8.08848 6.28549 7.85411 6.45814 7.66354 6.6739C7.47298 6.88966 7.3306 7.14358 7.24592 7.41871C7.16123 7.69384 7.13618 7.98261 7.17243 8.26819Z" fill="#E10A17"/>
<path d="M26.2948 3.10492C26.2235 2.88502 26.068 2.70231 25.8623 2.59668C25.6567 2.49105 25.4176 2.47109 25.1973 2.54117L20.5473 4.04117C20.424 4.08041 20.311 4.1465 20.2163 4.23469C20.1216 4.32288 20.0477 4.43097 19.9998 4.55117L18.9898 7.14992H9.18607C9.06315 7.15 8.94163 7.17597 8.82942 7.22616C8.7172 7.27634 8.61683 7.3496 8.53482 7.44117C8.45177 7.53295 8.39 7.64194 8.35392 7.76035C8.31784 7.87875 8.30833 8.00366 8.32607 8.12617L8.92982 13.0099L9.15107 14.7074L10.6511 26.7312C10.6737 26.943 10.7742 27.1388 10.9332 27.2806C11.0921 27.4225 11.2981 27.5002 11.5111 27.4987H19.6511C19.8641 27.5002 20.07 27.4225 20.229 27.2806C20.3879 27.1388 20.4884 26.943 20.5111 26.7312L22.0111 14.7074L22.2323 13.0099L22.8373 8.12367C22.8548 8.00107 22.8451 7.87613 22.8088 7.75773C22.7725 7.63933 22.7105 7.53039 22.6273 7.43867C22.5453 7.3471 22.4449 7.27384 22.3327 7.22366C22.2205 7.17347 22.099 7.1475 21.9761 7.14742H20.8611L21.4761 5.56617L25.7261 4.19867C25.946 4.1283 26.1292 3.97384 26.2358 3.76896C26.3423 3.56408 26.3635 3.32538 26.2948 3.10492ZM10.8948 13.5449C10.8492 13.5518 10.8041 13.5618 10.7598 13.5749L10.6861 12.9637L10.1748 8.89367H18.3111L16.5123 13.5187V13.5437L10.8948 13.5449ZM20.9886 8.89367L20.4761 12.9637L20.4036 13.5749C20.3589 13.5619 20.3133 13.5519 20.2673 13.5449H18.3748L20.1823 8.89367H20.9886Z" fill="#424242"/>
</svg>
