<svg width="30" height="30" viewBox="0 0 30 30" fill="none" xmlns="http://www.w3.org/2000/svg">
<path d="M12.0888 1.12081C12.4023 1.32584 12.3934 1.78739 12.069 1.97467C11.4476 2.33343 10.61 2.81854 10.5948 2.82816C10.3794 2.9652 10.1829 3.12268 10.0185 3.30946C9.8927 3.45237 9.69167 3.50674 9.5097 3.45075C7.39254 2.79935 4.87577 4.29174 4.87577 6.86251V29.5001C4.87577 29.6327 4.8231 29.7598 4.72934 29.8536C4.63559 29.9473 4.50843 30 4.37585 30H1.66691C1.53432 30 1.40717 29.9473 1.31341 29.8536C1.21966 29.7598 1.16699 29.6327 1.16699 29.5001V7.08497C1.16699 1.27129 7.62126 -1.80134 12.0888 1.12081ZM16.8732 23.6287C16.7853 23.6288 16.699 23.6058 16.6229 23.5619C16.5468 23.518 16.4837 23.4548 16.4398 23.3787L14.9296 20.763C14.8633 20.6482 14.8453 20.5117 14.8796 20.3837C14.9139 20.2556 14.9977 20.1464 15.1125 20.0801C15.1694 20.0473 15.2322 20.026 15.2972 20.0174C15.3623 20.0088 15.4285 20.0131 15.4919 20.0301C15.5553 20.0471 15.6147 20.0764 15.6668 20.1164C15.7189 20.1564 15.7626 20.2062 15.7954 20.2631L17.3056 22.8788C17.499 23.2135 17.254 23.6287 16.8732 23.6287ZM19.6654 28.4651C19.5776 28.4652 19.4913 28.4421 19.4152 28.3982C19.3391 28.3543 19.2759 28.2911 19.232 28.215L17.8358 25.7969C17.7696 25.682 17.7516 25.5456 17.7859 25.4175C17.8202 25.2895 17.904 25.1803 18.0188 25.114C18.0757 25.0811 18.1384 25.0598 18.2035 25.0513C18.2686 25.0427 18.3347 25.047 18.3982 25.064C18.4616 25.081 18.521 25.1103 18.5731 25.1503C18.6252 25.1903 18.6689 25.2401 18.7017 25.2969L20.0979 27.7151C20.2913 28.0499 20.0463 28.4651 19.6654 28.4651ZM24.2481 28.4378C24.1616 28.4379 24.0767 28.4156 24.0014 28.373C23.9262 28.3305 23.8633 28.2692 23.8189 28.195L22.7597 26.4298C22.6915 26.3161 22.6713 26.18 22.7035 26.0514C22.7356 25.9227 22.8175 25.8121 22.9312 25.7439C23.0449 25.6757 23.1811 25.6554 23.3097 25.6876C23.4383 25.7198 23.5489 25.8017 23.6172 25.9153L24.6763 27.6806C24.8772 28.0156 24.6324 28.4378 24.2481 28.4378ZM21.8734 24.376C21.7849 24.3761 21.698 24.3527 21.6215 24.3081C21.5449 24.2636 21.4816 24.1995 21.438 24.1225L19.6929 21.0439C19.6605 20.9868 19.6397 20.9238 19.6316 20.8587C19.6236 20.7935 19.6284 20.7274 19.6459 20.6641C19.6634 20.6009 19.6932 20.5416 19.7336 20.4899C19.774 20.4381 19.8241 20.3948 19.8813 20.3624C19.9384 20.3301 20.0013 20.3093 20.0665 20.3012C20.1316 20.2931 20.1977 20.298 20.261 20.3155C20.3243 20.333 20.3835 20.3628 20.4353 20.4032C20.487 20.4435 20.5303 20.4937 20.5627 20.5508L22.3079 23.6295C22.4988 23.9662 22.2499 24.376 21.8734 24.376ZM18.5878 18.6292C18.5008 18.6293 18.4152 18.6066 18.3396 18.5635C18.2641 18.5204 18.201 18.4583 18.1569 18.3833L17.3807 17.0688C17.3145 16.9547 17.2961 16.819 17.3295 16.6914C17.3629 16.5638 17.4454 16.4546 17.559 16.3875C17.6725 16.3205 17.808 16.301 17.9359 16.3334C18.0637 16.3658 18.1736 16.4474 18.2416 16.5604L19.0178 17.875C19.2157 18.2103 18.9701 18.6292 18.5878 18.6292ZM21.6695 15.9973C21.5817 15.9974 21.4954 15.9744 21.4193 15.9305C21.3432 15.8866 21.28 15.8234 21.2361 15.7473L20.7004 14.8195C20.6342 14.7047 20.6162 14.5683 20.6505 14.4402C20.6848 14.3121 20.7686 14.2029 20.8834 14.1366C20.9403 14.1038 21.003 14.0825 21.0681 14.0739C21.1332 14.0653 21.1994 14.0697 21.2628 14.0866C21.3262 14.1036 21.3856 14.133 21.4377 14.1729C21.4898 14.2129 21.5335 14.2627 21.5663 14.3196L22.102 15.2474C22.2953 15.5822 22.0504 15.9973 21.6695 15.9973ZM25.0604 21.8764C24.9725 21.8765 24.8861 21.8534 24.81 21.8094C24.7339 21.7655 24.6707 21.7022 24.6268 21.626L22.7553 18.3788C22.6891 18.2639 22.6712 18.1275 22.7056 17.9994C22.7401 17.8713 22.8239 17.7622 22.9388 17.696C23.0537 17.6298 23.1902 17.6119 23.3183 17.6463C23.4463 17.6808 23.5554 17.7646 23.6217 17.8795L25.4932 21.1268C25.6869 21.4631 25.4391 21.8764 25.0604 21.8764ZM26.5672 24.4803C26.4793 24.4804 26.393 24.4574 26.3169 24.4135C26.2408 24.3696 26.1776 24.3064 26.1337 24.2303L25.902 23.8289C25.8385 23.7143 25.8226 23.5793 25.8577 23.453C25.8927 23.3267 25.976 23.2193 26.0895 23.1537C26.203 23.0882 26.3377 23.0699 26.4646 23.1027C26.5914 23.1354 26.7004 23.2167 26.768 23.329L26.9997 23.7304C27.1928 24.0649 26.9484 24.4803 26.5672 24.4803ZM26.3355 16.1096C26.2476 16.1097 26.1613 16.0866 26.0852 16.0427C26.0091 15.9988 25.9459 15.9356 25.902 15.8595L24.5658 13.5451C24.4995 13.4303 24.4815 13.2938 24.5158 13.1658C24.5501 13.0377 24.6339 12.9285 24.7487 12.8622C24.8056 12.8294 24.8683 12.8081 24.9334 12.7995C24.9985 12.7909 25.0647 12.7953 25.1281 12.8123C25.1915 12.8292 25.2509 12.8586 25.303 12.8985C25.3551 12.9385 25.3988 12.9883 25.4316 13.0452L26.7679 15.3596C26.9612 15.6944 26.7163 16.1096 26.3355 16.1096ZM28.3334 19.5702C28.2455 19.5703 28.1592 19.5472 28.0831 19.5033C28.007 19.4594 27.9439 19.3963 27.9 19.3202L27.1228 17.9742C27.0565 17.8594 27.0386 17.7229 27.0729 17.5949C27.1072 17.4668 27.191 17.3576 27.3058 17.2913C27.3627 17.2585 27.4254 17.2372 27.4905 17.2286C27.5556 17.22 27.6217 17.2244 27.6852 17.2413C27.7486 17.2583 27.808 17.2877 27.8601 17.3276C27.9122 17.3676 27.9559 17.4174 27.9887 17.4743L28.7658 18.8202C28.9592 19.155 28.7143 19.5702 28.3334 19.5702Z" fill="#424242"/>
<path d="M15.265 3.01519C15.4006 3.25015 15.2809 3.54885 15.0211 3.62703C13.659 4.03671 12.3291 4.79071 11.2511 5.80474C11.0528 5.99127 10.7335 5.94746 10.5972 5.71181C10.1854 4.99974 10.4219 4.07933 11.1456 3.66202L13.2166 2.46597C13.9327 2.05291 14.8517 2.29918 15.265 3.01519Z" fill="#424242"/>
<path d="M20.9672 5.44883C21.2403 5.66654 21.2055 6.09241 20.904 6.26869C20.8171 6.3195 11.4449 11.7242 10.5991 12.2177C10.2955 12.3948 9.9055 12.2119 9.85357 11.8642C9.0492 6.47804 16.7124 2.05644 20.9672 5.44883ZM23.504 10.1785L12.6807 16.4275C11.9637 16.8403 11.0478 16.5989 10.6317 15.8782L10.288 15.2833C9.87494 14.5672 10.1212 13.6479 10.8373 13.2342L21.6605 6.98527C22.3767 6.57221 23.2959 6.81779 23.7096 7.53455L24.0533 8.12945C24.4663 8.84621 24.2201 9.76481 23.504 10.1785Z" fill="#E10A17"/>
</svg>
