<svg width="184" height="38" viewBox="0 0 184 38" fill="none" xmlns="http://www.w3.org/2000/svg">
<path fill-rule="evenodd" clip-rule="evenodd" d="M65.4759 10.8499H71.8145L72.4542 8.16424L66.0595 8.1252L65.4759 10.8499ZM59.7637 17.4663L63.5718 17.4511L64.2687 14.4132L73.9889 14.3495C74.3288 14.3495 74.7153 13.9906 74.8029 13.6545L76.9336 5.43196C77.0335 5.04545 76.6784 4.61133 76.2871 4.61133H62.892L59.7637 17.4663Z" fill="#DE1F27"/>
<path fill-rule="evenodd" clip-rule="evenodd" d="M63.5764 19.0316L59.7682 19.0468L57.7471 19.0544L58.2231 17.0933L61.3543 4.24016L61.6494 3.0311H76.2879V3.02539C76.4689 3.02737 76.649 3.052 76.8239 3.0987C77.3042 3.2278 77.7297 3.50904 78.0368 3.90029C78.3557 4.29649 78.5324 4.7883 78.5385 5.29689C78.5366 5.47698 78.512 5.65611 78.4652 5.83002L76.3345 14.0525C76.194 14.5531 75.9081 15.0008 75.5129 15.3387C75.093 15.7068 74.5574 15.916 73.9992 15.9299L65.5356 15.9842L65.1186 17.8035L64.8387 19.0268L63.5764 19.0316ZM65.4804 10.849H71.819L72.4588 8.1634L66.064 8.12437L65.4804 10.849ZM59.7682 17.4655L63.5764 17.4503L64.2732 14.4124L73.9897 14.3486C74.3295 14.3486 74.7161 13.9897 74.8037 13.6537L76.9343 5.43112C77.0343 5.04461 76.6792 4.61049 76.2879 4.61049H62.8928L59.7682 17.4655Z" fill="#1D1E1C"/>
<path fill-rule="evenodd" clip-rule="evenodd" d="M72.9249 17.3982H78.0363L86.5913 9.53079L85.5688 13.95C84.7396 13.95 84.631 13.9662 83.779 13.9595L80.0756 17.3868L88.7305 17.4001L91.777 4.59937H86.1333L72.9249 17.3982Z" fill="#DE1F27"/>
<path fill-rule="evenodd" clip-rule="evenodd" d="M78.036 18.9865H69.0117L71.8202 16.2647L85.0325 3.46392L85.499 3.01172H93.7817L93.3152 4.96429L90.2687 17.765L89.9831 18.9827H88.7292L80.0743 18.9693H78.6739L78.6491 18.9912L78.036 18.9865ZM72.9246 17.3995H78.036L86.591 9.53205L85.5685 13.9513C84.7393 13.9513 84.6307 13.9675 83.7787 13.9608L80.0753 17.3881L88.7302 17.4014L91.7767 4.60063H86.1331L72.9246 17.3995Z" fill="#1D1E1C"/>
<path fill-rule="evenodd" clip-rule="evenodd" d="M90.1804 17.4002H94.2446L95.9193 10.2411L100.164 17.4002H104.643L107.697 4.59375L103.596 4.61945L101.928 11.2731L97.9547 4.61945H93.2422L90.1804 17.4002Z" fill="#DE1F27"/>
<path fill-rule="evenodd" clip-rule="evenodd" d="M94.2457 18.9862H88.1746L88.643 17.0336L91.7048 4.25285L91.998 3.03046H98.8526L99.3153 3.80635L101.325 7.17076L102.062 4.23381L102.36 3.04474L103.598 3.03713L107.691 3.01238L109.709 3L109.241 4.95924L106.187 17.7657L105.896 18.9862H99.2648L98.8021 18.2055L96.5668 14.4365L95.7909 17.759L95.5053 18.9862H94.2457ZM90.1806 17.3992H94.2457L95.9194 10.24L100.164 17.3992H104.639L107.697 4.59272L103.598 4.62128L101.929 11.2749L97.9548 4.62128H93.2423L90.1806 17.3992Z" fill="#1D1E1C"/>
<path fill-rule="evenodd" clip-rule="evenodd" d="M109.204 4.59375H123.341L122.522 8.11048H117.476L115.269 17.3821L111.12 17.3897L113.356 8.06574L108.354 8.05907L109.204 4.59375Z" fill="#DE1F27"/>
<path fill-rule="evenodd" clip-rule="evenodd" d="M109.203 4.59181H123.34L122.521 8.10855H117.475L115.268 17.3773L111.119 17.3849L113.354 8.06094L108.357 8.05714L109.203 4.59181ZM109.203 3.00481H125.339L124.884 4.95167L124.066 8.46841L123.78 9.6965H118.734L116.818 17.7458L116.532 18.9586H115.277L111.128 18.9653H109.123L109.59 17.0146L111.36 9.63557H108.362H106.346L106.822 7.68585L107.672 4.22053L107.963 3.00195L109.203 3.00481Z" fill="#1D1E1C"/>
<path fill-rule="evenodd" clip-rule="evenodd" d="M124.773 4.59375H128.871L127.852 9.29955L133.972 9.32525L135.12 4.59375H139.369L136.312 17.4707H132.061L133.078 12.7677L127.134 12.7906L125.839 17.4707H121.664L124.773 4.59375Z" fill="#DE1F27"/>
<path fill-rule="evenodd" clip-rule="evenodd" d="M124.773 4.59181H128.866L127.848 9.29761L133.967 9.32331L135.11 4.59181H139.36L136.312 17.4725H132.063L133.08 12.7696L127.135 12.7924L125.838 17.4725H121.664L124.773 4.59181ZM124.773 3.00481H130.837L130.421 4.92692L129.815 7.72393L132.729 7.73631L133.585 4.21958L133.881 3.00481H141.381L140.917 4.95834L137.855 17.8343L137.57 19.0557H130.1L130.515 17.1336L131.116 14.3547L128.344 14.3652L127.367 17.8876L127.045 19.0529H119.657L120.133 17.0936L123.243 4.21672L123.528 3.00195L124.773 3.00481Z" fill="#1D1E1C"/>
<path fill-rule="evenodd" clip-rule="evenodd" d="M140.785 4.59375L155.144 4.61374L154.354 8.01052L144.017 7.98006L143.733 9.29669L154.047 9.33286L153.25 12.7677L142.866 12.7382L142.461 14.0644L152.936 14.1205L152.166 17.4326L137.717 17.4535L140.785 4.59375Z" fill="#DE1F27"/>
<path fill-rule="evenodd" clip-rule="evenodd" d="M140.786 4.59592L155.145 4.61591L154.355 8.01269L144.018 7.98222L143.733 9.2979L154.047 9.33598L153.25 12.7699L142.866 12.7404L142.461 14.0665L152.933 14.1217L152.164 17.4347L137.714 17.4557L140.786 4.59592ZM140.786 3.01558L155.145 3.03462H157.137L156.688 4.96625L156.04 7.76421L155.988 7.98889L155.9 8.36969L155.614 9.60159L155.592 9.6968L154.926 12.5595L154.478 14.4835L153.709 17.7956L153.423 19.0218H152.165L137.715 19.0427H135.705L136.171 17.093L139.242 4.23034L139.527 3.01367L140.786 3.01558Z" fill="#1D1E1C"/>
<path fill-rule="evenodd" clip-rule="evenodd" d="M156.591 4.61523H170.154C170.508 4.61523 170.971 4.99604 170.885 5.34162L168.771 13.7945C168.741 13.892 168.688 13.9809 168.616 14.0542C168.545 14.1274 168.458 14.1829 168.361 14.2163L166.701 14.7608L167.788 16.3535C167.911 16.5344 168.028 16.7705 167.973 16.9914L167.867 17.416H162.828L161.332 14.7799C161.263 14.6576 161.166 14.5542 161.048 14.4785C160.93 14.4028 160.795 14.3572 160.655 14.3457L159.697 14.3239L160.536 10.8481L165.213 10.8576L165.965 8.08532L159.815 8.06533L157.555 17.416H153.643L156.591 4.61523Z" fill="#DE1F27"/>
<path fill-rule="evenodd" clip-rule="evenodd" d="M156.592 4.6123H170.154C170.508 4.6123 170.972 4.9931 170.885 5.33868L168.772 13.7916C168.741 13.8891 168.688 13.978 168.617 14.0512C168.546 14.1245 168.458 14.18 168.362 14.2133L166.701 14.7569L167.788 16.3506C167.911 16.5315 168.028 16.7676 167.973 16.9885L167.867 17.4121H162.828L161.333 14.7779C161.264 14.6557 161.166 14.5522 161.048 14.4765C160.93 14.4008 160.796 14.3552 160.656 14.3438L159.697 14.3209L160.537 10.8451L165.213 10.8546L165.965 8.08238L159.815 8.06144L157.556 17.4121H153.643L156.592 4.6123ZM156.592 3.02529H170.154C170.331 3.02666 170.506 3.04968 170.677 3.09384H170.683C171.113 3.20451 171.507 3.42644 171.825 3.7374V3.74311C172.03 3.93801 172.194 4.17173 172.307 4.43064C172.421 4.68955 172.481 4.96846 172.486 5.2511H172.48C172.48 5.40788 172.462 5.56415 172.426 5.71663V5.72329L170.312 14.1762C170.217 14.5434 170.027 14.8792 169.761 15.1501C169.591 15.3234 169.396 15.4692 169.181 15.5823C169.292 15.7578 169.383 15.9452 169.452 16.1412C169.593 16.535 169.615 16.962 169.514 17.3683V17.3759L169.409 17.7996L169.108 19.0029H161.913L161.456 18.1966L160.161 15.9117L159.67 15.9003H159.553L159.098 17.7843L158.805 19.0001H151.656L152.103 17.0589L155.054 4.2591L155.34 3.02148L156.592 3.02529Z" fill="#1D1E1C"/>
<path fill-rule="evenodd" clip-rule="evenodd" d="M71.8145 11.1907H65.0551L65.1436 10.7804L65.7272 8.05571L65.7853 7.78629H66.0614L72.4552 7.82532H72.8836L72.7884 8.2404L72.1496 10.9251L72.0849 11.1907H71.8145ZM65.4759 10.8508H71.8145L72.4542 8.16614L66.0604 8.12616L65.4759 10.8508ZM59.7637 17.4673L63.5718 17.4521L64.2687 14.4132L73.9889 14.3504C74.3288 14.3504 74.7153 13.9896 74.802 13.6545L76.9326 5.43196C77.0335 5.04545 76.6784 4.61133 76.2881 4.61133H62.892L59.7637 17.4673ZM60.1949 17.1265L63.2995 17.1151L63.9355 14.338L63.9955 14.0762H64.2658L73.9889 14.0105C74.0912 13.9973 74.1864 13.9512 74.2602 13.8792C74.3601 13.7993 74.4345 13.6921 74.4745 13.5707L76.6051 5.34819C76.6068 5.33109 76.6068 5.31387 76.6051 5.29678C76.6021 5.22083 76.5744 5.14795 76.5261 5.08924C76.4782 5.02654 76.4115 4.98084 76.3357 4.95881C76.3182 4.95442 76.3003 4.95218 76.2824 4.95215H63.1586L60.1949 17.1265Z" fill="white"/>
<path fill-rule="evenodd" clip-rule="evenodd" d="M72.9249 17.3992H78.0363L86.5913 9.53174L85.5688 13.951C84.7396 13.951 84.631 13.9672 83.778 13.9595L80.0756 17.3868L88.7305 17.4001L91.777 4.59937H86.1333L72.9249 17.3992ZM73.7627 17.0593H77.9049L86.3656 9.28612L87.173 8.54355L86.9254 9.61171L85.8991 14.029L85.8382 14.2937H85.5688C85.1156 14.2937 84.9405 14.2937 84.7796 14.2985C84.5339 14.2985 84.3093 14.3051 83.9094 14.2985L80.9391 17.0479L88.4601 17.0602L91.3429 4.93828H86.2704L73.7627 17.0593Z" fill="white"/>
<path fill-rule="evenodd" clip-rule="evenodd" d="M90.1795 17.3993H94.2447L95.9184 10.2401L100.165 17.3993H104.64L107.693 4.59375L103.597 4.62136L101.929 11.274L97.9547 4.62136H93.2431L90.1795 17.3993ZM90.6098 17.0594H93.9753L95.588 10.163L96.2116 10.0678L100.361 17.0594H104.377L107.268 4.93457L103.865 4.95551L102.26 11.354L101.64 11.4492L97.7653 4.96123H93.5059L90.6098 17.0594Z" fill="white"/>
<path fill-rule="evenodd" clip-rule="evenodd" d="M122.913 4.93457H109.469L108.785 7.72016L113.355 7.72682H113.784L113.689 8.14475L111.554 17.0499L115.005 17.0442L117.149 8.03242L117.211 7.77061H122.257L122.913 4.93457ZM109.204 4.59375H123.341L122.522 8.11048H117.476L115.268 17.3793L111.119 17.3869L113.355 8.06288L108.357 8.05907L109.204 4.59375Z" fill="white"/>
<path fill-rule="evenodd" clip-rule="evenodd" d="M128.446 4.93457H125.035L122.091 17.1308H125.577L126.803 12.7001L126.872 12.4526H127.13L133.074 12.4298H133.495L133.407 12.842L132.479 17.1327H136.039L138.936 4.93647H135.386L134.302 9.41093L134.239 9.67178H133.971L127.851 9.64703H127.432L127.519 9.23862L128.446 4.93457ZM124.769 4.59375H128.863L127.844 9.29954L133.964 9.32525L135.106 4.59375H139.356L136.312 17.4745H132.063L133.08 12.7715L127.136 12.7944L125.838 17.4745H121.664L124.769 4.59375Z" fill="white"/>
<path fill-rule="evenodd" clip-rule="evenodd" d="M154.722 4.95266L141.059 4.93362L138.152 17.1194L151.902 17.0984L152.514 14.4614L142.465 14.408H142.009L142.142 13.973L142.547 12.6459L142.622 12.405H142.872L152.986 12.4336L153.626 9.67273L143.738 9.63656H143.318L143.406 9.22719L143.692 7.91151L143.75 7.64304H144.024L154.092 7.67256L154.722 4.95266ZM140.791 4.59375L155.149 4.61374L154.36 8.01052L144.023 7.98006L143.737 9.29669L154.052 9.33382L153.255 12.7677L142.871 12.7382L142.466 14.0644L152.938 14.1205L152.169 17.4326L137.719 17.4535L140.791 4.59375Z" fill="white"/>
<path fill-rule="evenodd" clip-rule="evenodd" d="M170.155 4.9543H156.862L154.071 17.0734H157.292L159.488 7.9836L159.551 7.7237H159.818L165.968 7.74369H166.411L166.296 8.17019L165.543 10.9434L165.475 11.1938H165.216L160.806 11.1852L160.129 13.9927L160.665 14.0041C160.863 14.0113 161.055 14.0729 161.221 14.1821C161.389 14.2903 161.529 14.4372 161.629 14.6106L163.029 17.0725H167.604L167.646 16.9068C167.653 16.8588 167.647 16.8096 167.628 16.765C167.598 16.6862 167.559 16.6117 167.51 16.5431L166.424 14.9495L166.169 14.5763L166.599 14.4354L168.259 13.8899C168.306 13.8728 168.348 13.8451 168.382 13.809C168.41 13.7826 168.432 13.75 168.445 13.7138L170.557 5.26085C170.545 5.20411 170.514 5.15311 170.47 5.11614C170.4 5.04639 170.314 4.99589 170.218 4.96953C170.198 4.96424 170.177 4.96168 170.157 4.96191M156.594 4.62109H170.157C170.511 4.62109 170.974 5.0019 170.888 5.34748L168.774 13.8004C168.744 13.8979 168.69 13.9868 168.619 14.06C168.548 14.1333 168.461 14.1888 168.364 14.2221L166.704 14.7667L167.791 16.3594C167.914 16.5403 168.031 16.7764 167.975 16.9972L167.87 17.4218H162.831L161.335 14.7857C161.266 14.6635 161.169 14.56 161.051 14.4843C160.933 14.4086 160.798 14.3631 160.658 14.3516L159.699 14.3297L160.539 10.8539L165.216 10.8634L165.968 8.09118L159.818 8.07118L157.558 17.4218H153.646L156.594 4.62109Z" fill="white"/>
<path fill-rule="evenodd" clip-rule="evenodd" d="M56.6963 31.4195H70.8587L72.5819 24.4441C72.639 24.2128 72.3801 23.9176 72.144 23.9157L63.6813 23.8624L62.9921 26.8774L67.7522 26.8879L67.4666 28.2988L61.1832 28.2579L62.537 22.4506L73.0255 22.4887L73.6396 20.1734C73.7843 19.6241 73.0465 19.0195 72.4876 19.0195H60.5872C59.9846 19.0195 59.2915 19.625 59.1592 20.221L56.6963 31.4195Z" fill="#DE1F27"/>
<path fill-rule="evenodd" clip-rule="evenodd" d="M70.8589 32.9971H54.7344L55.1561 31.0817L57.6219 19.8841C57.7628 19.2472 58.175 18.6303 58.6977 18.1905C59.2203 17.7507 59.9096 17.4451 60.5884 17.4451H72.4888C72.7056 17.4472 72.9212 17.4769 73.1305 17.5336C73.6403 17.6761 74.1051 17.9468 74.4805 18.32C74.713 18.5418 74.8994 18.8074 75.0289 19.1014C75.1585 19.3955 75.2287 19.7123 75.2354 20.0336C75.2342 20.2175 75.2096 20.4005 75.1621 20.5781L74.549 22.8934L74.2377 24.0682H74.1425C74.1601 24.1739 74.1687 24.2809 74.1682 24.3881V24.3948C74.1683 24.5394 74.151 24.6836 74.1168 24.8241L72.3946 31.7995L72.0985 33L70.8589 32.9971ZM56.6965 31.4206H70.8589L72.5821 24.4452C72.6392 24.2139 72.3803 23.9187 72.1442 23.9168L63.6816 23.8635L62.9923 26.8786L67.7524 26.889L67.4668 28.2999L61.1834 28.259L62.5372 22.4517L73.0258 22.4898L73.6398 20.1745C73.7845 19.6252 73.0467 19.0206 72.4879 19.0206H60.5875C59.9848 19.0206 59.2917 19.6261 59.1594 20.2221L56.6965 31.4206Z" fill="#1D1E1C"/>
<path fill-rule="evenodd" clip-rule="evenodd" d="M72.2812 31.4202H86.6084L89.5064 19.0117H85.6249L84.5777 23.5928L78.418 23.6118L79.3815 19.0117H75.3211L73.5693 26.1651C73.4741 26.5555 73.9425 27.002 74.3395 27.0029L83.6 27.0219L83.2867 28.3938L73.0295 28.3671L72.2812 31.4202Z" fill="#DE1F27"/>
<path fill-rule="evenodd" clip-rule="evenodd" d="M86.6094 32.9952H70.2764L70.7524 31.0493L71.5016 27.9962L71.7996 26.7919H72.0567C72.0115 26.6204 71.9888 26.4437 71.9891 26.2664C71.9882 26.106 72.007 25.9461 72.0452 25.7904L73.7989 18.6407L74.095 17.4336H81.3199L80.9229 19.331L80.3565 22.0337L83.3249 22.0242L84.097 18.6598L84.3826 17.4336H91.5L91.0487 19.3681L88.1431 31.7766L87.8575 32.9952H86.6094ZM72.2823 31.4186H86.6094L89.5074 19.0101H85.626L84.5787 23.5912L78.4191 23.6102L79.3825 19.0101H75.3221L73.5704 26.1635C73.4752 26.5539 73.9436 27.0004 74.3406 27.0013L83.601 27.0204L83.2878 28.3922L73.0306 28.3655L72.2823 31.4186Z" fill="#1D1E1C"/>
<path fill-rule="evenodd" clip-rule="evenodd" d="M88.1074 31.4197H92.1793L94.3251 22.4707H95.9436L93.9596 31.4197H97.9581L99.905 22.485L101.656 22.465L99.7251 31.4197H103.825L106.473 19.3834C106.512 19.2082 106.317 18.9883 106.139 18.9883H92.3763C91.7223 18.9883 90.8636 19.4909 90.7141 20.1364L88.1074 31.4197Z" fill="#DE1F27"/>
<path fill-rule="evenodd" clip-rule="evenodd" d="M92.18 32.9965H86.1289L86.5745 31.0687L89.1821 19.7855C89.3477 19.0648 89.8266 18.466 90.4197 18.0557C90.9951 17.6557 91.6747 17.432 92.3752 17.4121H106.142C106.27 17.4129 106.397 17.4273 106.522 17.4549H106.529C106.941 17.5548 107.31 17.7828 107.584 18.1061C107.881 18.4488 108.047 18.8849 108.055 19.338C108.055 19.4661 108.041 19.5938 108.013 19.7188V19.7245L105.369 31.7589L105.096 32.9965H92.18ZM88.1082 31.42H92.18L94.3259 22.4711H95.9443L93.9603 31.42H97.9588L99.9057 22.4854L101.657 22.4654L99.7258 31.42H103.825L106.474 19.3837C106.513 19.2086 106.318 18.9886 106.14 18.9886H92.3771C91.723 18.9886 90.8643 19.4913 90.7148 20.1368L88.1082 31.42Z" fill="#1D1E1C"/>
<path fill-rule="evenodd" clip-rule="evenodd" d="M56.6963 31.4195H70.8597L72.5819 24.4441C72.639 24.2128 72.3801 23.9167 72.1449 23.9157L63.6813 23.8624L62.9921 26.8774L67.7522 26.8889L67.4666 28.2988L61.1832 28.2579L62.537 22.4506L73.0255 22.4887L73.6386 20.1734C73.7843 19.625 73.0474 19.0195 72.4867 19.0195H60.5863C59.9827 19.0195 59.2906 19.626 59.1582 20.221L56.6963 31.4195ZM57.1161 31.0815H70.595L72.2525 24.3708C72.2421 24.3445 72.2265 24.3204 72.2068 24.3002C72.187 24.2799 72.1634 24.2638 72.1373 24.2527L63.9498 24.2023L63.4148 26.5433L67.7513 26.5528H68.1645L68.0807 26.9555L67.7951 28.3664L67.7399 28.6377H67.4638L61.1804 28.5968H60.7567L60.8519 28.1865L62.2057 22.3792L62.2666 22.1183H62.5341L72.7637 22.1564L73.3102 20.0924C73.315 20.0735 73.3172 20.0539 73.3169 20.0344C73.3013 19.8927 73.2334 19.762 73.1264 19.6679C72.9927 19.5329 72.8265 19.4346 72.6438 19.3822C72.5929 19.3682 72.5404 19.3608 72.4876 19.3604H60.5872C60.3392 19.3774 60.1042 19.4781 59.9208 19.646C59.7126 19.8108 59.5614 20.0369 59.4886 20.2924L57.1161 31.0815Z" fill="white"/>
<path fill-rule="evenodd" clip-rule="evenodd" d="M72.2812 31.4202H86.6084L89.5064 19.0117H85.6249L84.5777 23.5928L78.418 23.6118L79.3805 19.0117H75.3211L73.5693 26.1651C73.4741 26.5555 73.9425 27.002 74.3395 27.0029L83.6 27.0219L83.2867 28.3938L73.0295 28.3671L72.2812 31.4202ZM72.7106 31.0823H86.3399L89.0789 19.3497H85.8934L84.9023 23.668L84.8414 23.9289H84.5729L78.4133 23.9489H77.9972L78.0829 23.5423L78.9607 19.3487H75.5858L73.893 26.2442C73.8918 26.2527 73.8918 26.2613 73.893 26.2699C73.9027 26.3529 73.9415 26.4298 74.0025 26.4869C74.0754 26.5687 74.1702 26.6279 74.2758 26.6573C74.2966 26.6626 74.318 26.6655 74.3395 26.6659L83.6 26.6859H84.0227L83.9275 27.0972L83.6133 28.47L83.5543 28.7318H83.2858L73.2894 28.7061L72.7106 31.0823Z" fill="white"/>
<path fill-rule="evenodd" clip-rule="evenodd" d="M88.1074 31.4197H92.1793L94.3251 22.4707H95.9436L93.9596 31.4197H97.9581L99.905 22.485L101.657 22.465L99.7251 31.4197H103.824L106.473 19.3834C106.512 19.2082 106.317 18.9883 106.139 18.9883H92.3763C91.7223 18.9883 90.8636 19.4909 90.715 20.1364L88.1074 31.4197ZM88.532 31.0817H91.9136L93.9976 22.3889L94.0595 22.1299H96.3663L96.2711 22.5393L94.3785 31.0817H97.6944L99.5832 22.4136L99.6403 22.1518H99.9107L101.662 22.1328L102.083 22.128L101.995 22.5393L100.152 31.0855H103.561L106.146 19.3434L106.133 19.3301H92.3763C92.063 19.3435 91.7604 19.4477 91.5052 19.6299C91.2739 19.7889 91.0939 19.9965 91.0435 20.2154L88.532 31.0817Z" fill="white"/>
<path d="M6.24609 28.8243H6.84173L13.4742 11.2012L12.8037 11.2386L6.24609 28.8243Z" stroke="#1D1E1C" stroke-width="0.115948" stroke-miterlimit="2.61"/>
<path fill-rule="evenodd" clip-rule="evenodd" d="M1.73438 33.2341L16.1186 33.235L13.5144 34.9957L28.3427 34.9854L27.028 19.1426L28.7598 29.5938L38.189 32.3916L41.2841 27.4254L39.2354 28.5335L38.3882 28.2296V27.3338L37.2212 27.5891L36.072 26.8719L38.3124 21.6449L43.1673 20.059L44.656 21.4223L44.4774 23.212L46.0099 21.6869L47.9913 16.8844L48.7553 16.8648L48.5786 15.7184L47.9268 13.1161L39.4972 8.11821L38.6294 6.25556L24.7184 4.82117L16.3785 1.01172H14.86L13.4957 1.49047L19.1734 9.01774L16.6394 7.34772L13.6584 9.07759L4.51901 23.8731L6.5584 24.7848L1.73438 33.2341Z" fill="#1D1E1C"/>
<path fill-rule="evenodd" clip-rule="evenodd" d="M40.8055 26.5362L43.2666 25.2047L43.4742 23.1111L43.6032 21.8197L42.9197 21.197L39.0541 22.4593L37.3383 26.4717L37.4047 26.5128L38.1733 26.3455L39.3889 26.079V27.3039L40.8055 26.5362ZM12.8282 34.2393H0L0.858394 32.7366L5.1326 25.2468L4.10402 24.7895L3.05394 24.322L3.65799 23.3439L12.802 8.54649L12.9367 8.32862L13.1536 8.20333L16.0355 6.53049L12.6908 2.09642L11.8604 0.995844L13.1639 0.537662L14.5272 0.0598442L14.6965 0H16.5881L16.7957 0.0935065L24.9823 3.83377L38.7278 5.25132L39.3001 5.31023L39.5413 5.82826L40.2781 7.40945L48.4366 12.2494L48.8004 12.4644L48.9023 12.8721L49.5568 15.4753L49.5727 15.5688L49.7504 16.7143L49.9243 17.8448L48.7798 17.8738H48.6723L46.9405 22.0675L46.862 22.2545L46.7198 22.3967L45.1873 23.9218L43.7781 25.3244L42.1389 27.9584L39.0448 32.9236L38.639 33.5782L37.9049 33.3603L29.0012 30.7178L29.3481 34.9041L29.4416 35.9925H28.342L13.5136 36H10.2212L12.8282 34.2393ZM1.73362 33.2322H16.1169L13.5136 34.9929L28.342 34.9826L27.0235 19.1408L28.7553 29.592L38.1883 32.3897L41.2833 27.4236L39.2346 28.5326L38.3874 28.2277V27.3319L37.2205 27.5844L36.0713 26.8672L38.3154 21.6402L43.1703 20.0506L44.6589 21.4139L44.4803 23.2036L46.0054 21.6851L47.9869 16.8826L48.7508 16.863L48.5741 15.7166L47.9195 13.1143L39.4964 8.11636L38.6287 6.25371L24.7176 4.81932L16.3778 1.00987H14.8592L13.4949 1.48862L19.1689 9.0159L16.6349 7.34587L13.6548 9.07574L4.51826 23.8713L6.55765 24.7792L1.73362 33.2322Z" fill="#DE1F27"/>
<path fill-rule="evenodd" clip-rule="evenodd" d="M32.7891 24.8285L37.4636 18.9937L44.1577 16.6775L17.6092 2.34766L15.7568 3.31451L18.2871 3.06766L19.2755 3.87462L17.0603 5.16688L20.2723 4.60584L21.3888 5.45955L18.4695 7.0688L22.6997 6.52553L35.585 16.5719L31.5576 16.1361L32.7891 24.8285Z" fill="#3C3C3B"/>
<path fill-rule="evenodd" clip-rule="evenodd" d="M47.8773 16.2926L47.3546 13.5903L43.5488 11.4883L45.62 15.0883L47.8773 16.2926Z" fill="#3C3C3B"/>
<path d="M47.8773 16.2926L47.3546 13.5903L43.5488 11.4883L45.62 15.0883L47.8773 16.2926Z" stroke="#1D1E1C" stroke-width="0.115948" stroke-miterlimit="2.61"/>
<path fill-rule="evenodd" clip-rule="evenodd" d="M33.3837 23.0452L36.6714 18.3821L41.5973 16.6643L31.6426 11.1914L37.0866 16.0565L35.2641 18.7131L33.581 17.5545L33.3837 23.0452Z" fill="#71706F"/>
<path fill-rule="evenodd" clip-rule="evenodd" d="M38.0621 6.74706L32.5303 6.21875L39.1796 9.31381L38.0621 6.74706Z" fill="#71706F"/>
<path fill-rule="evenodd" clip-rule="evenodd" d="M37.6753 6.97549L35.793 6.77539L38.3214 8.56323L37.6753 6.97549Z" fill="white"/>
<path fill-rule="evenodd" clip-rule="evenodd" d="M47.4465 15.2694L47.0659 13.6882L45.2715 12.625L47.4465 15.2694Z" fill="#71706F"/>
<path fill-rule="evenodd" clip-rule="evenodd" d="M25.8484 17.4434L23.5556 31.2524L19.9004 33.6153L26.7432 33.5461L25.8484 17.4434Z" fill="#71706F"/>
<path fill-rule="evenodd" clip-rule="evenodd" d="M19.9677 13.795L16.6314 8.625L14.5546 9.85929L6.11838 23.3401L7.98852 24.1564L3.61426 32.0054L14.2741 32.1194L16.176 31.2442L16.0301 15.7399L18.279 24.523L19.9677 13.795ZM15.802 11.4695L10.79 30.9992L5.21977 31.0189L9.33408 23.7525L7.65096 22.8913L15.1166 10.5297L16.5051 9.74801L17.8713 18.5741L15.802 11.4695Z" fill="#71706F"/>
<path fill-rule="evenodd" clip-rule="evenodd" d="M21.7339 5.78906L19.875 6.62875L22.4605 6.29961L21.7339 5.78906Z" fill="white"/>
<path fill-rule="evenodd" clip-rule="evenodd" d="M19.5543 4.11328L18.0938 4.77344L19.9976 4.42466L19.5543 4.11328Z" fill="white"/>
<path d="M16.7793 2.98903L18.0818 2.84036L17.7228 2.58789L16.7793 2.98903Z" fill="white"/>
<path fill-rule="evenodd" clip-rule="evenodd" d="M41.599 16.665L35.5107 13.3184L40.7873 16.9473L41.599 16.665Z" fill="white"/>
<path fill-rule="evenodd" clip-rule="evenodd" d="M22.458 32.8811L25.9374 32.7717L25.7083 23.5996L24.676 30.8978L25.1202 31.6524L22.458 32.8811Z" fill="#71706F"/>
<path fill-rule="evenodd" clip-rule="evenodd" d="M39.6943 17.3297L36.0391 15.1211L38.9443 17.5915L39.6943 17.3297Z" fill="white"/>
<path fill-rule="evenodd" clip-rule="evenodd" d="M44.8783 16.3817L27.5 7.68555L44.0676 16.665L44.8783 16.3817Z" fill="#DE1F27"/>
</svg>
