<svg width="192" height="40" viewBox="0 0 192 40" fill="none" xmlns="http://www.w3.org/2000/svg">
<path fill-rule="evenodd" clip-rule="evenodd" d="M69.1123 12.4496H75.8031L76.4784 9.61479L69.7283 9.57359L69.1123 12.4496ZM63.0828 19.4337L67.1025 19.4176L67.8381 16.211L78.0983 16.1436C78.4571 16.1436 78.8651 15.7648 78.9575 15.4101L81.2065 6.73073C81.312 6.32274 80.9372 5.8645 80.5242 5.8645H66.3849L63.0828 19.4337Z" fill="#DE1F27"/>
<path fill-rule="evenodd" clip-rule="evenodd" d="M67.1069 21.0875L63.0872 21.1036L60.9538 21.1117L61.4563 19.0416L64.7614 5.47439L65.073 4.19817H80.5247V4.19214C80.7157 4.19423 80.9058 4.22022 81.0904 4.26952C81.5974 4.40579 82.0466 4.70266 82.3707 5.11564C82.7074 5.53385 82.8939 6.05299 82.9003 6.58983C82.8983 6.77993 82.8723 6.96901 82.8229 7.15258L80.5739 15.8319C80.4256 16.3603 80.1237 16.8328 79.7066 17.1895C79.2634 17.578 78.698 17.7989 78.1088 17.8136L69.1751 17.8709L68.7349 19.7912L68.4395 21.0825L67.1069 21.0875ZM69.1168 12.4504H75.8075L76.4829 9.61559L69.7328 9.57439L69.1168 12.4504ZM63.0872 19.4345L67.1069 19.4184L67.8425 16.2118L78.0988 16.1444C78.4575 16.1444 78.8655 15.7656 78.958 15.4109L81.207 6.73152C81.3125 6.32353 80.9377 5.8653 80.5247 5.8653H66.3854L63.0872 19.4345Z" fill="#1D1E1C"/>
<path fill-rule="evenodd" clip-rule="evenodd" d="M76.9744 19.3634H82.3698L91.4 11.0589L90.3207 15.7237C89.4454 15.7237 89.3309 15.7407 88.4315 15.7337L84.5223 19.3514L93.6581 19.3654L96.8738 5.85352H90.9167L76.9744 19.3634Z" fill="#DE1F27"/>
<path fill-rule="evenodd" clip-rule="evenodd" d="M82.3698 21.0378H72.8442L75.8087 18.1648L89.755 4.65287L90.2474 4.17554H98.9902L98.4978 6.23659L95.2821 19.7485L94.9806 21.0338H93.6571L84.5214 21.0197H83.0431L83.017 21.0428L82.3698 21.0378ZM76.9744 19.3626H82.3698L91.4001 11.0581L90.3208 15.7229C89.4455 15.7229 89.3309 15.7399 88.4315 15.7329L84.5224 19.3506L93.6581 19.3646L96.8739 5.85272H90.9167L76.9744 19.3626Z" fill="#1D1E1C"/>
<path fill-rule="evenodd" clip-rule="evenodd" d="M95.1896 19.3658H99.4796L101.247 11.809L105.728 19.3658H110.455L113.679 5.8479L109.351 5.87503L107.589 12.8983L103.396 5.87503H98.4215L95.1896 19.3658Z" fill="#DE1F27"/>
<path fill-rule="evenodd" clip-rule="evenodd" d="M99.4802 21.0386H93.0718L93.5662 18.9776L96.798 5.48676L97.1075 4.19646H104.343L104.831 5.01546L106.953 8.56678L107.731 5.46666L108.045 4.21154L109.352 4.2035L113.673 4.17737L115.802 4.16431L115.309 6.23239L112.085 19.7503L111.777 21.0386H104.778L104.29 20.2146L101.93 16.2362L101.111 19.7433L100.81 21.0386H99.4802ZM95.1891 19.3634H99.4802L101.247 11.8066L105.728 19.3634H110.451L113.679 5.84551L109.352 5.87565L107.59 12.8989L103.395 5.87565H98.421L95.1891 19.3634Z" fill="#1D1E1C"/>
<path fill-rule="evenodd" clip-rule="evenodd" d="M115.269 5.8479H130.192L129.327 9.56001H124.001L121.671 19.3467L117.292 19.3548L119.652 9.51278L114.373 9.50574L115.269 5.8479Z" fill="#DE1F27"/>
<path fill-rule="evenodd" clip-rule="evenodd" d="M115.269 5.84445H130.192L129.327 9.55655H124L121.671 19.3403L117.292 19.3483L119.651 9.50631L114.376 9.50229L115.269 5.84445ZM115.269 4.16927H132.301L131.822 6.2243L130.958 9.9364L130.656 11.2327H125.33L123.307 19.7292L123.006 21.0094H121.68L117.301 21.0164H115.184L115.678 18.9574L117.546 11.1684H114.381H112.253L112.755 9.11037L113.653 5.45253L113.96 4.16626L115.269 4.16927Z" fill="#1D1E1C"/>
<path fill-rule="evenodd" clip-rule="evenodd" d="M131.703 5.8479H136.029L134.954 10.8151L141.413 10.8423L142.625 5.8479H147.11L143.883 19.4402H139.396L140.47 14.476L134.195 14.5001L132.828 19.4402H128.422L131.703 5.8479Z" fill="#DE1F27"/>
<path fill-rule="evenodd" clip-rule="evenodd" d="M131.703 5.84445H136.024L134.949 10.8117L141.409 10.8388L142.615 5.84445H147.101L143.884 19.4408H139.399L140.472 14.4765L134.198 14.5007L132.828 19.4408H128.422L131.703 5.84445ZM131.703 4.16927H138.105L137.665 6.19817L137.026 9.15057L140.101 9.16364L141.006 5.45153L141.317 4.16927H149.234L148.745 6.23133L145.513 19.8226L145.211 21.1119H137.327L137.765 19.083L138.399 16.1497L135.473 16.1608L134.442 19.8789L134.102 21.1089H126.304L126.806 19.0408L130.088 5.44851L130.39 4.16626L131.703 4.16927Z" fill="#1D1E1C"/>
<path fill-rule="evenodd" clip-rule="evenodd" d="M148.605 5.8479L163.762 5.869L162.928 9.45449L152.017 9.42233L151.717 10.8121L162.604 10.8503L161.763 14.476L150.802 14.4448L150.374 15.8447L161.431 15.9039L160.618 19.4L145.366 19.4221L148.605 5.8479Z" fill="#DE1F27"/>
<path fill-rule="evenodd" clip-rule="evenodd" d="M148.606 5.84739L163.763 5.8685L162.929 9.45398L152.018 9.42183L151.717 10.8106L162.604 10.8508L161.763 14.4755L150.802 14.4443L150.374 15.8442L161.428 15.9024L160.616 19.3995L145.363 19.4216L148.606 5.84739ZM148.606 4.17926L163.763 4.19935H165.866L165.392 6.2383L164.708 9.1917L164.653 9.42886L164.559 9.83082L164.258 11.1312L164.235 11.2317L163.531 14.2534L163.059 16.2843L162.247 19.7804L161.946 21.0747H160.617L145.364 21.0968H143.243L143.734 19.0387L146.976 5.46151L147.278 4.17725L148.606 4.17926Z" fill="#1D1E1C"/>
<path fill-rule="evenodd" clip-rule="evenodd" d="M165.289 5.86816H179.605C179.979 5.86816 180.469 6.27012 180.377 6.6349L178.146 15.5574C178.114 15.6603 178.058 15.7542 177.983 15.8315C177.907 15.9088 177.815 15.9674 177.713 16.0026L175.96 16.5774L177.108 18.2586C177.238 18.4495 177.361 18.6987 177.303 18.9319L177.192 19.3801H171.872L170.294 16.5975C170.221 16.4685 170.118 16.3593 169.994 16.2794C169.869 16.1995 169.727 16.1514 169.579 16.1393L168.567 16.1161L169.454 12.4473L174.39 12.4573L175.184 9.53103L168.692 9.50993L166.307 19.3801H162.177L165.289 5.86816Z" fill="#DE1F27"/>
<path fill-rule="evenodd" clip-rule="evenodd" d="M165.29 5.86767H179.606C179.98 5.86767 180.469 6.26963 180.378 6.63441L178.147 15.5569C178.114 15.6598 178.058 15.7537 177.983 15.831C177.908 15.9083 177.816 15.9669 177.714 16.0021L175.961 16.5759L177.109 18.2581C177.238 18.449 177.362 18.6982 177.304 18.9314L177.192 19.3786H171.873L170.294 16.598C170.222 16.469 170.119 16.3598 169.994 16.2799C169.87 16.2 169.727 16.1519 169.58 16.1398L168.568 16.1157L169.454 12.4468L174.39 12.4568L175.184 9.53053L168.693 9.50843L166.308 19.3786H162.178L165.29 5.86767ZM165.29 4.1925H179.606C179.792 4.19394 179.977 4.21824 180.158 4.26485H180.164C180.618 4.38167 181.034 4.61593 181.37 4.94416V4.95019C181.586 5.15592 181.759 5.40263 181.878 5.67592C181.998 5.94922 182.062 6.24362 182.067 6.54196H182.061C182.061 6.70744 182.042 6.8724 182.004 7.03335V7.04039L179.773 15.9629C179.672 16.3505 179.471 16.7049 179.191 16.9909C179.012 17.1738 178.805 17.3277 178.579 17.4471C178.696 17.6323 178.792 17.8302 178.864 18.037C179.014 18.4528 179.037 18.9035 178.931 19.3323V19.3404L178.819 19.7876L178.502 21.0578H170.907L170.425 20.2066L169.057 17.7948L168.54 17.7828H168.416L167.936 19.7715L167.626 21.0547H160.08L160.552 19.0057L163.667 5.49485L163.968 4.18848L165.29 4.1925Z" fill="#1D1E1C"/>
<path fill-rule="evenodd" clip-rule="evenodd" d="M75.8031 12.8094H68.6681L68.7616 12.3763L69.3776 9.50024L69.4389 9.21585H69.7303L76.4794 9.25705H76.9316L76.8311 9.69519L76.1568 12.529L76.0885 12.8094H75.8031ZM69.1123 12.4506H75.8031L76.4784 9.6168L69.7293 9.5746L69.1123 12.4506ZM63.0828 19.4347L67.1025 19.4186L67.8381 16.211L78.0983 16.1446C78.4571 16.1446 78.8651 15.7638 78.9565 15.4101L81.2055 6.73073C81.312 6.32274 80.9372 5.8645 80.5252 5.8645H66.3849L63.0828 19.4347ZM63.538 19.0749L66.815 19.0629L67.4863 16.1316L67.5496 15.8552H67.835L78.0983 15.7859C78.2063 15.7719 78.3068 15.7233 78.3847 15.6472C78.4901 15.5629 78.5686 15.4498 78.6108 15.3216L80.8598 6.6423C80.8616 6.62425 80.8616 6.60608 80.8598 6.58803C80.8567 6.50787 80.8274 6.43093 80.7764 6.36896C80.7259 6.30278 80.6554 6.25454 80.5754 6.23129C80.557 6.22666 80.5381 6.22429 80.5192 6.22426H66.6663L63.538 19.0749Z" fill="white"/>
<path fill-rule="evenodd" clip-rule="evenodd" d="M76.9744 19.3644H82.3698L91.4 11.0599L90.3207 15.7247C89.4454 15.7247 89.3309 15.7417 88.4305 15.7337L84.5223 19.3514L93.6581 19.3654L96.8738 5.85352H90.9167L76.9744 19.3644ZM77.8587 19.0057H82.2311L91.1619 10.8006L92.014 10.0168L91.7527 11.1443L90.6694 15.8071L90.6051 16.0864H90.3207C89.8424 16.0864 89.6575 16.0864 89.4877 16.0915C89.2284 16.0915 88.9912 16.0985 88.5692 16.0915L85.4338 18.9936L93.3727 19.0067L96.4156 6.21126H91.0614L77.8587 19.0057Z" fill="white"/>
<path fill-rule="evenodd" clip-rule="evenodd" d="M95.1887 19.3648H99.4797L101.246 11.808L105.729 19.3648H110.452L113.675 5.8479L109.352 5.87704L107.59 12.8993L103.396 5.87704H98.4226L95.1887 19.3648ZM95.6429 19.0061H99.1953L100.898 11.7266L101.556 11.6261L105.935 19.0061H110.175L113.226 6.20766L109.634 6.22976L107.94 12.9837L107.286 13.0842L103.196 6.23579H98.6999L95.6429 19.0061Z" fill="white"/>
<path fill-rule="evenodd" clip-rule="evenodd" d="M129.74 6.20765H115.549L114.827 9.148L119.65 9.15503H120.103L120.003 9.59618L117.75 18.996L121.392 18.99L123.656 9.4776L123.721 9.20126H129.047L129.74 6.20765ZM115.269 5.8479H130.192L129.327 9.56001H124.001L121.67 19.3437L117.291 19.3518L119.65 9.50976L114.375 9.50574L115.269 5.8479Z" fill="white"/>
<path fill-rule="evenodd" clip-rule="evenodd" d="M135.58 6.20765H131.98L128.872 19.0814H132.552L133.846 14.4046L133.919 14.1434H134.191L140.466 14.1192H140.91L140.816 14.5544L139.838 19.0835H143.595L146.653 6.20966H142.906L141.761 10.9327L141.695 11.208H141.412L134.952 11.1819H134.51L134.602 10.7508L135.58 6.20765ZM131.699 5.8479H136.02L134.945 10.8151L141.404 10.8423L142.61 5.8479H147.096L143.883 19.4442H139.398L140.472 14.48L134.197 14.5041L132.827 19.4442H128.422L131.699 5.8479Z" fill="white"/>
<path fill-rule="evenodd" clip-rule="evenodd" d="M163.316 6.22675L148.895 6.20665L145.826 19.0694L160.34 19.0473L160.986 16.2637L150.378 16.2074H149.897L150.037 15.7482L150.465 14.3474L150.544 14.0931H150.808L161.483 14.1233L162.16 11.209L151.722 11.1709H151.278L151.372 10.7388L151.673 9.34998L151.735 9.0666H152.024L162.651 9.09775L163.316 6.22675ZM148.611 5.8479L163.767 5.869L162.934 9.45449L152.023 9.42233L151.721 10.8121L162.609 10.8513L161.768 14.476L150.807 14.4448L150.379 15.8447L161.433 15.9039L160.621 19.4L145.368 19.4221L148.611 5.8479Z" fill="white"/>
<path fill-rule="evenodd" clip-rule="evenodd" d="M179.606 6.22745H165.575L162.629 19.0198H166.029L168.347 9.42504L168.413 9.15071H168.695L175.186 9.17181H175.655L175.533 9.62201L174.738 12.5493L174.667 12.8136H174.393L169.738 12.8045L169.023 15.768L169.589 15.78C169.798 15.7877 170.001 15.8527 170.176 15.968C170.354 16.0821 170.501 16.2372 170.607 16.4202L172.084 19.0188H176.914L176.958 18.844C176.966 18.7933 176.959 18.7414 176.939 18.6943C176.908 18.6112 176.866 18.5325 176.814 18.4601L175.668 16.7779L175.398 16.384L175.853 16.2353L177.605 15.6595C177.655 15.6414 177.699 15.6122 177.735 15.574C177.765 15.5462 177.787 15.5118 177.801 15.4735L180.031 6.55103C180.018 6.49114 179.986 6.43731 179.939 6.39828C179.865 6.32466 179.774 6.27135 179.673 6.24353C179.652 6.23795 179.63 6.23524 179.608 6.23549M165.292 5.87573H179.608C179.982 5.87573 180.471 6.27769 180.38 6.64247L178.149 15.565C178.117 15.6679 178.061 15.7617 177.985 15.839C177.91 15.9163 177.818 15.975 177.716 16.0102L175.963 16.585L177.111 18.2662C177.241 18.4571 177.364 18.7063 177.306 18.9395L177.194 19.3876H171.875L170.297 16.6051C170.224 16.4761 170.121 16.3668 169.996 16.2869C169.872 16.207 169.73 16.1589 169.582 16.1468L168.57 16.1237L169.456 12.4548L174.393 12.4649L175.186 9.5386L168.695 9.5175L166.31 19.3876H162.18L165.292 5.87573Z" fill="white"/>
<path fill-rule="evenodd" clip-rule="evenodd" d="M59.8444 34.1628H74.7936L76.6125 26.7999C76.6728 26.5557 76.3994 26.2442 76.1502 26.2422L67.2175 26.1859L66.4899 29.3684L71.5145 29.3795L71.213 30.8687L64.5806 30.8255L66.0096 24.6956L77.0808 24.7358L77.729 22.2919C77.8817 21.7121 77.1029 21.074 76.513 21.074H63.9515C63.3154 21.074 62.5838 21.7131 62.4441 22.3422L59.8444 34.1628Z" fill="#DE1F27"/>
<path fill-rule="evenodd" clip-rule="evenodd" d="M74.7941 35.8287H57.7737L58.2189 33.8068L60.8217 21.9872C60.9704 21.3149 61.4055 20.6637 61.9572 20.1994C62.5089 19.7352 63.2365 19.4126 63.953 19.4126H76.5145C76.7434 19.4148 76.971 19.4462 77.1918 19.5061C77.73 19.6564 78.2206 19.9422 78.6168 20.3361C78.8623 20.5702 79.059 20.8506 79.1958 21.161C79.3325 21.4714 79.4066 21.8058 79.4137 22.1449C79.4125 22.339 79.3865 22.5322 79.3364 22.7197L78.6892 25.1636L78.3606 26.4037H78.2601C78.2787 26.5153 78.2878 26.6282 78.2872 26.7413V26.7484C78.2873 26.9011 78.2691 27.0532 78.233 27.2016L76.415 34.5645L76.1025 35.8317L74.7941 35.8287ZM59.8449 34.1646H74.7941L76.613 26.8016C76.6733 26.5574 76.4 26.2459 76.1508 26.2439L67.218 26.1876L66.4904 29.3702L71.515 29.3812L71.2136 30.8705L64.5811 30.8273L66.0101 24.6974L77.0813 24.7376L77.7295 22.2937C77.8822 21.7138 77.1034 21.0757 76.5135 21.0757H63.952C63.3159 21.0757 62.5843 21.7148 62.4446 22.3439L59.8449 34.1646Z" fill="#1D1E1C"/>
<path fill-rule="evenodd" clip-rule="evenodd" d="M76.2956 34.1643H91.4187L94.4776 21.0664H90.3806L89.2752 25.902L82.7733 25.9221L83.7903 21.0664H79.5043L77.6552 28.6172C77.5548 29.0292 78.0492 29.5005 78.4682 29.5016L88.2431 29.5216L87.9125 30.9697L77.0855 30.9416L76.2956 34.1643Z" fill="#DE1F27"/>
<path fill-rule="evenodd" clip-rule="evenodd" d="M91.4191 35.8258H74.1786L74.6811 33.7718L75.472 30.549L75.7865 29.2778H76.0579C76.0102 29.0968 75.9862 28.9103 75.9865 28.7231C75.9855 28.5539 76.0055 28.3851 76.0458 28.2207L77.8969 20.6739L78.2094 19.3997H85.8357L85.4167 21.4024L84.8188 24.2553L87.9521 24.2453L88.7671 20.694L89.0686 19.3997H96.5814L96.105 21.4416L93.038 34.5395L92.7365 35.8258H91.4191ZM76.296 34.1617H91.4191L94.4781 21.0638H90.381L89.2756 25.8994L82.7738 25.9195L83.7907 21.0638H79.5047L77.6557 28.6146C77.5552 29.0266 78.0496 29.4979 78.4687 29.4989L88.2435 29.519L87.9129 30.9671L77.0859 30.9389L76.296 34.1617Z" fill="#1D1E1C"/>
<path fill-rule="evenodd" clip-rule="evenodd" d="M93.0005 34.1625H97.2985L99.5636 24.7165H101.272L99.1777 34.1625H103.398L105.453 24.7315L107.302 24.7104L105.264 34.1625H109.591L112.386 21.4576C112.428 21.2727 112.222 21.0405 112.034 21.0405H97.5066C96.8162 21.0405 95.9097 21.5711 95.752 22.2524L93.0005 34.1625Z" fill="#DE1F27"/>
<path fill-rule="evenodd" clip-rule="evenodd" d="M97.3005 35.8277H90.9132L91.3835 33.7928L94.136 21.8827C94.3109 21.1219 94.8163 20.4899 95.4424 20.0568C96.0498 19.6345 96.7671 19.3985 97.5065 19.3774H112.038C112.173 19.3783 112.308 19.3935 112.44 19.4227H112.447C112.881 19.528 113.271 19.7687 113.56 20.11C113.873 20.4718 114.049 20.932 114.058 21.4104C114.058 21.5456 114.043 21.6803 114.013 21.8123V21.8183L111.222 34.5213L110.934 35.8277H97.3005ZM93.0024 34.1636H97.3005L99.5656 24.7175H101.274L99.1797 34.1636H103.4L105.455 24.7326L107.303 24.7115L105.265 34.1636H109.593L112.388 21.4586C112.43 21.2737 112.224 21.0416 112.036 21.0416H97.5085C96.8181 21.0416 95.9117 21.5721 95.7539 22.2535L93.0024 34.1636Z" fill="#1D1E1C"/>
<path fill-rule="evenodd" clip-rule="evenodd" d="M59.8444 34.1628H74.7946L76.6125 26.7999C76.6728 26.5557 76.3995 26.2432 76.1512 26.2422L67.2175 26.1859L66.4899 29.3684L71.5145 29.3805L71.213 30.8687L64.5806 30.8255L66.0096 24.6956L77.0808 24.7358L77.728 22.2919C77.8817 21.7131 77.1039 21.074 76.512 21.074H63.9505C63.3134 21.074 62.5828 21.7141 62.4431 22.3422L59.8444 34.1628ZM60.2875 33.8061H74.5152L76.2648 26.7225C76.2538 26.6947 76.2374 26.6694 76.2165 26.648C76.1956 26.6266 76.1707 26.6096 76.1432 26.5979L67.5009 26.5447L66.9361 29.0157L71.5135 29.0258H71.9497L71.8612 29.4508L71.5597 30.9401L71.5015 31.2265H71.21L64.5775 31.1833H64.1304L64.2308 30.7502L65.6598 24.6203L65.7242 24.3449H66.0065L76.8044 24.3851L77.3813 22.2065C77.3863 22.1865 77.3887 22.1659 77.3883 22.1452C77.3719 21.9957 77.3002 21.8577 77.1873 21.7583C77.0461 21.6159 76.8706 21.5121 76.6778 21.4568C76.6241 21.442 76.5687 21.4342 76.513 21.4337H63.9515C63.6896 21.4517 63.4416 21.558 63.248 21.7352C63.0282 21.9092 62.8686 22.1479 62.7918 22.4175L60.2875 33.8061Z" fill="white"/>
<path fill-rule="evenodd" clip-rule="evenodd" d="M76.2956 34.1643H91.4187L94.4776 21.0664H90.3806L89.2752 25.902L82.7733 25.9221L83.7893 21.0664H79.5043L77.6552 28.6172C77.5548 29.0292 78.0492 29.5005 78.4682 29.5016L88.2431 29.5216L87.9125 30.9697L77.0855 30.9416L76.2956 34.1643ZM76.7488 33.8076H91.1353L94.0264 21.4231H90.664L89.6178 25.9814L89.5535 26.2567H89.2701L82.7683 26.2778H82.3291L82.4196 25.8487L83.3461 21.4221H79.7837L77.9969 28.7006C77.9956 28.7096 77.9956 28.7188 77.9969 28.7278C78.0071 28.8154 78.0481 28.8966 78.1125 28.9569C78.1894 29.0433 78.2895 29.1057 78.4009 29.1368C78.4229 29.1423 78.4455 29.1453 78.4682 29.1458L88.2431 29.1669H88.6893L88.5888 29.601L88.2572 31.0501L88.1949 31.3265H87.9115L77.3598 31.2993L76.7488 33.8076Z" fill="white"/>
<path fill-rule="evenodd" clip-rule="evenodd" d="M93.0005 34.1625H97.2985L99.5636 24.7165H101.272L99.1777 34.1625H103.398L105.453 24.7315L107.303 24.7104L105.264 34.1625H109.59L112.386 21.4576C112.428 21.2727 112.222 21.0405 112.034 21.0405H97.5066C96.8162 21.0405 95.9097 21.5711 95.753 22.2524L93.0005 34.1625ZM93.4487 33.8058H97.0182L99.2179 24.63L99.2833 24.3567H101.718L101.618 24.7888L99.6199 33.8058H103.12L105.114 24.6562L105.174 24.3798H105.46L107.309 24.3597L107.753 24.3547L107.659 24.7888L105.714 33.8098H109.312L112.041 21.4154L112.028 21.4013H97.5066C97.1759 21.4155 96.8564 21.5255 96.5871 21.7178C96.3429 21.8856 96.1529 22.1047 96.0997 22.3358L93.4487 33.8058Z" fill="white"/>
<path d="M6.59344 31.426H7.22217L14.2231 12.8237L13.5154 12.8632L6.59344 31.426Z" stroke="#1D1E1C" stroke-width="0.129067" stroke-miterlimit="2.61"/>
<path fill-rule="evenodd" clip-rule="evenodd" d="M1.83081 36.0811L17.0141 36.0821L14.2653 37.9406L29.9174 37.9298L28.5297 21.2068L30.3576 32.2386L40.3107 35.1918L43.5777 29.9497L41.4152 31.1194L40.5209 30.7986V29.853L39.2891 30.1225L38.0761 29.3654L40.441 23.848L45.5656 22.1741L47.1369 23.6131L46.9484 25.5023L48.5661 23.8924L50.6576 18.8232L51.464 18.8024L51.2775 17.5923L50.5895 14.8455L41.6915 9.5699L40.7756 7.60377L26.0917 6.08969L17.2885 2.0686H15.6856L14.2455 2.57395L20.2387 10.5194L17.5639 8.7566L14.4173 10.5826L4.77015 26.2001L6.92284 27.1624L1.83081 36.0811Z" fill="#1D1E1C"/>
<path fill-rule="evenodd" clip-rule="evenodd" d="M43.0725 29.0104L45.6703 27.6049L45.8894 25.395L46.0257 24.0319L45.3041 23.3746L41.2238 24.7071L39.4126 28.9423L39.4827 28.9858L40.294 28.8091L41.5772 28.5278V29.8208L43.0725 29.0104ZM13.5409 37.1415H0L0.906083 35.5553L5.41774 27.6494L4.33202 27.1667L3.2236 26.6732L3.86122 25.6408L13.5133 10.0213L13.6554 9.79132L13.8844 9.65907L16.9264 7.8933L13.3958 3.21288L12.5193 2.05117L13.8952 1.56753L15.3343 1.06317L15.513 1H17.5097L17.7288 1.0987L26.3702 5.04675L40.8793 6.54307L41.4834 6.60525L41.738 7.15205L42.5158 8.82109L51.1276 13.9299L51.5115 14.1569L51.6191 14.5872L52.31 17.3351L52.3268 17.4338L52.5143 18.6429L52.6979 19.8362L51.4898 19.8668H51.3763L49.5483 24.2935L49.4654 24.4909L49.3154 24.6409L47.6977 26.2508L46.2102 27.7313L44.48 30.5117L41.2139 35.7527L40.7856 36.4436L40.0108 36.2137L30.6124 33.4244L30.9786 37.8432L31.0773 38.9921H29.9165L14.2644 39H10.7891L13.5409 37.1415ZM1.82993 36.0784H17.0122L14.2644 37.937L29.9165 37.9261L28.5248 21.2042L30.3528 32.236L40.3098 35.1891L43.5769 29.9471L41.4143 31.1177L40.5201 30.7959V29.8504L39.2883 30.1169L38.0752 29.3598L40.4441 23.8424L45.5687 22.1645L47.14 23.6036L46.9515 25.4927L48.5613 23.8898L50.6528 18.8205L51.4592 18.7998L51.2726 17.5897L50.5817 14.8429L41.6907 9.56727L40.7747 7.60114L26.0908 6.08707L17.2876 2.06597H15.6847L14.2446 2.57132L20.2339 10.5168L17.5591 8.75397L14.4134 10.5799L4.76927 26.1975L6.92196 27.1558L1.82993 36.0784Z" fill="#DE1F27"/>
<path fill-rule="evenodd" clip-rule="evenodd" d="M34.6112 27.2078L39.5453 21.0488L46.6114 18.604L18.588 3.47803L16.6327 4.4986L19.3036 4.23803L20.3468 5.08982L18.0086 6.45387L21.399 5.86166L22.5775 6.76281L19.496 8.46146L23.9613 7.888L37.5624 18.4925L33.3113 18.0325L34.6112 27.2078Z" fill="#3C3C3B"/>
<path fill-rule="evenodd" clip-rule="evenodd" d="M50.5369 18.1987L49.9851 15.3462L45.968 13.1274L48.1542 16.9274L50.5369 18.1987Z" fill="#3C3C3B"/>
<path d="M50.5369 18.1987L49.9851 15.3462L45.968 13.1274L48.1542 16.9274L50.5369 18.1987Z" stroke="#1D1E1C" stroke-width="0.129067" stroke-miterlimit="2.61"/>
<path fill-rule="evenodd" clip-rule="evenodd" d="M35.2384 25.3251L38.7088 20.4029L43.9084 18.5897L33.4006 12.8127L39.147 17.9482L37.2233 20.7523L35.4467 19.5294L35.2384 25.3251Z" fill="#71706F"/>
<path fill-rule="evenodd" clip-rule="evenodd" d="M40.177 8.12138L34.3378 7.56372L41.3565 10.8307L40.177 8.12138Z" fill="#71706F"/>
<path fill-rule="evenodd" clip-rule="evenodd" d="M39.7685 8.3621L37.7817 8.15088L40.4506 10.038L39.7685 8.3621Z" fill="white"/>
<path fill-rule="evenodd" clip-rule="evenodd" d="M50.0825 17.117L49.6808 15.4479L47.7867 14.3257L50.0825 17.117Z" fill="#71706F"/>
<path fill-rule="evenodd" clip-rule="evenodd" d="M27.2839 19.4116L24.8637 33.9878L21.0055 36.482L28.2285 36.409L27.2839 19.4116Z" fill="#71706F"/>
<path fill-rule="evenodd" clip-rule="evenodd" d="M21.0773 15.5622L17.5556 10.105L15.3634 11.4078L6.45854 25.6376L8.43258 26.4993L3.81531 34.7843L15.0673 34.9047L17.0749 33.9808L16.9209 17.6152L19.2947 26.8862L21.0773 15.5622ZM16.6801 13.1075L11.3897 33.7222L5.51002 33.743L9.8529 26.0729L8.07627 25.1638L15.9566 12.1155L17.4223 11.2904L18.8644 20.6068L16.6801 13.1075Z" fill="#71706F"/>
<path fill-rule="evenodd" clip-rule="evenodd" d="M22.9417 7.11182L20.9796 7.99815L23.7087 7.65073L22.9417 7.11182Z" fill="white"/>
<path fill-rule="evenodd" clip-rule="evenodd" d="M20.6405 5.34131L19.0988 6.03814L21.1083 5.66998L20.6405 5.34131Z" fill="white"/>
<path d="M17.7115 4.15536L19.0865 3.99843L18.7074 3.73193L17.7115 4.15536Z" fill="white"/>
<path fill-rule="evenodd" clip-rule="evenodd" d="M43.91 18.5918L37.4835 15.0593L43.0533 18.8899L43.91 18.5918Z" fill="white"/>
<path fill-rule="evenodd" clip-rule="evenodd" d="M23.7058 35.7094L27.3785 35.594L27.1367 25.9124L26.047 33.616L26.5159 34.4125L23.7058 35.7094Z" fill="#71706F"/>
<path fill-rule="evenodd" clip-rule="evenodd" d="M41.9002 19.2927L38.0419 16.9614L41.1086 19.5691L41.9002 19.2927Z" fill="white"/>
<path fill-rule="evenodd" clip-rule="evenodd" d="M47.3716 18.2913L29.0278 9.11206L46.5158 18.5903L47.3716 18.2913Z" fill="#DE1F27"/>
</svg>
