<svg width="24" height="24" viewBox="0 0 24 24" fill="none" xmlns="http://www.w3.org/2000/svg">
<path d="M22.25 8.358V16.5C22.2501 17.3301 21.9324 18.1288 21.3623 18.7322C20.7922 19.3356 20.0128 19.698 19.184 19.745L19 19.75H5.5C4.66986 19.7501 3.87117 19.4324 3.26777 18.8623C2.66437 18.2922 2.302 17.5128 2.255 16.684L2.25 16.5V8.358L11.902 13.414C12.0094 13.4702 12.1288 13.4996 12.25 13.4996C12.3712 13.4996 12.4906 13.4702 12.598 13.414L22.25 8.358ZM5.5 3.75H19C19.8056 3.7499 20.5825 4.049 21.18 4.58927C21.7776 5.12954 22.1532 5.87248 22.234 6.674L12.25 11.904L2.266 6.674C2.34352 5.90431 2.69305 5.18752 3.25175 4.65246C3.81045 4.11741 4.54168 3.79919 5.314 3.755L5.5 3.75H19H5.5Z" fill="#E7E7E7"/>
</svg>
