<svg width="30" height="30" viewBox="0 0 30 30" fill="none" xmlns="http://www.w3.org/2000/svg">
<path d="M1.79573 24.4357C1.35366 24.4357 1 24.7894 1 25.2315C1 25.6735 1.35366 26.0272 1.79573 26.0272H21.3943C21.0702 25.5556 20.7754 25.0252 20.4513 24.4062H1.79573V24.4357Z" fill="#424242"/>
<path d="M12.5532 15.5943C12.9363 16.2427 13.3784 16.7437 13.9973 16.95C15.2351 17.3626 17.0328 17.8636 17.1213 17.8931C17.2391 17.9226 17.3276 17.9521 17.4454 17.9521C17.9759 17.9521 18.4475 17.5984 18.5948 17.0679C18.7717 16.4195 18.3885 15.7712 17.7696 15.5649C17.7402 15.5649 16.0308 15.0638 14.8519 14.6807C14.6456 14.4449 14.2625 13.7376 14.0562 13.3545C13.4962 12.264 13.0542 11.4094 12.1995 11.2325L10.8438 10.9378C9.39969 10.5547 8.72184 10.4368 8.07347 10.9968C7.24826 11.7041 6.74725 16.2132 6.71777 19.013L12.17 18.512L12.5532 15.5943Z" fill="#E10A17"/>
<path d="M14.0643 7.91586C14.3992 6.42303 13.4606 4.94134 11.9677 4.60642C10.4749 4.2715 8.99321 5.21018 8.65829 6.70301C8.32337 8.19584 9.26204 9.67753 10.7549 10.0124C12.2477 10.3474 13.7294 9.40869 14.0643 7.91586Z" fill="#E10A17"/>
<path d="M28.9685 24.1066C28.7917 23.4582 28.1433 23.0751 27.495 23.2224C27.4066 23.2519 25.432 23.7235 24.3415 24.0182C24.0173 23.5172 23.5163 22.6035 23.1921 22.0141C22.3374 20.3932 21.8954 19.6269 21.3354 19.2733C21.0112 19.067 20.6281 18.9196 20.2155 18.9491L1.94309 20.5405C1.4126 20.5995 1 21.0416 1 21.572V22.2499C1 22.8393 1.47155 23.3109 2.06098 23.3109H21.1586C22.2196 25.2855 22.9269 26.5822 23.9878 26.5822C24.1352 26.5822 24.2531 26.5527 24.4005 26.5233C25.1078 26.317 28.0549 25.5802 28.0844 25.5802C28.7328 25.4033 29.1159 24.755 28.9685 24.1066Z" fill="#424242"/>
<path d="M25.9324 22.0172C27.4625 22.0172 28.7028 20.7769 28.7028 19.2469C28.7028 17.7169 27.4625 16.4766 25.9324 16.4766C24.4024 16.4766 23.1621 17.7169 23.1621 19.2469C23.1621 20.7769 24.4024 22.0172 25.9324 22.0172Z" fill="#424242"/>
</svg>
