<svg width="32" height="32" viewBox="0 0 32 32" fill="none" xmlns="http://www.w3.org/2000/svg">
<g clip-path="url(#clip0_3567_14372)">
<path d="M0 26.5885C0 29.5729 2.42792 32.0008 5.41233 32.0008H26.5877C29.5721 32.0008 32 29.5729 32 26.5885V11.2949H0V26.5885ZM10.6453 19.5446L13.7621 19.0918L15.156 16.2674C15.5007 15.5692 16.4992 15.5689 16.844 16.2674L18.2379 19.0918L21.3547 19.5446C22.1252 19.6565 22.4341 20.6063 21.8763 21.15L19.621 23.3484L20.1534 26.4527C20.2854 27.2226 19.4738 27.8054 18.7878 27.4449L16 25.9792L13.2122 27.4448C12.5232 27.8069 11.7149 27.2206 11.8466 26.4526L12.379 23.3484L10.1237 21.1499C9.56624 20.6066 9.87438 19.6565 10.6453 19.5446Z" fill="#424242"/>
<path d="M32 7.29319C32 4.30878 29.5721 1.88086 26.5877 1.88086H25.4118V4.39066C25.4118 4.91044 24.9904 5.33184 24.4706 5.33184C23.9508 5.33184 23.5294 4.91044 23.5294 4.39066V1.88086H8.47059V4.39066C8.47059 4.91044 8.04919 5.33184 7.52941 5.33184C7.00963 5.33184 6.58824 4.91044 6.58824 4.39066V1.88086H5.41233C2.42792 1.88086 0 4.30878 0 7.29319V9.41027H32V7.29319Z" fill="#E10A17"/>
<path d="M14.3175 23.177L14.0238 24.8893L15.5615 24.0808C15.8358 23.9367 16.1632 23.9367 16.4375 24.0808L17.9753 24.8893L17.6815 23.177C17.6292 22.8717 17.7304 22.5601 17.9522 22.3439L19.1963 21.1312L17.477 20.8814C17.1704 20.8369 16.9055 20.6444 16.7684 20.3666L15.9995 18.8086L15.2307 20.3665C15.0935 20.6443 14.8286 20.8368 14.522 20.8813L12.8027 21.1311L14.0468 22.3438C14.2686 22.5601 14.3699 22.8716 14.3175 23.177Z" fill="#E10A17"/>
<path d="M8.47024 0.941177C8.47024 0.421396 8.04885 0 7.52907 0C7.00929 0 6.58789 0.421396 6.58789 0.941177V1.88235H8.47024V0.941177Z" fill="#E10A17"/>
<path d="M25.4116 0.941177C25.4116 0.421396 24.9903 0 24.4705 0C23.9507 0 23.5293 0.421396 23.5293 0.941177V1.88235H25.4116V0.941177Z" fill="#E10A17"/>
</g>
<defs>
<clipPath id="clip0_3567_14372">
<rect width="32" height="32" fill="white"/>
</clipPath>
</defs>
</svg>
