<svg width="32" height="32" viewBox="0 0 32 32" fill="none" xmlns="http://www.w3.org/2000/svg">
<g clip-path="url(#clip0_3567_14353)">
<path d="M24.4489 6.08398H23.1699C22.867 6.08398 22.5978 6.35325 22.5978 6.65616V14.734H21.4534C20.6793 14.734 20.0398 15.3062 19.9388 16.0466L18.2896 15.811C18.1549 15.7774 18.0203 15.7101 17.953 15.6091C15.8662 12.5463 15.4287 12.378 14.7892 12.3443L12.7697 12.2097C12.3658 12.176 11.9956 12.176 8.96641 13.9599C8.32692 14.3301 7.82205 14.9023 7.45182 15.5418L6.13917 17.9988C5.83625 18.6046 6.0382 19.3451 6.64403 19.6817C6.81232 19.7826 7.01427 19.8163 7.21621 19.8163C7.65376 19.8163 8.09131 19.5807 8.32692 19.1431L9.63956 16.6525C9.77419 16.3832 9.97614 16.1813 10.2117 16.0466C10.3127 15.9793 10.38 15.9457 10.481 15.8784L9.60591 19.749C9.43762 20.5231 9.63956 21.3309 10.2117 21.8694L14.1833 25.841C14.217 25.8747 14.2507 25.9083 14.2507 25.9756L15.9672 30.9906C16.1691 31.5628 16.7077 31.9331 17.3135 31.9331C17.4818 31.9331 17.6164 31.8994 17.7847 31.8657C18.5252 31.5965 18.9291 30.7887 18.6598 30.0482L16.9433 25.0669C16.775 24.6293 16.5057 24.1918 16.2028 23.8552L13.9814 21.6338L15.597 16.5515C15.6979 16.6861 15.7989 16.8208 15.8999 16.9891C16.3711 17.6622 17.1116 18.1334 17.9193 18.268L19.9051 18.571V18.8739C19.9051 19.7153 20.612 20.4221 21.4534 20.4221H22.5978V31.4282C22.5978 31.7311 22.867 32.0004 23.1699 32.0004H24.4489C24.7518 32.0004 25.0211 31.7311 25.0211 31.4282V6.65616C25.0211 6.31959 24.7518 6.08398 24.4489 6.08398ZM21.4534 19.1431C21.2851 19.1431 21.1505 19.0085 21.1505 18.8402V18.5037C21.4871 18.3354 21.7563 17.9988 21.8236 17.5612C21.8909 17.0227 21.6217 16.5179 21.1505 16.2822C21.1505 16.114 21.2851 15.9793 21.4534 15.9793H22.5978V19.1768H21.4534V19.1431Z" fill="#424242"/>
<path d="M7.8553 30.0141C7.58604 30.7546 7.95628 31.5623 8.69674 31.8316C8.86503 31.8989 9.03332 31.9326 9.20161 31.9326C9.77379 31.9326 10.3123 31.5623 10.5479 30.9902L12.4664 25.8405L10.245 23.6191L7.8553 30.0141Z" fill="#424242"/>
<path d="M16.8699 9.10165C17.0348 7.58638 15.9401 6.22431 14.4249 6.05938C12.9096 5.89446 11.5475 6.98913 11.3826 8.5044C11.2177 10.0197 12.3124 11.3817 13.8276 11.5467C15.3429 11.7116 16.705 10.6169 16.8699 9.10165Z" fill="#424242"/>
<path d="M13.6105 3.82856H19.1977L18.3562 4.67C18.0533 4.97292 18.0533 5.47778 18.3562 5.81436C18.5245 5.98265 18.7265 6.04996 18.9284 6.04996C19.1304 6.04996 19.3323 5.98265 19.5006 5.81436L21.722 3.59295C22.0249 3.29003 22.0249 2.78517 21.722 2.44859L19.5006 0.227189C19.1977 -0.0757297 18.6928 -0.0757297 18.3562 0.227189C18.0533 0.530108 18.0533 1.03497 18.3562 1.37155L19.1977 2.21299H13.6105C13.173 2.21299 12.8027 2.58322 12.8027 3.02077C12.8027 3.45832 13.173 3.82856 13.6105 3.82856Z" fill="#E10A17"/>
</g>
<defs>
<clipPath id="clip0_3567_14353">
<rect width="32" height="32" fill="white"/>
</clipPath>
</defs>
</svg>
