<svg width="32" height="32" viewBox="0 0 32 32" fill="none" xmlns="http://www.w3.org/2000/svg">
<path d="M1.10297 14.4851H2.28423V18.1651H1.10297C0.493597 18.1651 0 17.6681 0 17.0588V15.5882C0 14.9787 0.493597 14.4851 1.10297 14.4851ZM32 15.5881V17.0587C32 17.6681 31.5064 18.1651 30.897 18.1651H29.7124V14.4851H30.897C31.5064 14.4851 32 14.9787 32 15.5881ZM9.96087 8.51062V24.1362C9.96097 24.2032 9.94782 24.2697 9.9222 24.3317C9.89657 24.3937 9.85896 24.45 9.81153 24.4974C9.76409 24.5449 9.70776 24.5825 9.64577 24.6081C9.58377 24.6337 9.51733 24.6469 9.45025 24.6468H7.60512C6.6928 24.6468 5.95064 23.9047 5.95064 22.9923V21.2731H4.61612C3.70717 21.2731 2.96506 20.531 2.96506 19.6186V13.0281C2.96506 12.1158 3.70717 11.3737 4.61612 11.3737H5.95064V9.65448C5.95064 8.74217 6.69274 8 7.60512 8H9.45025C9.51733 7.99992 9.58377 8.01307 9.64576 8.0387C9.70775 8.06433 9.76407 8.10194 9.81151 8.14937C9.85894 8.1968 9.89655 8.25313 9.92218 8.31512C9.94781 8.37711 9.96096 8.44354 9.96087 8.51062ZM29.0315 13.0281V19.6188C29.0315 20.5311 28.2928 21.2733 27.3805 21.2733H26.046V22.9924C26.046 23.9047 25.3039 24.6469 24.3915 24.6469H22.5464C22.2673 24.6469 22.0358 24.4188 22.0358 24.1363V8.51062C22.0358 8.22806 22.2673 8 22.5464 8H24.3915C25.3038 8 26.046 8.7421 26.046 9.65448V11.3737H27.3805C28.2928 11.3737 29.0315 12.1158 29.0315 13.0281Z" fill="#424242"/>
<path d="M10.6426 14.4863H21.3558V18.1663H10.6426V14.4863Z" fill="#E10A17"/>
</svg>
