<svg width="32" height="32" viewBox="0 0 32 32" fill="none" xmlns="http://www.w3.org/2000/svg">
<path d="M28.7642 11.4872C28.5622 12.1607 28.0907 13.2384 27.5855 14.3497C27.8886 15.1243 27.855 16.1346 27.2825 17.246C27.1477 17.5154 26.9794 17.7848 26.7773 18.0542C26.2721 18.7614 25.5649 19.5023 24.824 20.3442C24.7567 20.4116 24.723 20.4453 24.6556 20.5126C24.4536 20.7147 24.1505 20.7821 23.9147 20.6137C23.6117 20.4116 23.578 20.0412 23.8137 19.7717C23.8811 19.7044 23.9484 19.637 23.9821 19.5697C24.9587 18.492 25.9017 17.4817 26.3058 16.7071C27.0467 15.259 26.5416 14.316 25.8343 13.8782C25.2618 13.5415 24.4536 13.5415 24.0158 14.1813C23.3759 15.1243 22.5003 16.1346 21.6584 17.0776C20.6817 18.1889 19.7051 19.3676 19.1663 20.2769C18.5601 21.3209 17.7518 23.7793 17.6171 26.3388C17.5498 27.5848 17.5161 29.0329 17.4824 29.9085C17.4824 30.3463 17.8192 30.7168 18.2907 30.7168H23.3759C23.8137 30.7168 24.1505 30.3463 24.1505 29.9422V28.4941C24.1505 28.1573 24.3189 27.8206 24.5883 27.6185C26.4068 26.3724 28.0907 24.857 29.0673 23.7456C31.1553 21.3209 31.8962 14.1477 31.9972 12.026C32.0983 10.0054 29.3704 9.50022 28.7642 11.4872Z" fill="#424242"/>
<path d="M12.8337 20.347C12.2612 19.4041 11.3182 18.259 10.3416 17.1477C9.49967 16.2047 8.62407 15.1944 7.9842 14.2515C7.5464 13.5779 6.73815 13.5779 6.16564 13.9484C5.45842 14.3525 4.95327 15.3291 5.69416 16.7772C6.09829 17.5518 7.04125 18.5621 8.01788 19.6398C8.08524 19.7071 8.15259 19.7745 8.18627 19.8419C8.42201 20.0776 8.35465 20.4817 8.08524 20.6838C7.8495 20.8185 7.5464 20.7848 7.34434 20.5828C7.27699 20.5154 7.24331 20.4817 7.17595 20.4144C6.43506 19.5388 5.72784 18.7642 5.22268 18.0906C5.02062 17.8212 4.85224 17.5181 4.71753 17.2824C4.14502 16.1711 4.11134 15.1607 4.41443 14.3862C3.90928 13.2411 3.4378 12.1972 3.23574 11.5236C2.62955 9.53667 -0.0982962 10.0418 0.00273507 12.1635C0.103766 14.2851 0.878339 21.4584 2.93264 23.8831C3.8756 24.9945 5.59313 26.4762 7.41169 27.756C7.68111 27.958 7.8495 28.2611 7.8495 28.6316V30.0797C7.8495 30.5175 8.21994 30.8543 8.62407 30.8543H13.7093C14.1471 30.8543 14.5176 30.4838 14.4839 30.046C14.4502 29.1704 14.4165 27.7223 14.3492 26.4762C14.2481 23.8494 13.4736 21.391 12.8337 20.347Z" fill="#424242"/>
<path d="M14.3468 14.1491C13.1344 12.903 11.3495 10.613 11.3495 7.85148C11.3495 7.17794 11.4506 6.57175 11.6189 5.96556C10.1708 5.42673 8.65536 5.35938 7.77975 5.35938C7.34195 5.35938 7.00518 5.69615 7.00518 6.13395C6.9715 7.48103 7.17356 10.3773 8.95845 12.1621C10.5076 13.745 12.865 14.1154 14.3468 14.1491Z" fill="#E10A17"/>
<path d="M17.6504 14.1486C19.1322 14.0813 21.5233 13.7445 23.0387 12.1954C24.8236 10.4105 25.0257 7.51424 24.992 6.16715C24.992 5.72935 24.6552 5.39258 24.2174 5.39258C23.3418 5.39258 21.8263 5.45993 20.3782 5.99877C20.5466 6.60495 20.6477 7.21114 20.6477 7.88468C20.6477 10.6125 18.8628 12.9026 17.6504 14.1486Z" fill="#E10A17"/>
<path d="M16.5408 2.22732C16.2377 1.92423 15.7325 1.92423 15.4294 2.22732C14.4528 3.17028 12.5332 5.35929 12.5332 7.88507C12.5332 10.4109 14.4528 12.5999 15.4294 13.5428C15.7325 13.8459 16.2377 13.8459 16.5408 13.5428C17.5174 12.5999 19.437 10.4109 19.437 7.88507C19.437 5.32561 17.5174 3.17028 16.5408 2.22732Z" fill="#E10A17"/>
</svg>
