<svg width="32" height="32" viewBox="0 0 32 32" fill="none" xmlns="http://www.w3.org/2000/svg">
<path d="M24.1583 29.0687V30.7361C24.1592 30.902 24.1272 31.0665 24.0642 31.22C24.0012 31.3735 23.9084 31.5131 23.7912 31.6305C23.6741 31.748 23.5348 31.8412 23.3814 31.9046C23.2281 31.968 23.0637 32.0004 22.8978 31.9999H11.8732C11.7073 31.9999 11.5429 31.9672 11.3896 31.9037C11.2362 31.8402 11.0969 31.7471 10.9795 31.6298C10.8622 31.5124 10.7691 31.3731 10.7056 31.2197C10.6421 31.0664 10.6094 30.9021 10.6094 30.7361V22.9629C10.7154 23.0052 10.8287 23.0267 10.9428 23.0262H23.8315C23.9451 23.0268 24.0579 23.0076 24.1649 22.9696V24.6169H23.9849H16.2283C15.6377 24.6195 15.072 24.8548 14.6537 25.2718C14.2355 25.6888 13.9985 26.2539 13.9941 26.8445C13.9959 27.4371 14.2323 28.0049 14.6516 28.4236C15.071 28.8423 15.6391 29.0779 16.2317 29.0787H23.9749L24.1583 29.0687Z" fill="#424242"/>
<path d="M14.6602 26.8455C14.6602 26.4286 14.8255 26.0288 15.12 25.7337C15.4144 25.4386 15.8139 25.2724 16.2308 25.2715H23.9706C24.1772 25.271 24.3818 25.3114 24.5727 25.3901C24.7637 25.4688 24.9372 25.5844 25.0834 25.7303C25.2296 25.8762 25.3456 26.0495 25.4247 26.2403C25.5039 26.4311 25.5446 26.6356 25.5446 26.8421C25.5446 27.2587 25.3791 27.6582 25.0846 27.9527C24.79 28.2473 24.3905 28.4128 23.974 28.4128H16.2275C15.8123 28.411 15.4147 28.2453 15.1211 27.9518C14.8276 27.6582 14.6619 27.2606 14.6602 26.8455Z" fill="#424242"/>
<path d="M24.051 1.98767C21.7167 0.156916 17.715 -0.476678 13.8635 0.370337C10.9223 1.03728 8.73136 2.37116 7.861 4.0952C7.83432 4.14856 7.80765 4.20191 7.7843 4.2586C7.33746 5.30962 7.17308 6.45917 7.30744 7.5933C6.6233 7.86197 6.00812 8.28065 5.50718 8.81852C5.00625 9.35639 4.63232 9.99975 4.41292 10.7012C3.76932 12.8921 3.76599 16.1201 5.21658 18.3711C6.10361 19.7583 7.49418 20.4986 8.96479 21.2823C9.55503 21.5957 10.1619 21.9192 10.7689 22.2827C10.8219 22.3156 10.8832 22.3329 10.9456 22.3327H23.8342C23.9109 22.3347 23.9859 22.3103 24.0466 22.2636C24.1073 22.2168 24.1501 22.1505 24.1677 22.0759C24.4411 20.9354 24.7913 19.7416 25.1681 18.4578C26.0918 15.2765 27.0822 11.8684 27.0822 8.81047C27.0589 6.14271 26.2952 3.72838 24.051 1.98767ZM24.7579 11.8017C24.7437 11.8794 24.7024 11.9495 24.6414 11.9996C24.5803 12.0497 24.5034 12.0764 24.4245 12.0751H24.3678C24.3218 12.0675 24.2779 12.0502 24.239 12.0245C24.2 11.9988 24.1669 11.9653 24.1418 11.926C24.1167 11.8867 24.1 11.8426 24.093 11.7965C24.086 11.7504 24.0887 11.7033 24.101 11.6583C24.7679 7.79339 24.2744 5.52245 22.407 4.06185C21.2498 3.17149 19.3791 2.65461 17.2782 2.65461C17.1898 2.65461 17.1049 2.61947 17.0424 2.55694C16.9799 2.4944 16.9447 2.40958 16.9447 2.32114C16.9447 2.2327 16.9799 2.14788 17.0424 2.08534C17.1049 2.0228 17.1898 1.98767 17.2782 1.98767C19.5258 1.98767 21.5433 2.5579 22.8171 3.55164C24.8813 5.1623 25.4782 7.70335 24.7579 11.7884V11.8017Z" fill="#E10A17"/>
</svg>
