<svg width="32" height="32" viewBox="0 0 32 32" fill="none" xmlns="http://www.w3.org/2000/svg">
<g clip-path="url(#clip0_3567_14383)">
<path d="M16.877 13.6535L17.5506 11.8684C17.6854 11.4979 17.4159 11.0938 17.0117 11.0938H4.41483C2.39394 11.0938 0.743541 12.6094 0.507771 14.5966L0.00254757 19.3794C-0.031134 19.8509 0.272 20.2888 0.743541 20.3899C1.24876 20.4909 1.95608 20.5919 2.66339 20.6593L3.10125 28.2713C3.13493 28.9113 3.67383 29.4165 4.31378 29.4165H7.98507C8.62502 29.4165 9.16392 28.9113 9.19761 28.2713L9.83755 15.2029C9.83755 14.5629 10.3765 14.024 11.0164 14.024H16.3381C16.5739 14.0577 16.8096 13.8893 16.877 13.6535Z" fill="#E10A17"/>
<path d="M6.1331 10.0162C8.34672 10.0162 10.1412 8.22172 10.1412 6.0081C10.1412 3.79449 8.34672 2 6.1331 2C3.91949 2 2.125 3.79449 2.125 6.0081C2.125 8.22172 3.91949 10.0162 6.1331 10.0162Z" fill="#E10A17"/>
<path d="M30.6193 17.1562H14.2501C13.4754 17.1562 12.8691 17.7962 12.8691 18.5372V28.0017C12.8691 28.7764 13.5091 29.3826 14.2501 29.3826H30.6193C31.394 29.3826 32.0002 28.7427 32.0002 28.0017V18.5709C32.0002 17.7962 31.3603 17.1562 30.6193 17.1562ZM22.0642 22.8147L20.7169 23.9599C20.5822 24.061 20.5485 24.2294 20.5822 24.3978L20.9864 26.1155C21.0874 26.486 20.6833 26.7892 20.3464 26.5871L18.8308 25.6777C18.696 25.6103 18.5276 25.6103 18.3929 25.6777L16.8772 26.5871C16.5404 26.7892 16.1362 26.486 16.2373 26.1155L16.6415 24.3978C16.6752 24.2294 16.6415 24.0946 16.5067 23.9599L15.1595 22.8147C14.8564 22.579 15.0248 22.1074 15.3953 22.0738L17.1467 21.939C17.3151 21.939 17.4498 21.838 17.5172 21.6696L18.1908 20.0529C18.3255 19.716 18.8308 19.716 18.9655 20.0529L19.6391 21.6696C19.7065 21.8043 19.8412 21.9053 20.0096 21.939L21.7611 22.0738C22.1989 22.1074 22.3673 22.579 22.0642 22.8147ZM28.9689 26.8902H24.1188C23.8156 26.8902 23.5799 26.6544 23.5799 26.3513C23.5799 26.0482 23.8156 25.8124 24.1188 25.8124H28.9689C29.272 25.8124 29.5078 26.0482 29.5078 26.3513C29.5078 26.6544 29.272 26.8902 28.9689 26.8902ZM28.9689 23.8252H24.1188C23.8156 23.8252 23.5799 23.5894 23.5799 23.2863C23.5799 22.9832 23.8156 22.7474 24.1188 22.7474H28.9689C29.272 22.7474 29.5078 22.9832 29.5078 23.2863C29.5415 23.5894 29.272 23.8252 28.9689 23.8252ZM28.9689 20.7939H24.1188C23.8156 20.7939 23.5799 20.5581 23.5799 20.255C23.5799 19.9518 23.8156 19.716 24.1188 19.716H28.9689C29.272 19.716 29.5078 19.9518 29.5078 20.255C29.5415 20.5244 29.272 20.7939 28.9689 20.7939Z" fill="#424242"/>
</g>
<defs>
<clipPath id="clip0_3567_14383">
<rect width="32" height="32" fill="white"/>
</clipPath>
</defs>
</svg>
