<svg width="153" height="111" viewBox="0 0 153 111" fill="none" xmlns="http://www.w3.org/2000/svg">
<g style="mix-blend-mode:lighten" opacity="0.2">
<path d="M19.1289 88.2834H20.9559L41.2676 34.3047L39.2141 34.4194L19.1289 88.2834Z" stroke="#1D1E1C" stroke-width="1.32" stroke-miterlimit="2.61"/>
<path fill-rule="evenodd" clip-rule="evenodd" d="M5.30957 101.784L49.3619 101.785L41.3861 107.178L86.8035 107.147L82.7789 58.6244L88.0818 90.6336L116.962 99.2022L126.44 83.9934L120.166 87.3885L117.57 86.4559V83.711L113.997 84.4921L110.478 82.2959L117.34 66.2869L132.211 61.4311L136.768 65.6043L136.222 71.0868L140.916 66.4149L146.983 51.7077L149.326 51.6459L148.783 48.1376L146.785 40.1661L120.968 24.8588L118.31 19.1542L75.7033 14.7603L50.1607 3.09375H45.5079L41.3317 4.55888L58.7219 27.6125L50.9594 22.4978L41.8303 27.795L13.8385 73.1124L20.0829 75.9029L5.30957 101.784Z" fill="#1D1E1C"/>
<path fill-rule="evenodd" clip-rule="evenodd" d="M124.983 81.2748L132.519 77.1957L133.157 70.785L133.55 66.8295L131.469 64.9171L119.63 68.7844L114.364 81.0733L114.567 81.1998L116.92 80.6849L120.652 79.8685V83.6122L124.983 81.2748ZM39.2892 104.867H0L2.62722 100.264L15.7192 77.3295L12.5845 75.9291L9.36151 74.489L11.2179 71.4911L39.2098 26.1752L39.6202 25.5103L40.2836 25.1249L49.1097 20.0013L38.8685 6.41949L36.3251 3.04793L40.3175 1.64753L44.4937 0.176521L45.01 0H50.8072L51.4412 0.294202L76.5161 11.7416L118.625 16.084L120.376 16.2635L121.111 17.8478L123.365 22.6933L148.357 37.5108L149.469 38.1698L149.783 39.4187L151.78 47.3915L151.829 47.6681L152.372 51.1779L152.906 54.6377L149.402 54.7216L149.072 54.7304L143.777 67.5826L143.538 68.1622L143.097 68.6035L138.403 73.2754L134.09 77.5678L129.068 85.626L119.592 100.835L118.341 102.824L116.094 102.156L88.8225 94.0652L89.8861 106.887L90.1626 110.22H86.8043L41.3869 110.251L31.3031 110.258L39.2892 104.867ZM5.30888 101.778H49.3627L41.3869 107.178L86.8043 107.147L82.7796 58.6242L88.0753 90.6333L116.956 99.202L126.441 83.9947L120.167 87.3898L117.57 86.4571V83.7108L113.997 84.4919L110.479 82.2957L117.341 66.2867L132.211 61.4323L136.772 65.6056L136.226 71.088L140.92 66.4161L146.986 51.706L149.33 51.6442L148.787 48.1359L146.789 40.1645L120.969 24.8601L118.31 19.1555L75.7041 14.7601L50.1615 3.08912H45.5086L41.3324 4.56013L58.7227 27.6123L50.9602 22.4976L41.8311 27.7933L13.8393 73.1092L20.0837 75.9041L5.30888 101.778Z" fill="white"/>
<path fill-rule="evenodd" clip-rule="evenodd" d="M124.957 81.2829L132.495 77.2023L133.133 70.7917L133.526 66.8376L131.444 64.9297L119.606 68.7955L114.338 81.0858L114.542 81.2123L116.897 80.6974L120.629 79.881L120.631 83.6248L124.957 81.2829Z" fill="#1D1E1C"/>
<path fill-rule="evenodd" clip-rule="evenodd" d="M100.424 76.045L114.743 58.1737L135.246 51.079L53.9325 7.19141L48.2588 10.1525L56.0095 9.39498L59.0369 11.8648L52.2526 15.8233L62.0878 14.1066L65.5093 16.7206L56.5671 21.65L69.5222 19.9863L108.988 50.7568L96.655 49.4212L100.424 76.045Z" fill="#DE1F27"/>
<path fill-rule="evenodd" clip-rule="evenodd" d="M146.637 49.9035L145.036 41.6276L133.38 35.1875L139.721 46.2142L146.637 49.9035Z" fill="#3C3C3B"/>
<path d="M146.637 49.9035L145.036 41.6276L133.38 35.1875L139.721 46.2142L146.637 49.9035Z" fill="#71706F"/>
<path fill-rule="evenodd" clip-rule="evenodd" d="M102.246 70.5873L112.315 56.3052L127.406 51.0434L96.9121 34.2812L113.587 49.1826L108.005 57.3187L102.851 53.7692L102.246 70.5873Z" fill="#71706F"/>
<path fill-rule="evenodd" clip-rule="evenodd" d="M116.576 20.665L99.6318 19.0469L119.998 28.5261L116.576 20.665Z" fill="#DE1F27"/>
<path fill-rule="evenodd" clip-rule="evenodd" d="M115.393 21.3673L109.625 20.7539L117.373 26.2275L115.393 21.3673Z" fill="white"/>
<path fill-rule="evenodd" clip-rule="evenodd" d="M145.319 46.7634L144.154 41.9223L138.658 38.6641L145.319 46.7634Z" fill="#DE1F27"/>
<path fill-rule="evenodd" clip-rule="evenodd" d="M79.1652 53.4258L72.1456 95.7173L60.9512 102.956L81.9101 102.743L79.1652 53.4258Z" fill="#DE1F27"/>
<path fill-rule="evenodd" clip-rule="evenodd" d="M61.1601 42.2465L50.9409 26.4141L44.5788 30.1916L18.7405 71.4814L24.4613 73.9821L11.0692 98.0228L43.7139 98.3729L49.545 95.6913L49.0978 48.2056L55.985 75.106L61.1601 42.2465Z" fill="#DE1F27"/>
<path fill-rule="evenodd" clip-rule="evenodd" d="M48.4034 35.1237L33.052 94.9394L15.9941 95.0011L28.5875 72.7448L23.4301 70.1058L46.2955 32.2464L50.5482 29.8516L54.7317 56.8814L48.4034 35.1237Z" fill="#71706F"/>
<path fill-rule="evenodd" clip-rule="evenodd" d="M66.5644 17.7344L60.873 20.3086L68.7915 19.2995L66.5644 17.7344Z" fill="white"/>
<path fill-rule="evenodd" clip-rule="evenodd" d="M59.8913 12.5938L55.418 14.6164L61.2461 13.547L59.8913 12.5938Z" fill="white"/>
<path fill-rule="evenodd" clip-rule="evenodd" d="M54.2807 7.92969L51.3887 9.15945L55.3795 8.70344L54.2807 7.92969Z" fill="white"/>
<path fill-rule="evenodd" clip-rule="evenodd" d="M127.406 51.043L108.761 40.793L124.92 51.9094L127.406 51.043Z" fill="white"/>
<path fill-rule="evenodd" clip-rule="evenodd" d="M68.7861 100.705L79.4436 100.369L78.739 72.2773L75.5793 94.6308L76.9399 96.9403L68.7861 100.705Z" fill="#71706F"/>
<path fill-rule="evenodd" clip-rule="evenodd" d="M121.572 53.0752L110.378 46.3086L119.278 53.8755L121.572 53.0752Z" fill="white"/>
<path fill-rule="evenodd" clip-rule="evenodd" d="M137.451 50.1746L84.2236 23.5391L134.966 51.0411L137.451 50.1746Z" fill="#71706F"/>
</g>
</svg>
