<svg width="24" height="24" viewBox="0 0 24 24" fill="none" xmlns="http://www.w3.org/2000/svg">
<path d="M10.9982 5.54337C10.6879 4.92315 10.0395 4.42149 9.243 4.51021C8.53049 4.58938 7.47266 4.85433 6.7514 5.72319C6.01104 6.61552 5.73495 8.00712 6.30344 10.0921C6.91053 12.3164 7.81201 14.5092 8.9327 16.2784C10.045 18.0348 11.4151 19.4407 12.987 19.9798C14.377 20.4564 15.44 20.2575 16.2154 19.7339C16.9633 19.2291 17.3738 18.4696 17.5863 17.9437C17.8242 17.3549 17.6674 16.7419 17.3571 16.2899L16.2126 14.6254C15.9597 14.2576 15.5957 13.9805 15.1739 13.8346C14.752 13.6888 14.2946 13.6819 13.8686 13.815L12.2868 14.3095C12.2368 14.3267 12.1829 14.3287 12.1318 14.3155C12.0807 14.3023 12.0346 14.2743 11.9992 14.2351C11.295 13.4104 10.5061 12.2603 10.2917 11.0963C10.2849 11.0652 10.2896 11.0327 10.3048 11.0048C10.5375 10.6137 10.9378 10.1705 11.3364 9.78264C12.0115 9.12542 12.2673 8.08072 11.8217 7.19038L10.9982 5.54337V5.54337Z" fill="#E7E7E7"/>
</svg>
