<svg width="15" height="18" viewBox="0 0 15 18" fill="none" xmlns="http://www.w3.org/2000/svg">
<mask id="mask0_3647_21041" style="mask-type:alpha" maskUnits="userSpaceOnUse" x="0" y="0" width="15" height="18">
<rect x="15" y="18" width="14.0269" height="18" transform="rotate(-180 15 18)" fill="#222222"/>
</mask>
<g mask="url(#mask0_3647_21041)">
<path d="M4.9318 13.3935C4.59057 13.7735 4.59057 14.3496 4.9318 14.7297L4.97058 14.7728C5.36793 15.2154 6.06139 15.2154 6.45874 14.7728L11.0408 9.66965C11.382 9.28962 11.382 8.71351 11.0408 8.33347L6.45874 3.23028C6.06139 2.78773 5.36793 2.78773 4.97058 3.23028L4.9318 3.27347C4.59057 3.65351 4.59057 4.22962 4.9318 4.60965L8.27531 8.33347C8.61654 8.71351 8.61654 9.28961 8.27531 9.66965L4.9318 13.3935Z" fill="#131313"/>
</g>
</svg>
