<svg width="16" height="17" viewBox="0 0 16 17" fill="none" xmlns="http://www.w3.org/2000/svg">
<g clip-path="url(#clip0_3362_11519)">
<path d="M5.24446 15.2794C4.4879 15.7358 3.55453 15.0586 3.75365 14.1978L4.45385 11.1708C4.53733 10.8099 4.4145 10.4325 4.13464 10.1898L1.78504 8.15279C1.11751 7.57406 1.47346 6.47736 2.35362 6.40096L5.46309 6.13104C5.83227 6.09899 6.15346 5.86542 6.29773 5.52409L7.5 2.67941C7.84415 1.86515 8.99808 1.86515 9.34223 2.67941L10.5445 5.52409C10.6888 5.86542 11.01 6.09899 11.3791 6.13104L14.4886 6.40096C15.3688 6.47736 15.7247 7.57406 15.0572 8.15279L12.7076 10.1898C12.4277 10.4325 12.3049 10.8099 12.3884 11.1708L13.0886 14.1978C13.2877 15.0586 12.3543 15.7358 11.5978 15.2794L8.93765 13.6748C8.61996 13.4831 8.22227 13.4831 7.90458 13.6748L5.24446 15.2794Z" fill="#F9C234"/>
</g>
<defs>
<clipPath id="clip0_3362_11519">
<rect width="16" height="16" fill="white" transform="translate(0 0.5)"/>
</clipPath>
</defs>
</svg>
