<svg width="30" height="30" viewBox="0 0 30 30" fill="none" xmlns="http://www.w3.org/2000/svg">
<g clip-path="url(#clip0_3362_12345)">
<path fill-rule="evenodd" clip-rule="evenodd" d="M22.2287 30.0013H7.76501C7.0176 30.0013 6.374 29.5446 6.12487 28.8387L2.79615 19.3992C2.63698 18.9633 2.66466 18.4858 2.86535 18.0705C3.06604 17.6484 3.41898 17.33 3.85497 17.1778C4.04182 17.1086 4.23559 17.074 4.43629 17.074C5.16985 17.074 5.83421 17.5446 6.08334 18.2366L9.00376 26.5134H20.9968L23.9173 18.2366C24.1664 17.5446 24.8238 17.074 25.5643 17.074C25.765 17.074 25.9588 17.1086 26.1456 17.1778C26.5816 17.33 26.9346 17.6484 27.1352 18.0705C27.3359 18.4858 27.3636 18.9633 27.2045 19.3992L23.8757 28.8387C23.6266 29.5446 22.983 30.0013 22.2287 30.0013Z" fill="#E10A17"/>
<path fill-rule="evenodd" clip-rule="evenodd" d="M6.97608 19.3785C9.77884 18.7764 13.9449 18.2159 15.7373 19.6069C16.8584 20.4788 19.3775 20.7072 22.7131 20.2574L20.6647 26.0498H9.33594L6.97608 19.3785ZM21.8619 16.6103C21.7719 16.6103 21.6889 16.5826 21.6128 16.5273C16.9346 12.9909 19.5782 8.465 19.765 8.15358C21.7788 4.49268 19.7788 0.644927 19.7581 0.603405C19.6681 0.437315 19.7096 0.229703 19.855 0.105135C19.9934 -0.0194325 20.2079 -0.0332733 20.3602 0.0774534C20.4086 0.112055 24.9692 3.5169 22.201 8.54112C19.7442 13.0048 22.1456 15.9044 22.1733 15.9321C22.3048 16.0913 22.3048 16.3266 22.1595 16.4788C22.0764 16.5688 21.9657 16.6103 21.8619 16.6103ZM15.8896 16.6103C15.8065 16.6103 15.7166 16.5826 15.6404 16.5273C10.9692 12.9909 13.6058 8.465 13.7996 8.15358C15.8134 4.47884 13.8134 0.644927 13.7927 0.603405C13.7027 0.437315 13.7373 0.229703 13.8827 0.105135C14.028 -0.0263529 14.2356 -0.0332733 14.3948 0.0774534C14.4432 0.112055 19.0038 3.5169 16.2356 8.54112C13.7719 13.0048 16.1802 15.9044 16.201 15.9321C16.3394 16.0913 16.3325 16.3266 16.1871 16.4788C16.111 16.5688 16.0003 16.6103 15.8896 16.6103ZM9.92417 16.6103C9.83421 16.6103 9.75116 16.5826 9.67504 16.5273C4.99684 12.9909 7.64044 8.465 7.82729 8.15358C9.84805 4.47884 7.84113 0.644927 7.82037 0.603405C7.7304 0.437315 7.77192 0.229703 7.91725 0.105135C8.05566 -0.0263529 8.27019 -0.0332733 8.42244 0.0774534C8.47089 0.112055 13.0314 3.5169 10.2633 8.54112C7.81345 12.9771 10.1318 15.8145 10.2356 15.9321C10.3671 16.0913 10.3602 16.3335 10.2218 16.4788C10.1387 16.5688 10.028 16.6103 9.92417 16.6103Z" fill="#424242"/>
</g>
<defs>
<clipPath id="clip0_3362_12345">
<rect width="30" height="30" fill="white"/>
</clipPath>
</defs>
</svg>
