<svg width="30" height="30" viewBox="0 0 30 30" fill="none" xmlns="http://www.w3.org/2000/svg">
<path d="M20.9326 5.33203C19.8404 5.33203 18.9551 6.21738 18.9551 7.30957C18.9551 6.21738 18.0697 5.33203 16.9775 5.33203C15.8854 5.33203 15 6.21738 15 7.30957C15 6.21738 14.1146 5.33203 13.0225 5.33203C11.9303 5.33203 11.0449 6.21738 11.0449 7.30957C11.0449 6.21738 10.1596 5.33203 9.06738 5.33203C7.9752 5.33203 7.08984 6.21738 7.08984 7.30957V11.002C7.63886 10.7404 8.23947 10.6049 8.84766 10.6055H14.707C14.8061 10.6055 14.9037 10.6114 15 10.6221C16.3165 10.7684 17.3438 11.8873 17.3438 13.2422V13.5352C17.3438 13.7238 17.3326 13.9097 17.3108 14.0926C18.2442 13.9341 18.9551 13.1221 18.9551 12.1436C18.9551 13.2357 19.8404 14.1211 20.9326 14.1211C22.0248 14.1211 22.9102 13.2357 22.9102 12.1436V7.30957C22.9102 6.21738 22.0248 5.33203 20.9326 5.33203Z" fill="#424242"/>
<path d="M18.9551 15.3104C18.3626 15.6824 17.6771 15.8795 16.9775 15.8789C16.9675 15.8789 16.9575 15.8784 16.9474 15.8784C16.2881 17.2631 14.8753 18.2227 13.2422 18.2227H12.0703V18.4908C12.0703 18.964 11.7066 19.3713 11.2339 19.3935C10.7292 19.4173 10.3125 19.0151 10.3125 18.5156V17.3438C10.3125 16.8584 10.706 16.4648 11.1914 16.4648H12.6562C14.2743 16.4648 15.5859 15.1532 15.5859 13.5352V13.2422C15.5859 12.7568 15.1924 12.3633 14.707 12.3633H8.84766C7.55326 12.3633 6.50391 13.4126 6.50391 14.707V18.5156C6.50391 20.8403 8.31844 22.7491 10.6055 22.9005V26.1328C10.6055 26.6182 10.999 27.0117 11.4844 27.0117H18.5156C19.001 27.0117 19.3945 26.6182 19.3945 26.1328V22.8219C21.3979 22.4135 22.9102 20.6378 22.9102 18.5156V15.3104C22.3362 15.6701 21.6585 15.8789 20.9326 15.8789C20.2068 15.8789 19.5291 15.6701 18.9551 15.3104Z" fill="#424242"/>
<path d="M3.57422 3.86719C3.57422 3.3818 3.1807 2.98828 2.69531 2.98828H0.878906C0.393516 2.98828 0 3.3818 0 3.86719V15.5859C0 16.0713 0.393516 16.4648 0.878906 16.4648H2.69531C3.1807 16.4648 3.57422 16.0713 3.57422 15.5859V11.7773H5.33203V7.67578H3.57422V3.86719ZM29.1211 2.98828H27.3047C26.8193 2.98828 26.4258 3.3818 26.4258 3.86719V7.67578H24.668V11.7773H26.4258V15.5859C26.4258 16.0713 26.8193 16.4648 27.3047 16.4648H29.1211C29.6065 16.4648 30 16.0713 30 15.5859V3.86719C30 3.3818 29.6065 2.98828 29.1211 2.98828Z" fill="#E10A17"/>
</svg>
