<svg width="30" height="30" viewBox="0 0 30 30" fill="none" xmlns="http://www.w3.org/2000/svg">
<g clip-path="url(#clip0_3915_28332)">
<path d="M8.35814 4.35373C8.69107 2.92529 7.80289 1.4974 6.37433 1.16444C4.94577 0.831474 3.51779 1.71953 3.18486 3.14796C2.85193 4.5764 3.74011 6.00429 5.16867 6.33726C6.59723 6.67022 8.02521 5.78216 8.35814 4.35373Z" fill="#424242"/>
<path d="M2.28577 9.38201C2.13003 9.09522 2.09544 8.76947 2.18671 8.46107C2.23109 8.30925 2.30518 8.16776 2.40468 8.04479C2.50417 7.92182 2.62709 7.81984 2.76631 7.74475C2.94257 7.64867 3.14009 7.59826 3.34083 7.5981C3.77887 7.5981 4.18291 7.83613 4.39519 8.21938C4.40334 8.23332 4.41444 8.25126 4.43062 8.27641C4.4658 8.33061 4.52542 8.41739 4.61197 8.52743C4.75361 8.706 4.90772 8.87432 5.07315 9.03111C5.21873 7.95845 4.76959 6.82746 3.87604 6.60479C2.86809 6.35342 1.40698 6.9009 0.812498 8.62967C0.00903618 11.0116 -0.163699 12.562 0.141628 15.1848C0.39099 16.4683 1.06611 16.9736 1.81136 17.1627C2.11209 18.153 2.48708 19.783 2.48436 21.7387C2.48412 23.2993 2.25094 25.0648 1.56755 26.9101C1.28478 27.6746 1.67476 28.5236 2.43914 28.8068C2.60821 28.8694 2.78119 28.899 2.95156 28.899C3.55135 28.899 4.11537 28.5306 4.33581 27.9352C5.15698 25.7177 5.43645 23.5932 5.43621 21.7388C5.43255 18.7813 4.73807 16.5066 4.36284 15.4883C4.19896 14.2632 4.34348 12.915 4.55459 11.6748C4.35148 11.5439 4.15463 11.4035 3.96471 11.2541C2.91697 10.4295 2.4147 9.61272 2.28577 9.38201Z" fill="#424242"/>
<path d="M11.3739 10.6631C11.3633 10.6649 11.3526 10.6656 11.3419 10.6677C10.6182 10.8094 9.9652 10.8691 9.37556 10.8691C7.39613 10.8652 6.11921 10.2082 5.29391 9.56587C4.88338 9.24413 4.59269 8.92298 4.40957 8.69027C4.34041 8.6032 4.27532 8.51298 4.21452 8.41989C4.20091 8.39909 4.18776 8.37799 4.17508 8.3566L4.1726 8.35259C4.17154 8.35062 4.17048 8.34865 4.16941 8.34669C3.91816 7.89295 3.34789 7.72611 2.8919 7.97453C2.78291 8.03375 2.68664 8.11386 2.60862 8.21029C2.53059 8.30673 2.47233 8.41759 2.43717 8.53654C2.40201 8.6555 2.39063 8.78022 2.40368 8.90358C2.41674 9.02693 2.45397 9.14651 2.51326 9.25547H2.51302C2.55576 9.33198 3.03087 10.1895 4.1275 11.052C5.21645 11.9126 6.95006 12.7585 9.35762 12.7585H9.37568C10.0934 12.7585 10.8691 12.6853 11.705 12.5215C11.8762 12.488 12.0348 12.4076 12.163 12.2894C12.2913 12.1711 12.3843 12.0196 12.4317 11.8517C12.0069 11.5261 11.648 11.1227 11.3739 10.6631ZM28.3328 18.0781H23.2158C23.0056 17.4712 22.5179 16.9325 21.4754 16.6416C19.3719 16.2238 17.9483 16.1769 16.1812 16.501V18.7673C16.1812 19.4315 15.6409 19.9718 14.9768 19.9718C14.3129 19.9718 13.7723 19.4315 13.7723 18.7673V17.2786C12.8401 17.9154 12.4958 18.9056 12.6238 19.6767C12.7889 20.6731 14.0858 21.2247 15.2594 21.0302H26.8922L27.05 27.4616C27.0693 28.2642 27.7264 28.9015 28.5245 28.9015C28.5369 28.9015 28.5491 28.9014 28.5615 28.901C29.3763 28.8811 30.0206 28.2044 30.0009 27.3895L29.8079 19.5181C29.7882 18.7165 29.1342 18.0781 28.3328 18.0781Z" fill="#424242"/>
<path d="M9.61653 21.2436C11.0793 21.13 12.173 19.8522 12.0595 18.3895C11.9459 16.9268 10.668 15.8331 9.20523 15.9467C7.74245 16.0603 6.64871 17.3381 6.76229 18.8008C6.87587 20.2635 8.15375 21.3572 9.61653 21.2436Z" fill="#424242"/>
<path d="M6.70898 21.993H25.8954V23.5279H6.70898V21.993ZM14.0303 18.766C14.0303 18.89 14.0547 19.0129 14.1022 19.1275C14.1496 19.2421 14.2192 19.3463 14.3069 19.434C14.3946 19.5218 14.4988 19.5913 14.6134 19.6388C14.728 19.6863 14.8508 19.7108 14.9749 19.7108C15.2255 19.7107 15.4658 19.6112 15.6429 19.434C15.8201 19.2568 15.9197 19.0165 15.9197 18.766V12.6063C15.6158 12.6767 15.2998 12.715 14.9749 12.715C14.65 12.715 14.3341 12.6767 14.0303 12.6064V18.766ZM14.9751 12.27C17.0441 12.27 18.7215 10.5927 18.7215 8.52368C18.7215 6.45464 17.0441 4.77734 14.9751 4.77734C12.9062 4.77734 11.2288 6.45464 11.2288 8.52368C11.2288 10.5927 12.9062 12.27 14.9751 12.27ZM13.4915 8.52368C13.4915 7.70428 14.1556 7.04002 14.9751 7.04002C15.7947 7.04002 16.4588 7.70428 16.4588 8.52368C16.4588 9.34308 15.7947 10.0073 14.9751 10.0073C14.1556 10.0073 13.4915 9.34308 13.4915 8.52368Z" fill="#E10A17"/>
<path d="M14.9761 9.63576C15.5907 9.63576 16.0889 9.13754 16.0889 8.52296C16.0889 7.90838 15.5907 7.41016 14.9761 7.41016C14.3615 7.41016 13.8633 7.90838 13.8633 8.52296C13.8633 9.13754 14.3615 9.63576 14.9761 9.63576Z" fill="#424242"/>
</g>
<defs>
<clipPath id="clip0_3915_28332">
<rect width="30" height="30" fill="white"/>
</clipPath>
</defs>
</svg>
