<svg width="306" height="325" viewBox="0 0 306 325" fill="none" xmlns="http://www.w3.org/2000/svg">
<g style="mix-blend-mode:lighten" opacity="0.2">
<path d="M-21.0537 267.433H-15.5193L46.0101 103.918L39.7894 104.266L-21.0537 267.433Z" stroke="#1D1E1C" stroke-width="1.32" stroke-miterlimit="2.61"/>
<path fill-rule="evenodd" clip-rule="evenodd" d="M-62.916 308.329L70.5298 308.333L46.369 324.669L183.95 324.575L171.758 177.588L187.822 274.552L275.308 300.508L304.019 254.437L285.014 264.722L277.149 261.896V253.581L266.325 255.948L255.666 249.295L276.454 200.799L321.5 186.09L335.305 198.732L333.652 215.339L347.871 201.187L366.248 156.635L373.346 156.448L371.702 145.82L365.651 121.673L287.442 75.3031L279.39 58.0224L150.325 44.7122L72.9495 9.37109H58.8549L46.2042 13.8093L98.8838 83.6448L75.3691 68.1511L47.7147 84.1974L-37.0797 221.475L-18.1637 229.929L-62.916 308.329Z" fill="#1D1E1C"/>
<path fill-rule="evenodd" clip-rule="evenodd" d="M299.605 246.202L322.434 233.845L324.368 214.426L325.557 202.444L319.252 196.651L283.39 208.366L267.437 245.592L268.052 245.975L275.182 244.415L286.487 241.942V253.283L299.605 246.202ZM40.0171 317.669H-79L-71.0415 303.725L-31.3825 234.251L-40.8783 230.009L-50.6416 225.646L-45.018 216.565L39.7765 79.2912L41.0197 77.2771L43.0294 76.1096L69.7658 60.5891L38.7427 19.4463L31.0381 9.23297L43.1319 4.99079L55.7827 0.534728L57.3468 0H74.9081L76.8287 0.891213L152.787 35.5683L280.346 48.7226L285.649 49.2663L287.877 54.0655L294.704 68.7437L370.412 113.63L373.781 115.626L374.73 119.409L380.782 143.561L380.929 144.399L382.573 155.031L384.19 165.512L373.576 165.766L372.578 165.792L356.536 204.725L355.814 206.481L354.477 207.818L340.258 221.97L327.193 234.973L311.98 259.383L283.274 305.454L279.486 311.479L272.677 309.456L190.066 284.948L193.288 323.787L194.126 333.884H183.953L46.3714 333.978L15.8251 334L40.0171 317.669ZM-62.918 308.311H70.5323L46.3714 324.669L183.953 324.575L171.761 177.588L187.803 274.552L275.289 300.508L304.021 254.441L285.016 264.726L277.151 261.901V253.581L266.327 255.948L255.669 249.295L276.456 200.799L321.502 186.094L335.316 198.736L333.663 215.344L347.882 201.191L366.259 156.631L373.358 156.444L371.713 145.816L365.662 121.668L287.445 75.3075L279.393 58.0269L150.327 44.7122L72.9519 9.35774H58.8574L46.2066 13.8138L98.8862 83.6448L75.3715 68.1511L47.7172 84.1929L-37.0773 221.467L-18.1613 229.933L-62.918 308.311Z" fill="white"/>
<path fill-rule="evenodd" clip-rule="evenodd" d="M299.527 246.226L322.36 233.864L324.294 214.445L325.483 202.467L319.178 196.688L283.316 208.398L267.358 245.628L267.978 246.012L275.112 244.452L286.417 241.979L286.421 253.32L299.527 246.226Z" fill="#1D1E1C"/>
<path fill-rule="evenodd" clip-rule="evenodd" d="M225.21 230.36L268.585 176.224L330.694 154.732L84.3755 21.7852L67.1885 30.7552L90.6675 28.4603L99.8381 35.9421L79.2867 47.9334L109.08 42.7331L119.445 50.6516L92.3563 65.5838L131.601 60.544L251.153 153.756L213.793 149.71L225.21 230.36Z" fill="#DE1F27"/>
<path fill-rule="evenodd" clip-rule="evenodd" d="M230.729 213.828L261.231 170.564L306.946 154.625L214.572 103.848L265.086 148.988L248.175 173.634L232.561 162.882L230.729 213.828Z" fill="#71706F"/>
<path fill-rule="evenodd" clip-rule="evenodd" d="M274.139 62.6009L222.81 57.6992L284.504 86.4141L274.139 62.6009Z" fill="#DE1F27"/>
<path fill-rule="evenodd" clip-rule="evenodd" d="M270.555 64.7254L253.083 62.8672L276.553 79.4482L270.555 64.7254Z" fill="white"/>
<path fill-rule="evenodd" clip-rule="evenodd" d="M160.812 161.844L139.547 289.956L105.637 311.884L169.127 311.238L160.812 161.844Z" fill="#DE1F27"/>
<path fill-rule="evenodd" clip-rule="evenodd" d="M106.27 127.976L75.3134 80.0156L56.041 91.4588L-22.2299 216.536L-4.90022 224.111L-45.4683 296.937L53.4208 297.998L71.0846 289.874L69.73 146.028L90.5933 227.516L106.27 127.976Z" fill="#DE1F27"/>
<path fill-rule="evenodd" clip-rule="evenodd" d="M67.6263 106.4L21.1227 287.597L-30.5498 287.784L7.59858 220.364L-8.02439 212.37L61.2407 97.6842L74.1232 90.4297L86.7963 172.31L67.6263 106.4Z" fill="#71706F"/>
<path fill-rule="evenodd" clip-rule="evenodd" d="M122.641 53.7227L105.4 61.5208L129.387 58.4639L122.641 53.7227Z" fill="white"/>
<path fill-rule="evenodd" clip-rule="evenodd" d="M102.426 38.1523L88.8755 44.2794L106.53 41.0399L102.426 38.1523Z" fill="white"/>
<path fill-rule="evenodd" clip-rule="evenodd" d="M85.43 24.0234L76.6694 27.7487L88.7587 26.3673L85.43 24.0234Z" fill="white"/>
<path fill-rule="evenodd" clip-rule="evenodd" d="M306.945 154.624L250.464 123.574L299.414 157.249L306.945 154.624Z" fill="white"/>
<path fill-rule="evenodd" clip-rule="evenodd" d="M129.371 305.059L161.655 304.043L159.521 218.945L149.949 286.66L154.071 293.656L129.371 305.059Z" fill="#71706F"/>
<path fill-rule="evenodd" clip-rule="evenodd" d="M289.274 160.779L255.363 140.281L282.322 163.203L289.274 160.779Z" fill="white"/>
<path fill-rule="evenodd" clip-rule="evenodd" d="M337.373 151.991L176.135 71.3047L329.847 154.615L337.373 151.991Z" fill="#71706F"/>
</g>
</svg>
