<svg width="30" height="30" viewBox="0 0 30 30" fill="none" xmlns="http://www.w3.org/2000/svg">
<path fill-rule="evenodd" clip-rule="evenodd" d="M28.4461 4.16322C27.296 4.82775 26.0423 5.29378 24.7374 5.54176C24.1834 4.97051 23.5195 4.51731 22.7857 4.20946C22.0519 3.90161 21.2634 3.74548 20.4676 3.75047C18.9418 3.73093 17.4707 4.31781 16.3773 5.38222C15.2839 6.44663 14.6577 7.9015 14.6363 9.42728C14.6382 9.86586 14.6921 10.3027 14.7969 10.7286C12.4876 10.6241 10.225 10.0424 8.15167 9.02024C6.0783 7.99808 4.23911 6.55756 2.74999 4.78946C2.23347 5.64919 1.9601 6.63304 1.95906 7.63599C1.96086 8.57951 2.19976 9.50744 2.65381 10.3345C3.10785 11.1616 3.76248 11.8613 4.55754 12.3694C3.63316 12.3424 2.72794 12.0993 1.91432 11.6598C1.91432 11.6821 1.91432 11.7065 1.91432 11.7309C1.92776 13.0573 2.40146 14.3378 3.25444 15.3536C4.10742 16.3694 5.28672 17.0574 6.59077 17.3C6.08873 17.4343 5.57132 17.5027 5.05161 17.5033C4.68315 17.504 4.31547 17.4693 3.95366 17.3996C4.34342 18.5405 5.07733 19.5325 6.05431 20.2389C7.0313 20.9453 8.20328 21.3315 9.40884 21.3441C7.32527 22.9325 4.77628 23.7901 2.15628 23.784C1.69201 23.7802 1.22834 23.7496 0.767578 23.6925C3.45121 25.3658 6.55128 26.2507 9.71383 26.2462C11.8703 26.2926 14.0144 25.9097 16.0215 25.1197C18.0285 24.3297 19.8584 23.1484 21.4047 21.6445C22.9509 20.1407 24.1826 18.3443 25.0281 16.36C25.8736 14.3756 26.3159 12.243 26.3295 10.086C26.3295 9.84002 26.3295 9.59604 26.3132 9.35205C27.454 8.55325 28.4429 7.55687 29.2329 6.40995C28.1648 6.87224 27.0344 7.17438 25.8781 7.30661C27.0898 6.6083 28.0035 5.48992 28.4461 4.16322Z" fill="#717171"/>
</svg>
