<svg width="16" height="13" viewBox="0 0 16 13" fill="none" xmlns="http://www.w3.org/2000/svg">
<path d="M7.99617 3.84376C7.56966 3.84263 7.15241 3.96805 6.79721 4.20416C6.44201 4.44027 6.16485 4.77645 6.00079 5.17015C5.83674 5.56385 5.79317 5.99737 5.8756 6.41584C5.95803 6.83431 6.16276 7.21892 6.46387 7.52099C6.76498 7.82306 7.14893 8.02901 7.56714 8.11277C7.98534 8.19654 8.419 8.15435 8.81322 7.99155C9.20743 7.82875 9.54449 7.55265 9.78173 7.19821C10.019 6.84377 10.1457 6.42691 10.146 6.0004C10.1457 5.4297 9.91929 4.88236 9.51639 4.47818C9.11348 4.07399 8.56687 3.84587 7.99617 3.84376V3.84376Z" fill="#E10A17"/>
<path fill-rule="evenodd" clip-rule="evenodd" d="M15.5577 0.232266C14.9113 0.605787 14.2066 0.867739 13.4731 1.00712C13.1617 0.686031 12.7886 0.431293 12.3761 0.258255C11.9636 0.0852165 11.5204 -0.002542 11.0731 0.000265933C10.2155 -0.0107216 9.38859 0.31916 8.77401 0.917449C8.15944 1.51574 7.80747 2.33351 7.79543 3.19112C7.79651 3.43765 7.82682 3.68317 7.88571 3.92255C6.5877 3.86382 5.31592 3.53688 4.1505 2.96233C2.98509 2.38779 1.9513 1.57809 1.11429 0.584266C0.823959 1.06751 0.670302 1.62052 0.669714 2.18427C0.67073 2.71461 0.805013 3.23618 1.06023 3.70108C1.31544 4.16597 1.68339 4.55927 2.13029 4.84484C1.61071 4.82966 1.1019 4.69306 0.644571 4.44598C0.644571 4.45855 0.644571 4.47227 0.644571 4.48598C0.652124 5.23151 0.918381 5.95127 1.39783 6.52223C1.87728 7.09319 2.54015 7.47991 3.27314 7.61627C2.99095 7.69178 2.70012 7.7302 2.408 7.73055C2.20089 7.73097 1.99423 7.71145 1.79086 7.67227C2.00993 8.31355 2.42246 8.87112 2.97161 9.2682C3.52075 9.66527 4.17951 9.88231 4.85714 9.88941C3.68599 10.7823 2.25324 11.2643 0.780571 11.2608C0.519609 11.2587 0.258987 11.2415 0 11.2094C1.50843 12.1499 3.25094 12.6474 5.02857 12.6448C6.24068 12.6709 7.44588 12.4557 8.57402 12.0116C9.70217 11.5676 10.7307 10.9036 11.5998 10.0583C12.469 9.21298 13.1613 8.20327 13.6365 7.0879C14.1117 5.97253 14.3604 4.77378 14.368 3.56141C14.368 3.42312 14.368 3.28598 14.3589 3.14884C15.0001 2.69984 15.5559 2.13979 16 1.49512C15.3996 1.75497 14.7642 1.9248 14.1143 1.99912C14.7954 1.60661 15.309 0.977985 15.5577 0.232266V0.232266Z" fill="#E10A17"/>
</svg>
