<svg width="1600" height="782" viewBox="0 0 1600 782" fill="none" xmlns="http://www.w3.org/2000/svg">
<g opacity="0.04" clip-path="url(#clip0_4053_30725)">
<path d="M732.769 145.625L699.505 178.875L732.815 212.078L766.079 178.829L732.769 145.625Z" fill="white"/>
<path d="M693.205 184.638L659.9 217.848L693.17 251.092L726.474 217.882L693.205 184.638Z" fill="white"/>
<path d="M653.772 232.216L628.722 257.238L653.789 282.243L678.839 257.221L653.772 232.216Z" fill="white"/>
<path d="M615.108 263.494L582.195 296.348L615.108 329.201L648.021 296.348L615.108 263.494Z" fill="white"/>
<path d="M575.968 312.088L552.779 335.234L575.968 358.381L599.157 335.234L575.968 312.088Z" fill="white"/>
<path d="M536.704 364.771L526.99 374.488L536.725 384.185L546.439 374.468L536.704 364.771Z" fill="white"/>
<path d="M497.468 403.827L487.719 413.508L497.418 423.24L507.167 413.559L497.468 403.827Z" fill="white"/>
<path d="M458.534 428.705L434.236 452.984L458.186 476.865L482.484 452.586L458.534 428.705Z" fill="white"/>
<path d="M443.765 491.607L418.905 516.422L394.574 491.607L418.905 467.32L443.765 491.607Z" fill="white"/>
<path d="M379.79 496.655L345.779 530.652L379.464 564.229L413.475 530.232L379.79 496.655Z" fill="white"/>
<path d="M340.594 536.005L306.185 570.352L340.594 604.698L375.003 570.352L340.594 536.005Z" fill="white"/>
<path d="M301.96 574.584L267.201 609.328L301.634 643.651L336.393 608.907L301.96 574.584Z" fill="white"/>
<path d="M261.937 616.392L230.146 648.125L261.937 679.858L293.728 648.125L261.937 616.392Z" fill="white"/>
<path d="M223.171 655.432L191.006 687.539L223.171 719.646L255.336 687.539L223.171 655.432Z" fill="white"/>
<path d="M184.118 694.603L151.54 727.043L184.039 759.563L216.617 727.122L184.118 694.603Z" fill="white"/>
<path d="M177.184 765.625L144.39 798.359L112.125 765.625L144.39 732.891L177.184 765.625Z" fill="white"/>
<path d="M771.704 188.958L742.516 218.062L771.673 247.198L800.861 218.093L771.704 188.958Z" fill="white"/>
<path d="M732.532 232.326L707.834 256.953L732.506 281.606L757.203 256.979L732.532 232.326Z" fill="white"/>
<path d="M703.999 296.255L693.42 306.815L682.842 296.255L693.42 285.168L703.999 296.255Z" fill="white"/>
<path d="M624.13 374.397L615.138 383.373L606.146 374.397L615.138 365.422L624.13 374.397Z" fill="white"/>
<path d="M584.989 413.468L575.998 422.443L567.006 413.468L575.998 404.492L584.989 413.468Z" fill="white"/>
<path d="M545.848 452.538L536.857 462.042L527.336 452.538L536.857 443.562L545.848 452.538Z" fill="white"/>
<path d="M507.236 491.605L497.187 501.637L487.666 491.605L497.716 482.102L507.236 491.605Z" fill="white"/>
<path d="M458.379 506.635L434.081 530.914L458.404 555.168L482.702 530.889L458.379 506.635Z" fill="white"/>
<path d="M418.877 544.526L393.453 569.922L418.895 595.3L444.319 569.904L418.877 544.526Z" fill="white"/>
<path d="M380.079 575.075L345.67 609.422L380.079 643.769L414.488 609.422L380.079 575.075Z" fill="white"/>
<path d="M340.938 613.962L306.529 648.309L340.938 682.655L375.347 648.309L340.938 613.962Z" fill="white"/>
<path d="M301.354 653.126L266.957 687.484L301.378 721.819L335.775 687.46L301.354 653.126Z" fill="white"/>
<path d="M261.753 694.876L229.962 726.609L261.753 758.343L293.544 726.609L261.753 694.876Z" fill="white"/>
<path d="M222.523 733.94L190.397 766.086L222.602 798.153L254.727 766.008L222.523 733.94Z" fill="white"/>
<path d="M183.866 772.626L151.288 805.066L183.787 837.586L216.365 805.146L183.866 772.626Z" fill="white"/>
<path d="M810.974 232.659L786.663 256.926L810.974 281.192L835.284 256.926L810.974 232.659Z" fill="white"/>
<path d="M782.281 296.255L771.702 306.286L761.652 296.255L771.702 285.695L782.281 296.255Z" fill="white"/>
<path d="M732.875 324.729L722.415 335.195L732.9 345.636L743.36 335.17L732.875 324.729Z" fill="white"/>
<path d="M693.272 364.143L682.812 374.609L693.298 385.05L703.757 374.584L693.272 364.143Z" fill="white"/>
<path d="M623.601 452.537L615.138 461.513L606.146 452.537L615.138 444.09L623.601 452.537Z" fill="white"/>
<path d="M584.989 491.604L575.998 501.108L567.006 491.604L575.998 482.629L584.989 491.604Z" fill="white"/>
<path d="M536.441 521.547L527.117 530.906L536.494 540.213L545.818 530.854L536.441 521.547Z" fill="white"/>
<path d="M508.295 570.275L497.187 580.834L486.608 570.275L497.716 559.188L508.295 570.275Z" fill="white"/>
<path d="M458.113 584.231L433.037 609.227L458.078 634.257L483.155 609.261L458.113 584.231Z" fill="white"/>
<path d="M419.384 622.87L393.573 648.625L419.375 674.39L445.187 648.634L419.384 622.87Z" fill="white"/>
<path d="M379.894 653.032L345.485 687.379L379.52 721.352L413.929 687.006L379.894 653.032Z" fill="white"/>
<path d="M340.754 692.446L306.345 726.793L340.754 761.14L375.163 726.793L340.754 692.446Z" fill="white"/>
<path d="M301.774 730.673L267.027 765.43L301.472 799.74L336.219 764.984L301.774 730.673Z" fill="white"/>
<path d="M262.192 770.205L227.434 804.949L262.241 839.645L297 804.901L262.192 770.205Z" fill="white"/>
<path d="M849.93 272.478L825.993 296.371L849.93 320.264L873.867 296.371L849.93 272.478Z" fill="white"/>
<path d="M810.888 311.406L786.98 335.328L811.321 359.565L835.228 335.643L810.888 311.406Z" fill="white"/>
<path d="M781.752 374.395L771.702 384.426L762.182 374.395L771.702 364.363L781.752 374.395Z" fill="white"/>
<path d="M732.784 403.809L723.048 413.504L732.76 423.222L742.496 413.528L732.784 403.809Z" fill="white"/>
<path d="M623.601 530.678L615.138 539.654L606.146 531.206L615.138 522.23L623.601 530.678Z" fill="white"/>
<path d="M586.047 570.274L575.998 580.306L565.419 570.274L575.998 559.715L586.047 570.274Z" fill="white"/>
<path d="M536.018 598.521L525.571 609L536.069 619.428L546.516 608.949L536.018 598.521Z" fill="white"/>
<path d="M497.368 637.177L486.173 648.402L497.419 659.577L508.613 648.352L497.368 637.177Z" fill="white"/>
<path d="M458.069 662.268L432.649 687.668L458.095 713.041L483.515 687.641L458.069 662.268Z" fill="white"/>
<path d="M419.226 700.689L393.419 726.449L419.226 752.209L445.032 726.449L419.226 700.689Z" fill="white"/>
<path d="M379.711 731.517L345.302 765.863L379.711 800.21L414.12 765.863L379.711 731.517Z" fill="white"/>
<path d="M340.838 769.792L306.043 804.5L340.44 838.859L375.235 804.151L340.838 769.792Z" fill="white"/>
<path d="M889.1 311.481L865.525 334.988L889.076 358.521L912.651 335.013L889.1 311.481Z" fill="white"/>
<path d="M850.158 365.584L841.185 374.547L850.164 383.504L859.137 374.541L850.158 365.584Z" fill="white"/>
<path d="M820.364 413.468L810.843 422.443L801.852 413.468L810.843 404.492L820.364 413.468Z" fill="white"/>
<path d="M615.275 599.368L605.551 609.074L615.275 618.781L624.999 609.074L615.275 599.368Z" fill="white"/>
<path d="M586.047 648.414L575.998 658.446L565.419 648.414L575.998 638.383L586.047 648.414Z" fill="white"/>
<path d="M536.555 677.203L525.718 688.039L536.574 698.856L547.41 688.02L536.555 677.203Z" fill="white"/>
<path d="M497.101 701.375L472.068 726.414L497.153 751.401L522.186 726.362L497.101 701.375Z" fill="white"/>
<path d="M458.182 732.074L424.147 766.047L458.182 800.02L492.217 766.047L458.182 732.074Z" fill="white"/>
<path d="M418.668 770.587L384.259 804.934L418.668 839.28L453.077 804.934L418.668 770.587Z" fill="white"/>
<path d="M937.258 374.397L928.795 382.844L920.332 374.397L928.795 365.949L937.258 374.397Z" fill="white"/>
<path d="M889.606 405.339L881.004 413.926L889.606 422.512L898.208 413.926L889.606 405.339Z" fill="white"/>
<path d="M740.495 570.275L732.561 577.667L725.156 570.275L732.561 562.355L740.495 570.275Z" fill="white"/>
<path d="M693.631 600.415L684.694 609.414L693.71 618.335L702.647 609.336L693.631 600.415Z" fill="white"/>
<path d="M653.87 639.053L644.48 648.348L653.791 657.72L663.181 648.426L653.87 639.053Z" fill="white"/>
<path d="M625.188 687.485L615.139 697.516L605.089 687.485L615.139 677.453L625.188 687.485Z" fill="white"/>
<path d="M575.997 702.584L551.699 726.863L576.023 751.117L600.321 726.838L575.997 702.584Z" fill="white"/>
<path d="M536.856 731.929L502.833 765.914L536.506 799.502L570.529 765.517L536.856 731.929Z" fill="white"/>
<path d="M497.735 770.816L463.712 804.801L497.759 838.762L531.782 804.777L497.735 770.816Z" fill="white"/>
<path d="M967.712 405.661L959.818 413.461L967.633 421.341L975.527 413.54L967.712 405.661Z" fill="white"/>
<path d="M811.238 562.809L804.172 569.941L811.318 576.995L818.384 569.862L811.238 562.809Z" fill="white"/>
<path d="M771.88 601.928L764.372 609.367L771.825 616.861L779.332 609.422L771.88 601.928Z" fill="white"/>
<path d="M740.495 648.416L732.561 656.335L724.627 648.416L732.561 640.496L740.495 648.416Z" fill="white"/>
<path d="M702.941 687.484L693.421 696.46L684.429 687.484L693.421 677.98L702.941 687.484Z" fill="white"/>
<path d="M654.073 703.311L630.526 726.848L654.105 750.351L677.652 726.815L654.073 703.311Z" fill="white"/>
<path d="M614.963 731.744L581.325 765.367L615.01 798.944L648.647 765.32L614.963 731.744Z" fill="white"/>
<path d="M575.885 770.984L542.253 804.613L575.943 838.184L609.575 804.555L575.885 770.984Z" fill="white"/>
<path d="M889.414 563.952L883.065 570.309L889.434 576.645L895.782 570.289L889.414 563.952Z" fill="white"/>
<path d="M857.388 609.345L849.983 616.736L843.107 609.345L850.512 601.953L857.388 609.345Z" fill="white"/>
<path d="M810.956 641.043L803.85 648.137L810.956 655.23L818.062 648.137L810.956 641.043Z" fill="white"/>
<path d="M780.165 687.483L771.702 695.93L763.239 687.483L771.702 679.035L780.165 687.483Z" fill="white"/>
<path d="M755.305 726.554L732.561 749.257L709.817 726.554L732.561 703.852L755.305 726.554Z" fill="white"/>
<path d="M693.186 732.426L659.934 765.688L693.255 798.879L726.507 765.618L693.186 732.426Z" fill="white"/>
<path d="M654.32 771.371L620.63 804.941L654.261 838.571L687.952 805L654.32 771.371Z" fill="white"/>
<path d="M935.142 609.344L928.795 615.68L921.919 609.344L928.795 602.48L935.142 609.344Z" fill="white"/>
<path d="M896.53 648.415L889.654 655.279L882.249 648.415L889.654 641.023L896.53 648.415Z" fill="white"/>
<path d="M850.585 679.984L842.781 687.875L850.686 695.664L858.489 687.774L850.585 679.984Z" fill="white"/>
<path d="M811.273 704.041L788.793 726.402L811.194 748.841L833.674 726.48L811.273 704.041Z" fill="white"/>
<path d="M772.014 743.16L749.188 765.922L771.99 788.707L794.817 765.946L772.014 743.16Z" fill="white"/>
<path d="M765.884 804.695L732.561 837.958L699.238 804.695L732.561 771.961L765.884 804.695Z" fill="white"/>
<path d="M1012.89 609.343L1007.08 615.151L1001.26 609.343L1007.08 603.008L1012.89 609.343Z" fill="white"/>
<path d="M974.283 648.414L967.936 654.75L961.06 648.414L967.936 641.551L974.283 648.414Z" fill="white"/>
<path d="M928.303 680.212L921.185 687.293L928.278 694.399L935.397 687.318L928.303 680.212Z" fill="white"/>
<path d="M897.059 726.556L889.654 734.475L881.72 726.556L889.654 719.164L897.059 726.556Z" fill="white"/>
<path d="M850.631 744.036L828.564 766.062L850.631 788.089L872.698 766.062L850.631 744.036Z" fill="white"/>
<path d="M833.587 804.695L810.843 827.398L788.099 804.695L810.843 781.992L833.587 804.695Z" fill="white"/>
<path d="M1090.12 609.346L1085.36 613.569L1081.13 609.346L1085.36 604.594L1090.12 609.346Z" fill="white"/>
<path d="M1046.38 643.837L1041.93 648.355L1046.46 652.797L1050.91 648.279L1046.38 643.837Z" fill="white"/>
<path d="M1006.81 680.901L1000.46 687.258L1006.83 693.594L1013.18 687.238L1006.81 680.901Z" fill="white"/>
<path d="M968.037 719.592L960.917 726.672L967.636 733.405L974.756 726.325L968.037 719.592Z" fill="white"/>
<path d="M928.903 746.05L909.053 765.809L928.848 785.623L948.698 765.864L928.903 746.05Z" fill="white"/>
<path d="M1163.92 604.23L1158.68 609.457L1163.92 614.684L1169.15 609.457L1163.92 604.23Z" fill="white"/>
<path d="M1124.41 644.164L1119.96 648.684L1124.49 653.124L1128.94 648.604L1124.41 644.164Z" fill="white"/>
<path d="M1091.71 687.483L1085.36 693.291L1079.54 687.483L1085.36 681.676L1091.71 687.483Z" fill="white"/>
<path d="M1066.85 726.556L1046.22 747.147L1025.59 726.556L1046.22 705.965L1066.85 726.556Z" fill="white"/>
<path d="M1007.2 733.051L974.661 765.531L1007.2 798.011L1039.74 765.531L1007.2 733.051Z" fill="white"/>
<path d="M1202.88 642.556L1197.27 648.156L1202.88 653.756L1208.49 648.156L1202.88 642.556Z" fill="white"/>
<path d="M1163.85 681.121L1157.85 687.07L1163.81 693.068L1169.81 687.118L1163.85 681.121Z" fill="white"/>
<path d="M1085.49 733.117L1052.93 765.574L1072.74 785.375L1105.3 752.917L1085.49 733.117Z" fill="white"/>
<path d="M1046.71 772.133L1014.17 804.613L1034 824.4L1066.54 791.92L1046.71 772.133Z" fill="white"/>
<path d="M183.002 601.426L216.325 568.164L249.647 601.426L216.325 634.689L183.002 601.426Z" fill="white"/>
<path d="M255.638 529.121L222.362 562.359L255.661 595.574L288.936 562.336L255.638 529.121Z" fill="white"/>
<path d="M294.816 497.968L269.749 522.973L294.799 547.995L319.866 522.99L294.816 497.968Z" fill="white"/>
<path d="M334.453 451.036L301.568 483.918L334.51 516.743L367.394 483.861L334.453 451.036Z" fill="white"/>
<path d="M373.484 421.952L350.271 445.074L373.436 468.245L396.649 445.123L373.484 421.952Z" fill="white"/>
<path d="M412.654 396.096L402.943 405.816L412.681 415.51L422.392 405.789L412.654 396.096Z" fill="white"/>
<path d="M442.178 367.004L451.699 356.973L461.748 366.476L451.699 376.508L442.178 367.004Z" fill="white"/>
<path d="M491.014 303.484L466.69 327.738L490.615 351.644L514.938 327.39L491.014 303.484Z" fill="white"/>
<path d="M530.086 264.284L505.775 288.551L530.086 312.817L554.397 288.551L530.086 264.284Z" fill="white"/>
<path d="M569.162 216.07L535.53 249.699L569.221 283.27L602.852 249.641L569.162 216.07Z" fill="white"/>
<path d="M608.897 175.532L574.488 209.879L608.897 244.226L643.306 209.879L608.897 175.532Z" fill="white"/>
<path d="M647.762 136.535L612.955 171.23L647.34 205.601L682.147 170.905L647.762 136.535Z" fill="white"/>
<path d="M686.566 100.261L654.753 131.973L686.522 163.728L718.335 132.017L686.566 100.261Z" fill="white"/>
<path d="M725.781 60.5306L693.627 92.6484L725.803 124.744L757.957 92.626L725.781 60.5306Z" fill="white"/>
<path d="M765.271 21.5352L732.721 54.0039L765.248 86.4953L797.799 54.0266L765.271 21.5352Z" fill="white"/>
<path d="M804.533 -17.7755L771.977 14.6875L804.872 47.5581L837.428 15.095L804.533 -17.7755Z" fill="white"/>
<path d="M177.231 533.498L148.073 562.633L177.261 591.738L206.419 562.602L177.231 533.498Z" fill="white"/>
<path d="M216.453 498.645L191.729 523.246L216.375 547.925L241.099 523.323L216.453 498.645Z" fill="white"/>
<path d="M244.887 484.216L255.994 473.129L266.573 484.216L255.994 494.776L244.887 484.216Z" fill="white"/>
<path d="M325.284 406.073L334.276 397.098L343.268 406.073L334.276 415.049L325.284 406.073Z" fill="white"/>
<path d="M364.426 366.476L373.418 357.5L382.409 366.476L373.418 375.979L364.426 366.476Z" fill="white"/>
<path d="M412.495 318.482L403.142 327.812L412.489 337.149L421.842 327.819L412.495 318.482Z" fill="white"/>
<path d="M451.615 278.661L441.891 288.367L451.615 298.074L461.339 288.367L451.615 278.661Z" fill="white"/>
<path d="M491.228 224.973L466.904 249.227L491.202 273.506L515.526 249.252L491.228 224.973Z" fill="white"/>
<path d="M529.982 184.872L504.54 210.25L529.964 235.646L555.405 210.268L529.982 184.872Z" fill="white"/>
<path d="M569.411 136.462L535.002 170.809L569.411 205.155L603.82 170.809L569.411 136.462Z" fill="white"/>
<path d="M609.081 97.5752L574.672 131.922L609.081 166.269L643.49 131.922L609.081 97.5752Z" fill="white"/>
<path d="M646.945 58.1611L612.536 92.5078L646.945 126.854L681.354 92.5078L646.945 58.1611Z" fill="white"/>
<path d="M686.989 21.8877L655.198 53.6211L686.989 85.3544L718.78 53.6211L686.989 21.8877Z" fill="white"/>
<path d="M725.946 -17.9343L693.792 14.1836L725.968 46.2791L758.122 14.1612L725.946 -17.9343Z" fill="white"/>
<path d="M137.874 498.645L113.538 522.887L137.823 547.179L162.159 522.938L137.874 498.645Z" fill="white"/>
<path d="M167.134 484.215L177.183 474.184L187.233 484.215L177.183 494.247L167.134 484.215Z" fill="white"/>
<path d="M217.048 434.468L206.592 444.938L217.081 455.374L227.536 444.905L217.048 434.468Z" fill="white"/>
<path d="M256.084 395.138L245.626 405.605L256.113 416.044L266.571 405.576L256.084 395.138Z" fill="white"/>
<path d="M325.284 327.405L334.276 318.957L342.739 327.405L334.276 336.38L325.284 327.405Z" fill="white"/>
<path d="M373.431 279.598L364.468 288.57L373.457 297.518L382.42 288.545L373.431 279.598Z" fill="white"/>
<path d="M413.032 239.964L403.682 249.297L413.032 258.63L422.382 249.297L413.032 239.964Z" fill="white"/>
<path d="M451.481 200.026L440.621 210.84L451.454 221.68L462.314 210.866L451.481 200.026Z" fill="white"/>
<path d="M490.812 145.884L465.767 170.91L490.838 195.91L515.884 170.884L490.812 145.884Z" fill="white"/>
<path d="M530.08 105.978L504.273 131.738L530.08 157.498L555.887 131.738L530.08 105.978Z" fill="white"/>
<path d="M569.596 58.5049L535.187 92.8516L569.596 127.198L604.004 92.8516L569.596 58.5049Z" fill="white"/>
<path d="M608.736 19.6182L574.327 53.9648L608.736 88.3115L643.145 53.9648L608.736 19.6182Z" fill="white"/>
<path d="M647.503 -20.1692L612.72 14.5508L647.129 48.8975L681.912 14.1774L647.503 -20.1692Z" fill="white"/>
<path d="M99.1411 460.416L75.2002 484.305L99.1327 508.202L123.074 484.313L99.1411 460.416Z" fill="white"/>
<path d="M137.953 421.083L114.016 444.977L138.327 469.243L162.264 445.35L137.953 421.083Z" fill="white"/>
<path d="M177.243 396.303L167.505 405.996L177.216 415.716L186.953 406.023L177.243 396.303Z" fill="white"/>
<path d="M206.804 367.004L216.853 356.973L226.374 366.476L216.324 376.508L206.804 367.004Z" fill="white"/>
<path d="M325.284 249.268L334.276 240.82L342.739 249.268L334.276 258.243L325.284 249.268Z" fill="white"/>
<path d="M363.367 210.196L373.417 200.164L383.467 210.196L373.417 220.227L363.367 210.196Z" fill="white"/>
<path d="M401.979 171.126L412.558 160.566L423.137 171.126L412.558 181.685L401.979 171.126Z" fill="white"/>
<path d="M451.903 121.105L440.687 132.309L451.911 143.505L463.127 132.301L451.903 121.105Z" fill="white"/>
<path d="M490.751 67.8805L465.305 93.2539L490.724 118.654L516.17 93.2805L490.751 67.8805Z" fill="white"/>
<path d="M530.265 28.0213L504.458 53.7812L530.265 79.5413L556.071 53.7813L530.265 28.0213Z" fill="white"/>
<path d="M569.779 -19.9795L535.37 14.3672L569.779 48.7139L604.188 14.3672L569.779 -19.9795Z" fill="white"/>
<path d="M59.4502 421.708L35.8506 445.191L59.3762 468.748L82.9759 445.265L59.4502 421.708Z" fill="white"/>
<path d="M98.9203 396.547L89.9409 405.504L98.9141 414.467L107.893 405.51L98.9203 396.547Z" fill="white"/>
<path d="M138.137 357.532L129.161 366.492L138.137 375.452L147.113 366.492L138.137 357.532Z" fill="white"/>
<path d="M334.256 161.582L324.528 171.285L334.249 180.995L343.977 171.292L334.256 161.582Z" fill="white"/>
<path d="M363.367 132.055L373.417 122.023L383.467 132.055L373.417 142.086L363.367 132.055Z" fill="white"/>
<path d="M401.979 92.9859L412.558 81.8984L423.137 92.9859L412.558 103.545L401.979 92.9859Z" fill="white"/>
<path d="M451.638 28.5843L426.579 53.5977L451.638 78.611L476.697 53.5977L451.638 28.5843Z" fill="white"/>
<path d="M491.307 -19.2624L457.272 14.7109L491.307 48.6843L525.342 14.7109L491.307 -19.2624Z" fill="white"/>
<path d="M59.6983 358.071L51.0825 366.645L59.6712 375.245L68.287 366.672L59.6983 358.071Z" fill="white"/>
<path d="M208.92 210.196L216.325 202.805L224.259 210.196L216.325 218.116L208.92 210.196Z" fill="white"/>
<path d="M247.003 171.128L255.995 162.152L264.458 171.128L255.995 180.103L247.003 171.128Z" fill="white"/>
<path d="M295.047 122.676L285.684 131.996L295.021 141.342L304.384 132.022L295.047 122.676Z" fill="white"/>
<path d="M324.227 92.9846L334.276 82.9531L344.326 92.9846L334.276 102.488L324.227 92.9846Z" fill="white"/>
<path d="M373.166 29.5224L348.855 53.7891L373.166 78.0557L397.477 53.7891L373.166 29.5224Z" fill="white"/>
<path d="M412.681 -19.446L378.646 14.5273L412.307 48.1274L446.342 14.154L412.681 -19.446Z" fill="white"/>
<path d="M138.25 203.467L131.13 210.547L138.223 217.654L145.343 210.574L138.25 203.467Z" fill="white"/>
<path d="M177.117 163.697L169.637 171.164L177.117 178.631L184.597 171.164L177.117 163.697Z" fill="white"/>
<path d="M208.92 132.056L216.325 124.137L224.259 132.056L216.325 139.976L208.92 132.056Z" fill="white"/>
<path d="M255.765 83.3138L246.428 92.6602L255.791 101.98L265.128 92.6341L255.765 83.3138Z" fill="white"/>
<path d="M295.069 30.0855L271.506 53.6055L295.069 77.1255L318.631 53.6055L295.069 30.0855Z" fill="white"/>
<path d="M334.584 -18.8813L300.923 14.7188L334.584 48.3188L368.245 14.7187L334.584 -18.8813Z" fill="white"/>
<path d="M59.3345 203.851L52.9663 210.188L59.3145 216.544L65.6827 210.207L59.3345 203.851Z" fill="white"/>
<path d="M99.0198 163.514L91.5396 170.98L99.0198 178.447L106.5 170.98L99.0198 163.514Z" fill="white"/>
<path d="M138.16 124.625L131.054 131.719L138.16 138.812L145.267 131.719L138.16 124.625Z" fill="white"/>
<path d="M177.322 84.3226L168.717 92.9062L177.316 101.496L185.921 92.9122L177.322 84.3226Z" fill="white"/>
<path d="M193.58 53.9144L216.324 30.6836L239.597 53.9144L216.324 76.6173L193.58 53.9144Z" fill="white"/>
<path d="M255.583 -18.6915L222.296 14.5352L255.583 47.7618L288.87 14.5352L255.583 -18.6915Z" fill="white"/>
<path d="M52.356 132.056L59.761 124.664L67.166 132.056L59.761 139.447L52.356 132.056Z" fill="white"/>
<path d="M98.831 85.2391L91.3481 92.7031L98.8257 100.172L106.309 92.7083L98.831 85.2391Z" fill="white"/>
<path d="M138.384 31.2914L115.931 53.6797L138.36 76.0914L160.812 53.7031L138.384 31.2914Z" fill="white"/>
<path d="M59.7198 45.776L51.8628 53.6133L59.7143 61.456L67.5712 53.6188L59.7198 45.776Z" fill="white"/>
<path d="M1575.51 751.689L1542.65 784.594L1575.61 817.395L1608.47 784.491L1575.51 751.689Z" fill="white"/>
<path d="M1496.98 773.4L1486.19 784.277L1497.09 795.053L1507.88 784.175L1496.98 773.4Z" fill="white"/>
<path d="M1418.27 774.631L1408.17 784.711L1418.27 794.791L1428.37 784.711L1418.27 774.631Z" fill="white"/>
<path d="M1458.04 734.941L1447.6 745.422L1458.1 755.848L1468.54 745.367L1458.04 734.941Z" fill="white"/>
<path d="M1496.93 695.957L1486.45 706.41L1496.93 716.863L1507.4 706.41L1496.93 695.957Z" fill="white"/>
<path d="M1340.17 761.005L1316.24 784.898L1340.17 808.792L1364.11 784.898L1340.17 761.005Z" fill="white"/>
<path d="M1355.11 745.032L1379.44 721.273L1403.25 745.56L1379.44 769.319L1355.11 745.032Z" fill="white"/>
<path d="M1408.54 705.964L1418.58 696.461L1428.11 705.964L1418.58 715.996L1408.54 705.964Z" fill="white"/>
<path d="M1447.68 666.894L1457.73 657.391L1467.25 666.894L1457.73 676.926L1447.68 666.894Z" fill="white"/>
<path d="M1301.11 721.887L1277.53 745.383L1301.06 768.927L1324.65 745.432L1301.11 721.887Z" fill="white"/>
<path d="M1339.83 697.099L1330.85 706.062L1339.83 715.019L1348.81 706.056L1339.83 697.099Z" fill="white"/>
<path d="M1379.5 657.821L1370.52 666.781L1379.5 675.741L1388.47 666.781L1379.5 657.821Z" fill="white"/>
<path d="M1261.87 697.764L1253.26 706.348L1261.86 714.937L1270.47 706.354L1261.87 697.764Z" fill="white"/>
<path d="M1292.17 666.893L1300.63 658.445L1309.62 666.893L1300.63 675.868L1292.17 666.893Z" fill="white"/>
<path d="M1449.79 510.615L1457.73 502.695L1465.13 510.615L1457.73 518.007L1449.79 510.615Z" fill="white"/>
<path d="M1497.1 462.681L1488.13 471.641L1497.1 480.601L1506.08 471.641L1497.1 462.681Z" fill="white"/>
<path d="M1526.49 432.472L1536.01 422.969L1545.53 432.472L1536.01 441.448L1526.49 432.472Z" fill="white"/>
<path d="M1214.42 666.892L1222.35 658.973L1230.29 666.892L1222.35 674.812L1214.42 666.892Z" fill="white"/>
<path d="M1379.19 503.176L1372.06 510.242L1379.14 517.363L1386.27 510.297L1379.19 503.176Z" fill="white"/>
<path d="M1418.42 463.812L1410.99 471.332L1418.52 478.745L1425.95 471.225L1418.42 463.812Z" fill="white"/>
<path d="M1449.79 431.946L1457.73 424.555L1465.66 431.946L1457.73 439.866L1449.79 431.946Z" fill="white"/>
<path d="M1487.88 393.402L1496.87 383.898L1506.39 393.402L1496.87 402.377L1487.88 393.402Z" fill="white"/>
<path d="M1536.43 330.374L1512.87 353.895L1536.43 377.415L1559.99 353.894L1536.43 330.374Z" fill="white"/>
<path d="M1574.81 281.394L1541.2 315.047L1574.92 348.594L1608.53 314.941L1574.81 281.394Z" fill="white"/>
<path d="M1300.93 503.806L1294.6 510.176L1300.98 516.499L1307.31 510.129L1300.93 503.806Z" fill="white"/>
<path d="M1332.9 471.544L1340.3 464.152L1347.71 471.544L1339.77 478.936L1332.9 471.544Z" fill="white"/>
<path d="M1379.15 425.293L1372.04 432.387L1379.15 439.48L1386.25 432.387L1379.15 425.293Z" fill="white"/>
<path d="M1418.29 384.386L1409.69 392.973L1418.29 401.559L1426.89 392.973L1418.29 384.386Z" fill="white"/>
<path d="M1457.64 331.622L1434.78 354.344L1457.54 377.169L1480.4 354.447L1457.64 331.622Z" fill="white"/>
<path d="M1496.88 281.897L1463.62 315.152L1496.93 348.35L1530.19 315.094L1496.88 281.897Z" fill="white"/>
<path d="M1535.98 242.418L1502.29 275.988L1535.92 309.618L1569.61 276.047L1535.98 242.418Z" fill="white"/>
<path d="M1575 203.306L1541.32 236.883L1574.95 270.506L1608.64 236.93L1575 203.306Z" fill="white"/>
<path d="M1261.78 465.03L1255.07 471.777L1261.83 478.47L1268.54 471.723L1261.78 465.03Z" fill="white"/>
<path d="M1293.76 432.474L1300.63 425.082L1308.04 432.474L1300.63 439.337L1293.76 432.474Z" fill="white"/>
<path d="M1332.37 393.404L1339.77 385.484L1347.71 393.404L1339.77 400.796L1332.37 393.404Z" fill="white"/>
<path d="M1379.05 331.377L1356.58 353.754L1379 376.177L1401.46 353.801L1379.05 331.377Z" fill="white"/>
<path d="M1418.47 292.242L1395.66 315.016L1418.47 337.789L1441.29 315.016L1418.47 292.242Z" fill="white"/>
<path d="M1457.54 242.563L1424.28 275.812L1457.59 309.016L1490.85 275.766L1457.54 242.563Z" fill="white"/>
<path d="M1496.38 203.117L1463.09 236.344L1496.38 269.57L1529.67 236.344L1496.38 203.117Z" fill="white"/>
<path d="M1536.21 163.886L1502.52 197.457L1536.16 231.086L1569.85 197.516L1536.21 163.886Z" fill="white"/>
<path d="M1575.22 124.783L1541.54 158.359L1575.55 192.356L1609.23 158.78L1575.22 124.783Z" fill="white"/>
<path d="M1183.17 465.332L1177.16 471.281L1183.12 477.279L1189.13 471.329L1183.17 465.332Z" fill="white"/>
<path d="M1216 431.945L1222.35 425.609L1229.23 432.473L1222.35 438.809L1216 431.945Z" fill="white"/>
<path d="M1261.56 386.039L1254.46 393.133L1261.56 400.226L1268.67 393.133L1261.56 386.039Z" fill="white"/>
<path d="M1300.92 346.336L1293.04 354.148L1300.86 362.016L1308.74 354.203L1300.92 346.336Z" fill="white"/>
<path d="M1340.25 293.126L1318.18 315.156L1340.25 337.179L1362.32 315.149L1340.25 293.126Z" fill="white"/>
<path d="M1379.38 252.965L1356.57 275.742L1379.39 298.512L1402.2 275.734L1379.38 252.965Z" fill="white"/>
<path d="M1418.42 203.591L1385.08 236.766L1418.32 270.044L1451.65 236.87L1418.42 203.591Z" fill="white"/>
<path d="M1457.42 164.047L1424.14 197.273L1457.42 230.5L1490.71 197.273L1457.42 164.047Z" fill="white"/>
<path d="M1496.79 125.013L1463.15 158.637L1496.83 192.213L1530.47 158.59L1496.79 125.013Z" fill="white"/>
<path d="M1535.7 85.525L1502.04 119.125L1535.7 152.725L1569.37 119.125L1535.7 85.525Z" fill="white"/>
<path d="M1575.22 46.4859L1541.56 80.0859L1575.22 113.686L1608.88 80.0859L1575.22 46.4859Z" fill="white"/>
<path d="M1105.21 466.746L1100.71 471.215L1105.19 475.706L1109.69 471.237L1105.21 466.746Z" fill="white"/>
<path d="M1143.91 427.489L1139.4 431.945L1143.86 436.449L1148.37 431.992L1143.91 427.489Z" fill="white"/>
<path d="M1182.85 387.039L1176.49 393.383L1182.85 399.733L1189.21 393.389L1182.85 387.039Z" fill="white"/>
<path d="M1222.82 346.835L1215.71 353.926L1222.82 361.022L1229.92 353.931L1222.82 346.835Z" fill="white"/>
<path d="M1241.92 314.734L1261.49 295.199L1281.59 314.734L1261.49 334.269L1241.92 314.734Z" fill="white"/>
<path d="M1292.7 275.666L1300.63 267.746L1308.57 275.666L1300.63 283.585L1292.7 275.666Z" fill="white"/>
<path d="M1340.42 213.906L1317.61 236.684L1340.43 259.453L1363.24 236.676L1340.42 213.906Z" fill="white"/>
<path d="M1379.63 164.5L1346.36 197.75L1379.67 230.953L1412.94 197.704L1379.63 164.5Z" fill="white"/>
<path d="M1418.47 124.976L1385.18 158.203L1418.47 191.43L1451.75 158.203L1418.47 124.976Z" fill="white"/>
<path d="M1457.98 85.7147L1424.69 118.941L1457.98 152.168L1491.27 118.941L1457.98 85.7147Z" fill="white"/>
<path d="M1496.75 46.6757L1463.46 79.9023L1496.75 113.129L1530.03 79.9024L1496.75 46.6757Z" fill="white"/>
<path d="M1536.53 7.74576L1502.83 41.3047L1536.45 74.9457L1570.15 41.3868L1536.53 7.74576Z" fill="white"/>
<path d="M1021.36 471.541L1026.65 466.262L1031.41 471.541L1026.65 476.821L1021.36 471.541Z" fill="white"/>
<path d="M1065.58 427.205L1061.08 431.672L1065.55 436.165L1070.06 431.698L1065.58 427.205Z" fill="white"/>
<path d="M1098.58 393.402L1104.93 387.066L1110.75 393.402L1104.93 399.21L1098.58 393.402Z" fill="white"/>
<path d="M1123.44 353.806L1144.07 333.215L1164.7 353.806L1144.07 374.925L1123.44 353.806Z" fill="white"/>
<path d="M1183.65 282.512L1151.11 314.992L1183.65 347.472L1216.19 314.992L1183.65 282.512Z" fill="white"/>
<path d="M1222.9 255.869L1203.1 275.684L1222.95 295.443L1242.75 275.628L1222.9 255.869Z" fill="white"/>
<path d="M1261.56 203.838L1228.65 236.691L1261.56 269.545L1294.47 236.691L1261.56 203.838Z" fill="white"/>
<path d="M1300.7 164.951L1267.79 197.805L1300.7 230.658L1333.61 197.805L1300.7 164.951Z" fill="white"/>
<path d="M1340.06 125.205L1306.75 158.402L1340 191.658L1373.32 158.46L1340.06 125.205Z" fill="white"/>
<path d="M1379.25 86.3179L1345.94 119.516L1379.19 152.771L1412.51 119.574L1379.25 86.3179Z" fill="white"/>
<path d="M1418.63 47.0564L1385.33 80.2656L1418.6 113.51L1451.9 80.3004L1418.63 47.0564Z" fill="white"/>
<path d="M1457.8 8.16965L1424.5 41.3789L1457.77 74.623L1491.07 41.4137L1457.8 8.16965Z" fill="white"/>
<path d="M987.431 426.774L981.818 432.371L987.426 437.974L993.039 432.377L987.431 426.774Z" fill="white"/>
<path d="M1026.32 387.565L1020.69 393.152L1026.66 399.139L1032.29 393.552L1026.32 387.565Z" fill="white"/>
<path d="M1117.74 295.582L1085.18 328.039L1104.99 347.84L1137.55 315.382L1117.74 295.582Z" fill="white"/>
<path d="M1156.48 256.497L1123.94 288.977L1143.76 308.763L1176.3 276.283L1156.48 256.497Z" fill="white"/>
<path d="M1196.15 217.082L1163.61 249.562L1183.43 269.349L1215.97 236.869L1196.15 217.082Z" fill="white"/>
<path d="M1235.14 177.663L1202.19 210.477L1221.99 230.287L1254.94 197.474L1235.14 177.663Z" fill="white"/>
<path d="M1274.43 138.565L1241.52 171.418L1261.72 191.578L1294.63 158.725L1274.43 138.565Z" fill="white"/>
<path d="M1313.95 99.3046L1280.66 132.531L1300.86 152.691L1334.14 119.465L1313.95 99.3046Z" fill="white"/>
<path d="M1392.75 20.8278L1359.44 54.0312L1379.62 74.2053L1412.93 41.0019L1392.75 20.8278Z" fill="white"/>
</g>
<defs>
<clipPath id="clip0_4053_30725">
<rect width="1600" height="782" fill="white"/>
</clipPath>
</defs>
</svg>
