<svg width="30" height="30" viewBox="0 0 30 30" fill="none" xmlns="http://www.w3.org/2000/svg">
<path d="M1.46686 13.329H2.54V16.6722H1.46686C0.913262 16.6722 0.464844 16.2207 0.464844 15.6671V14.3311C0.464844 13.7775 0.913262 13.329 1.46686 13.329ZM29.5359 14.3311V15.6671C29.5359 16.2206 29.0875 16.6722 28.5339 16.6722H27.4576V13.329H28.5339C29.0875 13.329 29.5359 13.7775 29.5359 14.3311ZM9.514 7.90139V22.0967C9.51409 22.1577 9.50215 22.218 9.47886 22.2743C9.45558 22.3307 9.42142 22.3818 9.37832 22.4249C9.33523 22.468 9.28406 22.5022 9.22774 22.5255C9.17142 22.5488 9.11106 22.5607 9.05012 22.5606H7.37387C6.54506 22.5606 5.87082 21.8864 5.87082 21.0576V19.4957H4.65846C3.8327 19.4957 3.15852 18.8216 3.15852 17.9927V12.0054C3.15852 11.1766 3.8327 10.5024 4.65846 10.5024H5.87082V8.94055C5.87082 8.11174 6.545 7.4375 7.37387 7.4375H9.05012C9.11106 7.43742 9.17141 7.44937 9.22773 7.47265C9.28405 7.49594 9.33522 7.53011 9.37831 7.5732C9.4214 7.61629 9.45556 7.66746 9.47885 7.72377C9.50213 7.78009 9.51408 7.84045 9.514 7.90139ZM26.8391 12.0054V17.9928C26.8391 18.8216 26.168 19.4959 25.3392 19.4959H24.1269V21.0577C24.1269 21.8865 23.4527 22.5607 22.6238 22.5607H20.9476C20.694 22.5607 20.4837 22.3535 20.4837 22.0968V7.90139C20.4837 7.64469 20.694 7.4375 20.9476 7.4375H22.6238C23.4526 7.4375 24.1269 8.11168 24.1269 8.94055V10.5024H25.3392C26.168 10.5024 26.8391 11.1765 26.8391 12.0054Z" fill="#424242"/>
<path d="M10.1318 13.3281H19.8645V16.6713H10.1318V13.3281Z" fill="#E10A17"/>
</svg>
