<svg width="1600" height="25" viewBox="0 0 1600 25" fill="none" xmlns="http://www.w3.org/2000/svg">
<path fill-rule="evenodd" clip-rule="evenodd" d="M1601 22.1798V0H0.00964355L0 19.1144L29.1854 18.0108L55.458 18.9917L109.652 16.662L130.505 15.3132L144.258 12.493L157.288 12.2171L173.444 13.3513L189.705 9.91806L200.546 11.5121L209.718 9.91806L233.483 11.2668L245.992 9.18236L261.839 13.3513H269.343L291.439 11.2668L308.115 10.5312H328.128L352.723 12.493L385.457 12.1865L408.595 13.5966L446.529 13.474L438.195 20.2179L456.955 22.9155L499.903 23.6512L597.047 21.6893L627.061 23.6512L649.992 19.85L699.71 21.6893L799.669 22.0572L848.032 25L893.893 24.6322L915.574 23.2834L927.665 21.5667L950.804 17.5817L1000.63 15.8037H1048.57L1098.19 17.5204L1130.29 15.8037L1157.81 17.8882L1199.92 12.3704L1294.14 17.3977L1329.16 16.7846L1375.86 21.5667L1392.12 19.4822L1442.57 17.3977L1494.27 15.9263L1505.11 18.0108L1601 22.1798Z" fill="white"/>
</svg>
