<svg width="1600" height="25" viewBox="0 0 1600 25" fill="none" xmlns="http://www.w3.org/2000/svg">
<path fill-rule="evenodd" clip-rule="evenodd" d="M0 2.82018V25H1600.99L1601 5.88561L1571.81 6.9892L1545.54 6.00826L1491.35 8.33799L1470.5 9.68678L1456.74 12.507L1443.71 12.7829L1427.56 11.6487L1411.3 15.0819L1400.45 13.4879L1391.28 15.0819L1367.52 13.7332L1355.01 15.8176L1339.16 11.6487H1331.66L1309.56 13.7332L1292.89 14.4688H1272.87L1248.28 12.507L1215.54 12.8135L1192.4 11.4034L1154.47 11.526L1162.8 4.78207L1144.05 2.0845L1101.1 1.34879L1003.95 3.31068L973.939 1.34879L951.008 5.14997L901.29 3.31068L801.331 2.94283L752.968 0L707.107 0.367842L685.426 1.71663L673.335 3.43328L650.196 7.41832L600.374 9.19634H552.427L502.813 7.47965L470.709 9.19634L443.192 7.1118L401.083 12.6296L306.858 7.6023L271.836 8.2154L225.14 3.43328L208.88 5.51776L158.432 7.6023L106.733 9.07369L95.8928 6.9892L0 2.82018Z" fill="white"/>
</svg>
