<svg width="211" height="199" viewBox="0 0 211 199" fill="none" xmlns="http://www.w3.org/2000/svg">
<g style="mix-blend-mode:lighten" opacity="0.2">
<path d="M240.736 158.871H237.449L200.897 61.7344L204.592 61.9409L240.736 158.871Z" stroke="#1D1E1C" stroke-width="1.32" stroke-miterlimit="2.61"/>
<path fill-rule="evenodd" clip-rule="evenodd" d="M265.605 183.167L186.331 183.17L200.684 192.874L118.954 192.819L126.196 105.5L116.653 163.102L64.6819 178.522L47.6263 151.153L58.9164 157.262L63.5886 155.584V150.644L70.0185 152.05L76.3505 148.098L64.0015 119.289L37.2416 110.551L29.0407 118.061L30.0228 127.927L21.5758 119.519L10.6589 93.0532L6.44205 92.942L7.41882 86.6285L11.0137 72.2837L57.4737 44.7375L62.2571 34.4718L138.929 26.5648L184.894 5.57031H193.267L200.782 8.20687L169.488 49.6929L183.457 40.4888L199.885 50.0212L250.257 131.572L239.02 136.593L265.605 183.167Z" fill="#1D1E1C"/>
<path fill-rule="evenodd" clip-rule="evenodd" d="M50.2481 146.257L36.6868 138.917L35.5379 127.381L34.8311 120.262L38.5768 116.821L59.8811 123.78L69.3578 145.895L68.9925 146.122L64.7571 145.196L58.0413 143.727V150.464L50.2481 146.257ZM204.458 188.712H275.16L270.432 180.429L246.873 139.158L252.514 136.638L258.314 134.046L254.973 128.651L204.601 47.1033L203.862 45.9068L202.668 45.2132L186.785 35.9932L205.215 11.5521L209.792 5.48488L202.607 2.9648L195.092 0.317657L194.163 0H183.73L182.589 0.529429L137.466 21.1295L61.689 28.9439L58.5389 29.2668L57.2154 32.1178L53.16 40.8375L8.18494 67.5022L6.18372 68.6881L5.61987 70.9355L2.02502 85.2831L1.93768 85.7807L0.960907 92.0968L0 98.3229L6.30548 98.4738L6.89844 98.4897L16.4282 121.618L16.857 122.661L17.6512 123.455L26.0982 131.862L33.8596 139.587L42.897 154.088L59.9499 181.456L62.2 185.035L66.2448 183.834L115.32 169.274L113.406 192.347L112.909 198.345H118.952L200.683 198.401L218.829 198.414L204.458 188.712ZM265.607 183.153H186.33L200.683 192.871L118.952 192.815L126.195 105.497L116.665 163.099L64.6935 178.518L47.6248 151.152L58.9148 157.262L63.5871 155.583V150.641L70.017 152.047L76.3489 148.095L64 119.286L37.24 110.55L29.0339 118.06L30.0159 127.926L21.5689 119.519L10.6521 93.0471L6.43518 92.936L7.41199 86.6225L11.0068 72.2776L57.4722 44.7367L62.2555 34.4711L138.927 26.5614L184.893 5.559H193.265L200.781 8.20615L169.486 49.6896L183.455 40.4854L199.883 50.0152L250.256 131.563L239.019 136.593L265.607 183.153Z" fill="white"/>
<path fill-rule="evenodd" clip-rule="evenodd" d="M50.2946 146.272L36.7306 138.929L35.5817 127.393L34.8749 120.277L38.6206 116.844L59.9249 123.8L69.4043 145.917L69.0363 146.145L64.7983 145.218L58.0825 143.749L58.0798 150.486L50.2946 146.272Z" fill="#1D1E1C"/>
<path fill-rule="evenodd" clip-rule="evenodd" d="M94.4434 136.846L68.676 104.686L31.7801 91.919L178.106 12.9414L188.316 18.2701L174.369 16.9068L168.921 21.3514L181.129 28.4749L163.431 25.3856L157.273 30.0896L173.365 38.9602L150.052 35.9663L79.0317 91.3392L101.225 88.9356L94.4434 136.846Z" fill="#DE1F27"/>
<path fill-rule="evenodd" clip-rule="evenodd" d="M11.2816 89.8024L14.1617 74.9095L35.1377 63.3203L23.7259 83.1633L11.2816 89.8024Z" fill="#3C3C3B"/>
<path d="M11.2816 89.8024L14.1617 74.9095L35.1377 63.3203L23.7259 83.1633L11.2816 89.8024Z" fill="#71706F"/>
<path fill-rule="evenodd" clip-rule="evenodd" d="M91.1641 127.022L73.0444 101.321L45.8874 91.8517L100.763 61.6875L70.7547 88.5031L80.8006 103.144L90.0762 96.7569L91.1641 127.022Z" fill="#71706F"/>
<path fill-rule="evenodd" clip-rule="evenodd" d="M65.3767 37.1853L95.8691 34.2734L59.2194 51.3316L65.3767 37.1853Z" fill="#DE1F27"/>
<path fill-rule="evenodd" clip-rule="evenodd" d="M67.5053 38.4515L77.8848 37.3477L63.9422 47.1977L67.5053 38.4515Z" fill="white"/>
<path fill-rule="evenodd" clip-rule="evenodd" d="M13.6534 84.1533L15.7499 75.4415L25.6396 69.5781L13.6534 84.1533Z" fill="#DE1F27"/>
<path fill-rule="evenodd" clip-rule="evenodd" d="M132.699 96.1406L145.331 172.246L165.476 185.273L127.759 184.889L132.699 96.1406Z" fill="#DE1F27"/>
<path fill-rule="evenodd" clip-rule="evenodd" d="M165.102 76.0225L183.491 47.5312L194.94 54.3291L241.437 128.632L231.143 133.132L255.242 176.394L196.497 177.024L186.003 172.199L186.808 86.7461L174.414 135.154L165.102 76.0225Z" fill="#DE1F27"/>
<path fill-rule="evenodd" clip-rule="evenodd" d="M188.055 63.2139L215.681 170.855L246.377 170.966L223.715 130.915L232.996 126.166L191.848 58.0361L184.196 53.7266L176.667 102.368L188.055 63.2139Z" fill="#71706F"/>
<path fill-rule="evenodd" clip-rule="evenodd" d="M155.375 31.9141L165.617 36.5466L151.368 34.7306L155.375 31.9141Z" fill="white"/>
<path fill-rule="evenodd" clip-rule="evenodd" d="M167.383 22.6641L175.433 26.3039L164.945 24.3794L167.383 22.6641Z" fill="white"/>
<path fill-rule="evenodd" clip-rule="evenodd" d="M177.48 14.2656L182.685 16.4786L175.503 15.658L177.48 14.2656Z" fill="white"/>
<path fill-rule="evenodd" clip-rule="evenodd" d="M45.8879 91.8516L79.4404 73.4062L50.3615 93.4107L45.8879 91.8516Z" fill="white"/>
<path fill-rule="evenodd" clip-rule="evenodd" d="M151.376 181.222L132.197 180.619L133.465 130.066L139.151 170.292L136.703 174.448L151.376 181.222Z" fill="#71706F"/>
<path fill-rule="evenodd" clip-rule="evenodd" d="M56.3855 95.5128L76.5303 83.3359L60.5151 96.9529L56.3855 95.5128Z" fill="white"/>
<path fill-rule="evenodd" clip-rule="evenodd" d="M27.8124 90.2912L123.597 42.3594L32.2834 91.8504L27.8124 90.2912Z" fill="#71706F"/>
</g>
</svg>
